<svg width="30" height="30" viewBox="0 0 30 30" fill="none" xmlns="http://www.w3.org/2000/svg">
<g clip-path="url(#clip0_116_306)">
<g clip-path="url(#clip1_116_306)">
<circle cx="15" cy="15" r="15" fill="#EDEDED"/>
</g>
<path fill-rule="evenodd" clip-rule="evenodd" d="M18.0532 11.1815L12.2644 12.339L12.1393 12.0791C12.0443 11.8816 11.901 11.7113 11.7227 11.5838C11.5444 11.4563 11.3368 11.3759 11.1192 11.3498C10.9016 11.3238 10.6809 11.353 10.4776 11.4349C10.2742 11.5167 10.0948 11.6484 9.95588 11.8179C9.81693 11.9874 9.72296 12.1892 9.68263 12.4047C9.64231 12.6201 9.65694 12.8422 9.72517 13.0505C9.7934 13.2588 9.91303 13.4465 10.073 13.5963C10.233 13.7461 10.4281 13.8532 10.6404 13.9077L10.9199 13.9793V18.0357L10.6404 18.1074C10.4175 18.1646 10.2136 18.2797 10.0495 18.4412C9.88543 18.6026 9.76699 18.8046 9.70621 19.0267C9.64544 19.2487 9.64449 19.4828 9.70347 19.7054C9.76245 19.9279 9.87926 20.1308 10.042 20.2936C10.2048 20.4564 10.4077 20.5732 10.6303 20.6321C10.8528 20.6911 11.0869 20.6902 11.3089 20.6294C11.531 20.5686 11.733 20.4502 11.8944 20.2861C12.0559 20.122 12.171 19.9181 12.2282 19.6952L12.2999 19.4157H16.3565L16.428 19.6954C16.4824 19.9079 16.5894 20.1033 16.7392 20.2634C16.8891 20.4236 17.0769 20.5434 17.2853 20.6118C17.4937 20.6801 17.716 20.6948 17.9316 20.6545C18.1472 20.6142 18.3492 20.5201 18.5188 20.3811C18.6884 20.242 18.8202 20.0625 18.9021 19.859C18.9839 19.6555 19.0131 19.4346 18.987 19.2168C18.9609 18.9991 18.8802 18.7914 18.7526 18.613C18.6249 18.4347 18.4544 18.2914 18.2567 18.1964L17.9964 18.0714L19.1541 12.2826L19.4419 12.2668C19.7747 12.2486 20.088 12.1037 20.3175 11.862C20.5469 11.6203 20.6753 11.3 20.6762 10.9667C20.6768 10.6267 20.5446 10.2999 20.3078 10.0559C20.071 9.81182 19.7482 9.66991 19.4082 9.66036C19.0683 9.65081 18.7381 9.77437 18.4879 10.0047C18.2377 10.2351 18.0874 10.554 18.0689 10.8936L18.0532 11.1815ZM21.0481 10.9675C21.0469 11.3958 20.882 11.8074 20.5871 12.118C20.2923 12.4286 19.8898 12.6146 19.4622 12.6381L18.4177 17.8612C18.6717 17.9833 18.8909 18.1674 19.055 18.3966C19.219 18.6258 19.3226 18.8927 19.3562 19.1725C19.3898 19.4524 19.3522 19.7362 19.2471 19.9977C19.1419 20.2592 18.9725 20.49 18.7545 20.6686C18.5365 20.8473 18.277 20.9682 18 21.02C17.7229 21.0718 17.4373 21.0529 17.1694 20.9651C16.9016 20.8772 16.6603 20.7233 16.4677 20.5175C16.2751 20.3117 16.1376 20.0606 16.0678 19.7875H12.5884C12.5149 20.0741 12.3669 20.3361 12.1595 20.5469C11.952 20.7577 11.6924 20.9099 11.4071 20.988C11.1218 21.0661 10.8209 21.0674 10.535 20.9916C10.2491 20.9158 9.98827 20.7657 9.7791 20.5565C9.56993 20.3473 9.41984 20.0866 9.34405 19.8006C9.26826 19.5147 9.26947 19.2138 9.34757 18.9285C9.42566 18.6432 9.57786 18.3836 9.78871 18.1761C9.99956 17.9687 10.2615 17.8207 10.5481 17.7472V14.2678C10.2752 14.1979 10.0244 14.0603 9.81883 13.8677C9.61324 13.6752 9.45949 13.4339 9.37181 13.1663C9.28412 12.8986 9.26532 12.6131 9.31714 12.3363C9.36896 12.0594 9.48974 11.8 9.6683 11.5822C9.84687 11.3644 10.0775 11.195 10.3388 11.0899C10.6001 10.9848 10.8837 10.9472 11.1634 10.9806C11.4431 11.0141 11.7098 11.1175 11.9389 11.2813C12.1681 11.4451 12.3522 11.6641 12.4744 11.9179L17.6976 10.8734C17.7214 10.437 17.9145 10.0272 18.236 9.73119C18.5575 9.43518 18.9819 9.27639 19.4187 9.28866C19.8555 9.30094 20.2703 9.48329 20.5747 9.79689C20.879 10.1105 21.0489 10.5305 21.0481 10.9675ZM19.3677 9.75569L19.3681 9.75569C19.6078 9.75569 19.8421 9.82676 20.0413 9.95992C20.2406 10.0931 20.396 10.2823 20.4877 10.5038C20.5794 10.7252 20.6034 10.9689 20.5566 11.2039C20.5099 11.439 20.3945 11.655 20.225 11.8244C20.0555 11.9939 19.8396 12.1093 19.6045 12.1561C19.3694 12.2028 19.1258 12.1788 18.9043 12.0871C18.6829 11.9954 18.4936 11.8401 18.3605 11.6408C18.2273 11.4415 18.1562 11.2072 18.1562 10.9675V10.9671C18.1566 10.6459 18.2844 10.338 18.5115 10.1109C18.7386 9.88381 19.0465 9.75606 19.3677 9.75569ZM9.75624 12.648L9.75624 12.6475C9.75624 12.4079 9.82732 12.1736 9.96047 11.9743C10.0936 11.775 10.2829 11.6197 10.5043 11.5279C10.7258 11.4362 10.9694 11.4122 11.2045 11.459C11.4396 11.5057 11.6555 11.6212 11.825 11.7906C11.9945 11.9601 12.1099 12.176 12.1566 12.4111C12.2034 12.6462 12.1794 12.8898 12.0877 13.1113C11.996 13.3327 11.8406 13.522 11.6413 13.6551C11.4421 13.7883 11.2078 13.8594 10.9681 13.8594H10.9677C10.6465 13.859 10.3386 13.7313 10.1115 13.5041C9.88436 13.277 9.75661 12.9691 9.75624 12.648ZM12.1799 19.3675V19.368C12.1796 19.6891 12.0518 19.997 11.8247 20.2241C11.5976 20.4513 11.2897 20.579 10.9685 20.5794L10.9681 20.5794C10.7284 20.5794 10.4941 20.5083 10.2948 20.3751C10.0955 20.242 9.94021 20.0527 9.84849 19.8313C9.75677 19.6098 9.73277 19.3662 9.77953 19.1311C9.82629 18.896 9.9417 18.6801 10.1112 18.5106C10.2807 18.3412 10.4966 18.2257 10.7317 18.179C10.9667 18.1322 11.2104 18.1562 11.4318 18.2479C11.6533 18.3397 11.8425 18.495 11.9757 18.6943C12.1088 18.8936 12.1799 19.1278 12.1799 19.3675ZM16.3553 19.3194H12.301L12.2286 19.0413C12.17 18.8166 12.0526 18.6115 11.8883 18.4473C11.7241 18.283 11.5191 18.1656 11.2943 18.107L11.0162 18.0346V13.9803L11.2945 13.908C11.5615 13.8386 11.7995 13.6862 11.9743 13.4728C12.1492 13.2594 12.2517 12.9961 12.2673 12.7207L12.2835 12.4334L18.0705 11.2763L18.1961 11.5345C18.3245 11.7982 18.5375 12.0112 18.8012 12.1394L19.0594 12.2651L17.9022 18.052L17.615 18.0682C17.3396 18.0838 17.0762 18.1864 16.8628 18.3612C16.6494 18.5361 16.4971 18.7741 16.4276 19.0411L16.3553 19.3194ZM17.6885 20.5794L17.6881 20.5794C17.4484 20.5794 17.2141 20.5083 17.0148 20.3751C16.8155 20.242 16.6602 20.0527 16.5685 19.8313C16.4768 19.6098 16.4528 19.3662 16.4995 19.1311C16.5463 18.896 16.6617 18.6801 16.8312 18.5106C17.0007 18.3412 17.2166 18.2257 17.4517 18.179C17.6867 18.1322 17.9304 18.1562 18.1518 18.2479C18.3733 18.3397 18.5625 18.495 18.6957 18.6943C18.8288 18.8936 18.8999 19.1278 18.8999 19.3675V19.368C18.8996 19.6891 18.7718 19.997 18.5447 20.2241C18.3176 20.4513 18.0097 20.579 17.6885 20.5794ZM19.3681 10.1275C19.5342 10.1275 19.6966 10.1768 19.8348 10.2691C19.9729 10.3614 20.0806 10.4926 20.1441 10.6461C20.2077 10.7996 20.2244 10.9685 20.1919 11.1314C20.1595 11.2943 20.0795 11.444 19.9621 11.5615C19.8446 11.679 19.6949 11.759 19.532 11.7914C19.369 11.8238 19.2001 11.8072 19.0466 11.7436C18.8931 11.68 18.7619 11.5723 18.6696 11.4342C18.5773 11.2961 18.5281 11.1337 18.5281 10.9675C18.5283 10.7448 18.6169 10.5313 18.7744 10.3738C18.9319 10.2164 19.1454 10.1278 19.3681 10.1275ZM10.1281 12.6475C10.1281 12.4814 10.1773 12.319 10.2696 12.1809C10.3619 12.0427 10.4931 11.935 10.6466 11.8715C10.8001 11.8079 10.969 11.7913 11.132 11.8237C11.2949 11.8561 11.4446 11.9361 11.5621 12.0536C11.6795 12.171 11.7595 12.3207 11.7919 12.4837C11.8244 12.6466 11.8077 12.8155 11.7441 12.969C11.6806 13.1225 11.5729 13.2537 11.4348 13.346C11.2966 13.4383 11.1342 13.4875 10.9681 13.4875C10.7454 13.4873 10.5319 13.3987 10.3744 13.2412C10.2169 13.0837 10.1283 12.8702 10.1281 12.6475ZM10.9681 20.2075C10.8019 20.2075 10.6395 20.1583 10.5014 20.066C10.3633 19.9737 10.2556 19.8425 10.192 19.689C10.1284 19.5355 10.1118 19.3666 10.1442 19.2037C10.1766 19.0407 10.2566 18.891 10.3741 18.7736C10.4916 18.6561 10.6413 18.5761 10.8042 18.5437C10.9672 18.5113 11.136 18.5279 11.2895 18.5915C11.443 18.655 11.5742 18.7627 11.6665 18.9008C11.7588 19.039 11.8081 19.2014 11.8081 19.3675C11.8078 19.5902 11.7192 19.8037 11.5618 19.9612C11.4043 20.1187 11.1908 20.2073 10.9681 20.2075ZM12.5884 18.9475H16.0678C16.157 18.6044 16.3529 18.2984 16.6271 18.0736C16.9014 17.8489 17.2399 17.717 17.594 17.697L18.6385 12.4738C18.3 12.3091 18.0265 12.0357 17.8618 11.6972L12.6385 12.7417C12.6185 13.0957 12.4867 13.4342 12.262 13.7085C12.0372 13.9827 11.7312 14.1786 11.3881 14.2678V17.7472C11.6768 17.8225 11.9403 17.9734 12.1513 18.1843C12.3623 18.3953 12.5132 18.6588 12.5884 18.9475ZM17.2214 20.066C17.3595 20.1583 17.5219 20.2075 17.6881 20.2075C17.9108 20.2073 18.1243 20.1187 18.2818 19.9612C18.4392 19.8037 18.5278 19.5902 18.5281 19.3675C18.5281 19.2014 18.4788 19.039 18.3865 18.9008C18.2942 18.7627 18.163 18.655 18.0095 18.5915C17.856 18.5279 17.6872 18.5113 17.5242 18.5437C17.3613 18.5761 17.2116 18.6561 17.0941 18.7736C16.9766 18.891 16.8966 19.0407 16.8642 19.2037C16.8318 19.3666 16.8484 19.5355 16.912 19.689C16.9756 19.8425 17.0833 19.9737 17.2214 20.066Z" fill="#333333"/>
</g>
<defs>
<clipPath id="clip0_116_306">
<rect width="30" height="30" fill="white"/>
</clipPath>
<clipPath id="clip1_116_306">
<rect width="30" height="30" fill="white"/>
</clipPath>
</defs>
</svg>
