<svg width="40" height="40" viewBox="0 0 40 40" fill="none" xmlns="http://www.w3.org/2000/svg">
<path d="M25.5202 16.1954C25.1878 14.8054 24.4318 13.543 23.3473 12.5863C22.0728 11.4619 20.434 10.8428 18.7328 10.8428C14.8849 10.8428 11.7544 13.9733 11.7544 17.8212C11.7544 17.8809 11.7551 17.9406 11.7567 18.0004C11.6976 17.9985 11.6386 17.9976 11.5797 17.9976C8.50306 17.9976 6 20.5006 6 23.5773C6 26.654 8.50306 29.1571 11.5797 29.1571H25.5192C29.0927 29.1571 32 26.2498 32 22.6763C32 19.1029 29.0934 16.1958 25.5202 16.1954ZM25.5192 27.6336H11.5797C9.34308 27.6336 7.52344 25.8139 7.52344 23.5773C7.52344 21.3407 9.34308 19.521 11.5797 19.521C11.8678 19.521 12.1584 19.5524 12.4433 19.6141L13.5442 19.8527L13.3556 18.7422C13.304 18.4385 13.2779 18.1287 13.2779 17.8212C13.2779 14.8134 15.725 12.3663 18.7328 12.3663C21.4555 12.3663 23.7798 14.3979 24.1392 17.0921L24.2375 17.829L24.9765 17.7486C25.1576 17.7289 25.3401 17.719 25.5192 17.719C28.2527 17.719 30.4766 19.9428 30.4766 22.6763C30.4766 25.4098 28.2527 27.6336 25.5192 27.6336Z" fill="black"/>
<path d="M17.7878 23.2107C17.7274 23.359 17.6479 23.4838 17.5492 23.5853C17.4504 23.6869 17.342 23.7692 17.2241 23.8323C17.106 23.8954 16.9826 23.9421 16.8537 23.9722C16.7247 24.0024 16.5998 24.0174 16.4792 24.0174C16.2432 24.0174 16.0306 23.9695 15.8413 23.8734C15.652 23.7775 15.4901 23.6471 15.3557 23.4824C15.2212 23.3178 15.1183 23.1285 15.047 22.9145C14.9756 22.7005 14.94 22.4783 14.94 22.2478C14.94 22.0338 14.9701 21.8227 15.0306 21.6141C15.0909 21.4056 15.1841 21.219 15.3104 21.0544C15.4366 20.8898 15.5957 20.7554 15.7878 20.6511C15.9798 20.547 16.2047 20.4947 16.4627 20.4947C16.5833 20.4947 16.7068 20.507 16.8331 20.5317C16.9592 20.5564 17.0826 20.6004 17.2034 20.6634C17.3241 20.7265 17.4351 20.8088 17.5367 20.9103C17.6382 21.0119 17.7219 21.1395 17.7877 21.293L18.8248 20.5687C18.6273 20.1901 18.3268 19.8829 17.9236 19.6469C17.5203 19.411 17.0442 19.293 16.4956 19.293C16.0347 19.293 15.6231 19.3781 15.261 19.5481C14.8988 19.7183 14.5915 19.9405 14.3391 20.2148C14.0867 20.4892 13.8947 20.8006 13.763 21.149C13.6313 21.4975 13.5654 21.8473 13.5654 22.1984C13.5654 22.5716 13.6354 22.9391 13.7753 23.3013C13.9152 23.6634 14.1127 23.9872 14.3679 24.2725C14.6231 24.5579 14.9276 24.7869 15.2815 24.9597C15.6354 25.1326 16.0235 25.219 16.4462 25.219C16.6876 25.219 16.9345 25.1888 17.1869 25.1284C17.4393 25.0681 17.6779 24.9803 17.903 24.865C18.1279 24.7498 18.3269 24.6072 18.4997 24.4371C18.6726 24.267 18.8029 24.0749 18.8907 23.8609L17.7878 23.2107Z" fill="black"/>
<path d="M24.775 21.1778C24.6377 20.8211 24.4429 20.5029 24.1906 20.223C23.9382 19.9432 23.6336 19.7183 23.277 19.5481C22.9203 19.3781 22.5252 19.293 22.0918 19.293C21.6692 19.293 21.2796 19.374 20.923 19.5358C20.5663 19.6977 20.2576 19.9144 19.9971 20.186C19.7364 20.4576 19.5334 20.7718 19.388 21.1284C19.2426 21.4851 19.1699 21.8555 19.1699 22.2396C19.1699 22.6182 19.2399 22.9858 19.3798 23.3425C19.5197 23.6992 19.7158 24.0161 19.9683 24.2931C20.2206 24.5703 20.5251 24.7939 20.8819 24.9639C21.2385 25.1341 21.6336 25.2191 22.0671 25.2191C22.4895 25.2191 22.8791 25.1368 23.2359 24.9721C23.5925 24.8076 23.8997 24.5894 24.1577 24.3178C24.4156 24.0462 24.6172 23.7322 24.7627 23.3754C24.908 23.0188 24.9808 22.6484 24.9808 22.2643C24.9808 21.8967 24.9121 21.5346 24.775 21.1778ZM23.5116 22.8857C23.4484 23.097 23.3538 23.2863 23.2276 23.4536C23.1013 23.621 22.9422 23.7568 22.7502 23.861C22.5581 23.9653 22.3331 24.0174 22.0753 24.0174C21.8284 24.0174 21.6089 23.968 21.4169 23.8692C21.2247 23.7705 21.0643 23.6388 20.9354 23.4741C20.8064 23.3095 20.7091 23.1217 20.6432 22.9103C20.5773 22.6992 20.5444 22.4811 20.5444 22.256C20.5444 22.0366 20.576 21.8212 20.6391 21.6099C20.7021 21.3987 20.7982 21.2107 20.9272 21.0461C21.056 20.8815 21.2152 20.7485 21.4045 20.6469C21.5938 20.5454 21.8173 20.4946 22.0753 20.4946C22.3223 20.4946 22.5404 20.5427 22.7297 20.6386C22.919 20.7347 23.0795 20.8637 23.2112 21.0255C23.3429 21.1874 23.4417 21.374 23.5075 21.5851C23.5734 21.7964 23.6063 22.0145 23.6063 22.2394C23.6062 22.4591 23.5746 22.6745 23.5116 22.8857Z" fill="black"/>
<path d="M25.8647 25.6833C25.8879 25.6577 25.9219 25.6287 25.967 25.5965C26.012 25.5643 26.061 25.5321 26.1137 25.4999C26.1665 25.4678 26.2199 25.4362 26.274 25.4053C26.328 25.3744 26.3744 25.3474 26.4129 25.3242C26.4695 25.2908 26.5249 25.2541 26.5789 25.2142C26.633 25.1743 26.6819 25.128 26.7257 25.0752C26.7694 25.0225 26.8048 24.9626 26.8318 24.8957C26.8589 24.8288 26.8724 24.7528 26.8724 24.6679C26.8724 24.462 26.7984 24.2986 26.6503 24.1775C26.5023 24.0566 26.2893 23.9961 26.0114 23.9961C25.8981 23.9961 25.7894 24.0064 25.6851 24.027C25.5809 24.0476 25.485 24.0752 25.3975 24.11C25.31 24.1447 25.2315 24.184 25.162 24.2278C25.0925 24.2715 25.0371 24.3165 24.9959 24.3629L25.3898 24.8185C25.4644 24.7335 25.5416 24.6647 25.6214 24.6119C25.7011 24.5592 25.7951 24.5327 25.9033 24.5327C25.9985 24.5327 26.0718 24.5547 26.1233 24.5984C26.1748 24.6422 26.2006 24.7001 26.2006 24.7721C26.2006 24.8082 26.1903 24.8397 26.1697 24.8667C26.1491 24.8938 26.115 24.924 26.0674 24.9575C26.0197 24.991 25.9554 25.0296 25.8744 25.0733C25.7933 25.1171 25.6923 25.1724 25.5713 25.2394C25.458 25.3038 25.3641 25.3694 25.2895 25.4362C25.2148 25.5032 25.1556 25.5759 25.1118 25.6544C25.0681 25.7329 25.0372 25.8197 25.0192 25.915C25.0012 26.0102 24.9922 26.1183 24.9922 26.2393H26.9149V25.6833H25.8647Z" fill="black"/>
</svg>
