<svg width="50" height="51" viewBox="0 0 50 51" fill="none" xmlns="http://www.w3.org/2000/svg">
<circle cx="25" cy="26" r="25" fill="#9BE938"/>
<path d="M27.903 27.7431C27.903 29.3814 26.6008 30.7142 25 30.7142C23.3992 30.7142 22.0975 29.3814 22.0975 27.7431C22.0975 26.1048 23.3992 24.7721 25 24.7721C26.6008 24.7721 27.903 26.1053 27.903 27.7431ZM34 23.5243V31.9629C34 33.0879 33.1088 34 32.0096 34H17.9904C16.8912 34 16 33.0879 16 31.9629V23.5243C16 22.3994 16.8912 21.4873 17.9904 21.4873H20.4385V20.7824C20.4385 19.798 21.2178 19 22.1801 19H27.8199C28.7822 19 29.5615 19.798 29.5615 20.7824V21.4868H32.0096C33.1088 21.4873 34 22.3994 34 23.5243ZM29.3958 27.7431C29.3958 25.2625 27.4238 23.2442 25 23.2442C22.5767 23.2442 20.6047 25.2625 20.6047 27.7431C20.6047 30.2238 22.5767 32.242 25 32.242C27.4238 32.242 29.3958 30.2238 29.3958 27.7431Z" fill="white"/>
<rect x="23" y="9" width="5" height="8" rx="1" fill="white"/>
<rect x="24" y="35" width="3" height="8" rx="1" fill="white"/>
</svg>
