<svg width="50" height="51" viewBox="0 0 50 51" fill="none" xmlns="http://www.w3.org/2000/svg">
<path d="M28.2432 27.2223C28.2432 29.1378 26.685 30.696 24.7695 30.696C22.854 30.696 21.2964 29.1378 21.2964 27.2223C21.2964 25.3068 22.854 23.7486 24.7695 23.7486C26.685 23.7486 28.2432 25.3074 28.2432 27.2223ZM35.539 22.2898V32.156C35.539 33.4713 34.4726 34.5377 33.1573 34.5377H16.3817C15.0664 34.5377 14 33.4713 14 32.156V22.2898C14 20.9745 15.0664 19.9081 16.3817 19.9081H19.3112V19.084C19.3112 17.933 20.2437 17 21.3952 17H28.1438C29.2953 17 30.2278 17.933 30.2278 19.084V19.9075H33.1573C34.4726 19.9081 35.539 20.9745 35.539 22.2898ZM30.0295 27.2223C30.0295 24.322 27.6698 21.9623 24.7695 21.9623C21.8698 21.9623 19.5101 24.322 19.5101 27.2223C19.5101 30.1226 21.8698 32.4823 24.7695 32.4823C27.6698 32.4823 30.0295 30.1226 30.0295 27.2223Z" fill="white"/>
<rect x="22" y="5" width="6" height="10" rx="1" fill="white"/>
<rect x="23" y="36" width="4" height="10" rx="1" fill="white"/>
</svg>
