<svg width="22" height="18" viewBox="0 0 22 18" fill="none" xmlns="http://www.w3.org/2000/svg">
<path d="M14.2432 10.2223C14.2432 12.1378 12.685 13.696 10.7695 13.696C8.85401 13.696 7.29637 12.1378 7.29637 10.2223C7.29637 8.30681 8.85401 6.74858 10.7695 6.74858C12.685 6.74858 14.2432 8.30741 14.2432 10.2223ZM21.539 5.28978V15.156C21.539 16.4713 20.4726 17.5377 19.1573 17.5377H2.38171C1.06641 17.5377 0 16.4713 0 15.156V5.28978C0 3.97448 1.06641 2.90807 2.38171 2.90807H5.31122V2.084C5.31122 0.933036 6.24366 0 7.39521 0H14.1438C15.2953 0 16.2278 0.933036 16.2278 2.084V2.90747H19.1573C20.4726 2.90807 21.539 3.97448 21.539 5.28978ZM16.0295 10.2223C16.0295 7.32198 13.6698 4.9623 10.7695 4.9623C7.86977 4.9623 5.51009 7.32198 5.51009 10.2223C5.51009 13.1226 7.86977 15.4823 10.7695 15.4823C13.6698 15.4823 16.0295 13.1226 16.0295 10.2223Z" fill="black"/>
</svg>
