<svg width="261" height="148" viewBox="0 0 261 148" fill="none" xmlns="http://www.w3.org/2000/svg">
<circle cx="235" cy="63" r="26" fill="#EDEDED"/>
<circle cx="170" cy="26" r="26" fill="#EDEDED"/>
<path d="M176.188 23.459V31H173.647V21.4902H176.029L176.188 23.459ZM175.836 25.9111H175.133C175.133 25.249 175.212 24.6396 175.37 24.083C175.534 23.5205 175.771 23.0342 176.082 22.624C176.398 22.208 176.788 21.8857 177.251 21.6572C177.714 21.4287 178.25 21.3145 178.859 21.3145C179.281 21.3145 179.668 21.3789 180.02 21.5078C180.371 21.6309 180.673 21.8271 180.925 22.0967C181.183 22.3604 181.382 22.7061 181.522 23.1338C181.663 23.5557 181.733 24.0625 181.733 24.6543V31H179.202V24.9355C179.202 24.502 179.144 24.168 179.026 23.9336C178.909 23.6992 178.742 23.5352 178.525 23.4414C178.314 23.3477 178.06 23.3008 177.761 23.3008C177.433 23.3008 177.146 23.3682 176.899 23.5029C176.659 23.6377 176.46 23.8252 176.302 24.0654C176.144 24.2998 176.026 24.5752 175.95 24.8916C175.874 25.208 175.836 25.5479 175.836 25.9111ZM181.496 25.6211L180.591 25.7354C180.591 25.1143 180.667 24.5371 180.819 24.0039C180.978 23.4707 181.209 23.002 181.514 22.5977C181.824 22.1934 182.208 21.8799 182.665 21.6572C183.122 21.4287 183.649 21.3145 184.247 21.3145C184.704 21.3145 185.12 21.3818 185.495 21.5166C185.87 21.6455 186.189 21.8535 186.453 22.1406C186.723 22.4219 186.928 22.791 187.068 23.248C187.215 23.7051 187.288 24.2646 187.288 24.9268V31H184.748V24.9268C184.748 24.4873 184.689 24.1533 184.572 23.9248C184.461 23.6904 184.297 23.5293 184.08 23.4414C183.869 23.3477 183.617 23.3008 183.324 23.3008C183.02 23.3008 182.753 23.3623 182.524 23.4854C182.296 23.6025 182.105 23.7666 181.953 23.9775C181.801 24.1885 181.687 24.4346 181.61 24.7158C181.534 24.9912 181.496 25.293 181.496 25.6211Z" fill="black"/>
<path d="M171.837 27.4932C171.837 28.2959 171.649 28.9727 171.274 29.5234C170.899 30.0684 170.384 30.4814 169.728 30.7627C169.077 31.0381 168.339 31.1758 167.513 31.1758C166.687 31.1758 165.945 31.0381 165.289 30.7627C164.633 30.4814 164.114 30.0684 163.733 29.5234C163.353 28.9727 163.162 28.2959 163.162 27.4932C163.162 26.9541 163.271 26.4678 163.487 26.0342C163.704 25.5947 164.006 25.2197 164.393 24.9092C164.785 24.5928 165.245 24.3525 165.772 24.1885C166.3 24.0186 166.874 23.9336 167.495 23.9336C168.327 23.9336 169.071 24.0801 169.728 24.373C170.384 24.666 170.899 25.0791 171.274 25.6123C171.649 26.1455 171.837 26.7725 171.837 27.4932ZM169.288 27.3262C169.288 26.9336 169.212 26.5967 169.06 26.3154C168.913 26.0283 168.705 25.8086 168.436 25.6562C168.166 25.5039 167.853 25.4277 167.495 25.4277C167.138 25.4277 166.824 25.5039 166.555 25.6562C166.285 25.8086 166.074 26.0283 165.922 26.3154C165.775 26.5967 165.702 26.9336 165.702 27.3262C165.702 27.7129 165.775 28.0469 165.922 28.3281C166.074 28.6094 166.285 28.8262 166.555 28.9785C166.83 29.125 167.149 29.1982 167.513 29.1982C167.876 29.1982 168.189 29.125 168.453 28.9785C168.723 28.8262 168.928 28.6094 169.068 28.3281C169.215 28.0469 169.288 27.7129 169.288 27.3262ZM171.564 21.5957C171.564 22.2461 171.392 22.8232 171.046 23.3271C170.7 23.8252 170.22 24.2148 169.604 24.4961C168.995 24.7773 168.298 24.918 167.513 24.918C166.722 24.918 166.019 24.7773 165.403 24.4961C164.788 24.2148 164.308 23.8252 163.962 23.3271C163.616 22.8232 163.443 22.2461 163.443 21.5957C163.443 20.8223 163.616 20.1719 163.962 19.6445C164.313 19.1113 164.794 18.707 165.403 18.4316C166.019 18.1562 166.716 18.0186 167.495 18.0186C168.286 18.0186 168.986 18.1562 169.596 18.4316C170.211 18.707 170.691 19.1113 171.037 19.6445C171.389 20.1719 171.564 20.8223 171.564 21.5957ZM169.033 21.71C169.033 21.3643 168.972 21.0654 168.849 20.8135C168.726 20.5557 168.55 20.3564 168.321 20.2158C168.099 20.0752 167.823 20.0049 167.495 20.0049C167.179 20.0049 166.906 20.0723 166.678 20.207C166.455 20.3418 166.282 20.5381 166.159 20.7959C166.042 21.0479 165.983 21.3525 165.983 21.71C165.983 22.0557 166.042 22.3604 166.159 22.624C166.282 22.8818 166.458 23.084 166.687 23.2305C166.915 23.377 167.19 23.4502 167.513 23.4502C167.835 23.4502 168.107 23.377 168.33 23.2305C168.559 23.084 168.731 22.8818 168.849 22.624C168.972 22.3604 169.033 22.0557 169.033 21.71Z" fill="black"/>
<path d="M161.633 29.0225V31H152.879V29.3125L157.019 24.874C157.435 24.4111 157.763 24.0039 158.003 23.6523C158.243 23.2949 158.416 22.9756 158.521 22.6943C158.633 22.4072 158.688 22.1348 158.688 21.877C158.688 21.4902 158.624 21.1592 158.495 20.8838C158.366 20.6025 158.176 20.3857 157.924 20.2334C157.678 20.0811 157.373 20.0049 157.01 20.0049C156.623 20.0049 156.289 20.0986 156.008 20.2861C155.732 20.4736 155.521 20.7344 155.375 21.0684C155.234 21.4023 155.164 21.7803 155.164 22.2021H152.624C152.624 21.4404 152.806 20.7432 153.169 20.1104C153.532 19.4717 154.045 18.9648 154.707 18.5898C155.369 18.209 156.154 18.0186 157.062 18.0186C157.959 18.0186 158.715 18.165 159.33 18.458C159.951 18.7451 160.42 19.1611 160.736 19.7061C161.059 20.2451 161.22 20.8896 161.22 21.6396C161.22 22.0615 161.152 22.4746 161.018 22.8789C160.883 23.2773 160.689 23.6758 160.438 24.0742C160.191 24.4668 159.893 24.8652 159.541 25.2695C159.189 25.6738 158.8 26.0928 158.372 26.5264L156.148 29.0225H161.633Z" fill="black"/>
<path d="M240.188 61.459V69H237.647V59.4902H240.029L240.188 61.459ZM239.836 63.9111H239.133C239.133 63.249 239.212 62.6396 239.37 62.083C239.534 61.5205 239.771 61.0342 240.082 60.624C240.398 60.208 240.788 59.8857 241.251 59.6572C241.714 59.4287 242.25 59.3145 242.859 59.3145C243.281 59.3145 243.668 59.3789 244.02 59.5078C244.371 59.6309 244.673 59.8271 244.925 60.0967C245.183 60.3604 245.382 60.7061 245.522 61.1338C245.663 61.5557 245.733 62.0625 245.733 62.6543V69H243.202V62.9355C243.202 62.502 243.144 62.168 243.026 61.9336C242.909 61.6992 242.742 61.5352 242.525 61.4414C242.314 61.3477 242.06 61.3008 241.761 61.3008C241.433 61.3008 241.146 61.3682 240.899 61.5029C240.659 61.6377 240.46 61.8252 240.302 62.0654C240.144 62.2998 240.026 62.5752 239.95 62.8916C239.874 63.208 239.836 63.5479 239.836 63.9111ZM245.496 63.6211L244.591 63.7354C244.591 63.1143 244.667 62.5371 244.819 62.0039C244.978 61.4707 245.209 61.002 245.514 60.5977C245.824 60.1934 246.208 59.8799 246.665 59.6572C247.122 59.4287 247.649 59.3145 248.247 59.3145C248.704 59.3145 249.12 59.3818 249.495 59.5166C249.87 59.6455 250.189 59.8535 250.453 60.1406C250.723 60.4219 250.928 60.791 251.068 61.248C251.215 61.7051 251.288 62.2646 251.288 62.9268V69H248.748V62.9268C248.748 62.4873 248.689 62.1533 248.572 61.9248C248.461 61.6904 248.297 61.5293 248.08 61.4414C247.869 61.3477 247.617 61.3008 247.324 61.3008C247.02 61.3008 246.753 61.3623 246.524 61.4854C246.296 61.6025 246.105 61.7666 245.953 61.9775C245.801 62.1885 245.687 62.4346 245.61 62.7158C245.534 62.9912 245.496 63.293 245.496 63.6211Z" fill="black"/>
<path d="M229.597 63.1729L227.575 62.6895L228.305 56.2031H235.494V58.251H230.388L230.071 61.0898C230.241 60.9902 230.499 60.8848 230.845 60.7734C231.19 60.6562 231.577 60.5977 232.005 60.5977C232.626 60.5977 233.177 60.6943 233.657 60.8877C234.138 61.0811 234.545 61.3623 234.879 61.7314C235.219 62.1006 235.477 62.5518 235.652 63.085C235.828 63.6182 235.916 64.2217 235.916 64.8955C235.916 65.4639 235.828 66.0059 235.652 66.5215C235.477 67.0312 235.21 67.4883 234.853 67.8926C234.495 68.291 234.047 68.6045 233.508 68.833C232.969 69.0615 232.33 69.1758 231.592 69.1758C231.041 69.1758 230.508 69.0938 229.992 68.9297C229.482 68.7656 229.022 68.5225 228.612 68.2002C228.208 67.8779 227.883 67.4883 227.637 67.0312C227.396 66.5684 227.271 66.041 227.259 65.4492H229.772C229.808 65.8125 229.901 66.126 230.054 66.3896C230.212 66.6475 230.42 66.8467 230.678 66.9873C230.936 67.1279 231.237 67.1982 231.583 67.1982C231.905 67.1982 232.181 67.1367 232.409 67.0137C232.638 66.8906 232.822 66.7207 232.963 66.5039C233.104 66.2812 233.206 66.0234 233.271 65.7305C233.341 65.4316 233.376 65.1094 233.376 64.7637C233.376 64.418 233.335 64.1045 233.253 63.8232C233.171 63.542 233.045 63.2988 232.875 63.0938C232.705 62.8887 232.488 62.7305 232.225 62.6191C231.967 62.5078 231.665 62.4521 231.319 62.4521C230.851 62.4521 230.487 62.5254 230.229 62.6719C229.978 62.8184 229.767 62.9854 229.597 63.1729Z" fill="black"/>
<path d="M225.633 67.0225V69H216.879V67.3125L221.019 62.874C221.435 62.4111 221.763 62.0039 222.003 61.6523C222.243 61.2949 222.416 60.9756 222.521 60.6943C222.633 60.4072 222.688 60.1348 222.688 59.877C222.688 59.4902 222.624 59.1592 222.495 58.8838C222.366 58.6025 222.176 58.3857 221.924 58.2334C221.678 58.0811 221.373 58.0049 221.01 58.0049C220.623 58.0049 220.289 58.0986 220.008 58.2861C219.732 58.4736 219.521 58.7344 219.375 59.0684C219.234 59.4023 219.164 59.7803 219.164 60.2021H216.624C216.624 59.4404 216.806 58.7432 217.169 58.1104C217.532 57.4717 218.045 56.9648 218.707 56.5898C219.369 56.209 220.154 56.0186 221.062 56.0186C221.959 56.0186 222.715 56.165 223.33 56.458C223.951 56.7451 224.42 57.1611 224.736 57.7061C225.059 58.2451 225.22 58.8896 225.22 59.6396C225.22 60.0615 225.152 60.4746 225.018 60.8789C224.883 61.2773 224.689 61.6758 224.438 62.0742C224.191 62.4668 223.893 62.8652 223.541 63.2695C223.189 63.6738 222.8 64.0928 222.372 64.5264L220.148 67.0225H225.633Z" fill="black"/>
<path d="M240.748 51.035C240.565 51.035 240.425 50.9845 240.328 50.8833C240.231 50.7783 240.182 50.6422 240.182 50.475C240.182 50.3039 240.231 50.1678 240.328 50.0667C240.425 49.9656 240.565 49.915 240.748 49.915C240.931 49.915 241.069 49.9656 241.162 50.0667C241.255 50.1678 241.302 50.3039 241.302 50.475C241.302 50.6422 241.255 50.7783 241.162 50.8833C241.069 50.9845 240.931 51.035 240.748 51.035Z" fill="black"/>
<path d="M238.688 47.3018H239.437V50.8975C239.437 51.2301 239.366 51.5127 239.225 51.7451C239.083 51.9775 238.886 52.1541 238.633 52.2749C238.38 52.3979 238.088 52.4595 237.755 52.4595C237.614 52.4595 237.456 52.439 237.283 52.3979C237.112 52.3569 236.946 52.2909 236.784 52.1997C236.625 52.1108 236.491 51.9935 236.384 51.8477L236.771 51.3623C236.903 51.5195 237.049 51.6346 237.208 51.7075C237.368 51.7804 237.535 51.8169 237.71 51.8169C237.9 51.8169 238.06 51.7816 238.192 51.7109C238.327 51.6426 238.431 51.5412 238.503 51.4067C238.576 51.2723 238.613 51.1082 238.613 50.9146V48.1392L238.688 47.3018ZM236.176 49.1919V49.1201C236.176 48.8398 236.21 48.5846 236.278 48.3545C236.347 48.1221 236.445 47.9227 236.572 47.7563C236.7 47.5877 236.855 47.459 237.037 47.3701C237.219 47.279 237.426 47.2334 237.656 47.2334C237.895 47.2334 238.099 47.2767 238.268 47.3633C238.438 47.4499 238.581 47.5741 238.695 47.7358C238.809 47.8953 238.898 48.0868 238.961 48.3101C239.028 48.5311 239.076 48.7772 239.108 49.0483V49.2773C239.079 49.5417 239.029 49.7832 238.958 50.002C238.887 50.2207 238.794 50.4098 238.678 50.5693C238.562 50.7288 238.418 50.8519 238.247 50.9385C238.078 51.0251 237.879 51.0684 237.649 51.0684C237.423 51.0684 237.219 51.0216 237.037 50.9282C236.857 50.8348 236.702 50.7038 236.572 50.5352C236.445 50.3665 236.347 50.1683 236.278 49.9404C236.21 49.7103 236.176 49.4608 236.176 49.1919ZM237 49.1201V49.1919C237 49.3605 237.015 49.5177 237.047 49.6636C237.082 49.8094 237.133 49.9382 237.201 50.0498C237.272 50.1592 237.361 50.2458 237.468 50.3096C237.577 50.3711 237.706 50.4019 237.854 50.4019C238.048 50.4019 238.206 50.3608 238.329 50.2788C238.454 50.1968 238.55 50.0863 238.616 49.9473C238.685 49.806 238.732 49.6488 238.76 49.4756V48.8569C238.746 48.7225 238.718 48.5972 238.674 48.481C238.633 48.3647 238.577 48.2633 238.507 48.1768C238.436 48.0879 238.347 48.0195 238.24 47.9717C238.133 47.9215 238.007 47.8965 237.861 47.8965C237.713 47.8965 237.584 47.9284 237.475 47.9922C237.365 48.056 237.275 48.1437 237.205 48.2554C237.136 48.367 237.085 48.4969 237.051 48.645C237.017 48.7931 237 48.9515 237 49.1201Z" fill="black"/>
<path d="M234.098 50.3472L235.003 47.3018H235.858L234.573 51H234.04L234.098 50.3472ZM233.404 47.3018L234.327 50.3608L234.371 51H233.838L232.546 47.3018H233.404Z" fill="black"/>
<path d="M230.444 46.6865L228.957 51H228.058L229.931 46.0234H230.505L230.444 46.6865ZM231.688 51L230.198 46.6865L230.133 46.0234H230.71L232.59 51H231.688ZM231.616 49.1543V49.8345H228.909V49.1543H231.616Z" fill="black"/>
<path d="M174.951 11.3018L175.655 12.5288L176.373 11.3018H177.279L176.158 13.1167L177.323 15H176.417L175.666 13.7217L174.914 15H174.004L175.167 13.1167L174.049 11.3018H174.951Z" fill="black"/>
<path d="M172.634 14.2583V12.4946C172.634 12.3625 172.61 12.2485 172.562 12.1528C172.514 12.0571 172.441 11.9831 172.343 11.9307C172.248 11.8783 172.127 11.8521 171.981 11.8521C171.847 11.8521 171.73 11.8748 171.632 11.9204C171.534 11.966 171.458 12.0275 171.403 12.105C171.349 12.1825 171.321 12.2702 171.321 12.3682H170.501C170.501 12.2223 170.536 12.0811 170.607 11.9443C170.678 11.8076 170.78 11.6857 170.915 11.5786C171.049 11.4715 171.21 11.3872 171.396 11.3257C171.583 11.2642 171.793 11.2334 172.025 11.2334C172.303 11.2334 172.549 11.2801 172.764 11.3735C172.98 11.467 173.15 11.6082 173.273 11.7974C173.398 11.9842 173.461 12.2189 173.461 12.5015V14.1455C173.461 14.3141 173.472 14.4657 173.495 14.6001C173.52 14.7323 173.556 14.8473 173.601 14.9453V15H172.757C172.718 14.9111 172.687 14.7983 172.665 14.6616C172.644 14.5226 172.634 14.3882 172.634 14.2583ZM172.753 12.751L172.76 13.2603H172.169C172.016 13.2603 171.882 13.2751 171.766 13.3047C171.649 13.332 171.553 13.373 171.475 13.4277C171.398 13.4824 171.34 13.5485 171.301 13.626C171.262 13.7035 171.243 13.7912 171.243 13.8892C171.243 13.9871 171.265 14.0771 171.311 14.1592C171.357 14.2389 171.423 14.3016 171.509 14.3472C171.598 14.3927 171.705 14.4155 171.831 14.4155C171.999 14.4155 172.146 14.3813 172.271 14.313C172.399 14.2424 172.499 14.1569 172.572 14.0566C172.645 13.9541 172.684 13.8573 172.688 13.7661L172.955 14.1318C172.928 14.2253 172.881 14.3255 172.815 14.4326C172.749 14.5397 172.662 14.6423 172.555 14.7402C172.45 14.8359 172.324 14.9146 172.176 14.9761C172.03 15.0376 171.861 15.0684 171.67 15.0684C171.428 15.0684 171.213 15.0205 171.024 14.9248C170.835 14.8268 170.687 14.6958 170.58 14.5317C170.472 14.3654 170.419 14.1774 170.419 13.9678C170.419 13.7718 170.455 13.5986 170.528 13.4482C170.604 13.2956 170.713 13.168 170.856 13.0654C171.002 12.9629 171.18 12.8854 171.39 12.833C171.599 12.7783 171.839 12.751 172.107 12.751H172.753Z" fill="black"/>
<path d="M164.854 10.0234H165.62L167.059 13.8618L168.495 10.0234H169.26L167.36 15H166.751L164.854 10.0234ZM164.506 10.0234H165.234L165.36 13.3457V15H164.506V10.0234ZM168.881 10.0234H169.612V15H168.754V13.3457L168.881 10.0234Z" fill="black"/>
<path d="M0 25.0128L139.943 24.6689" stroke="#888888" stroke-width="0.5" stroke-dasharray="8.99 8.99"/>
<path d="M0 63.8484H206.991" stroke="#888888" stroke-width="0.5" stroke-dasharray="8.99 8.99"/>
<path d="M0 103.382H239.999" stroke="#888888" stroke-width="0.5" stroke-dasharray="8.99 8.99"/>
<path d="M0 125.229H239.999" stroke="#888888" stroke-width="0.5" stroke-dasharray="8.99 8.99"/>
<path d="M0 147.075H239.999" stroke="#888888" stroke-width="0.5" stroke-dasharray="8.99 8.99"/>
<rect x="64.1067" y="42.2047" width="10.6772" height="105.05" fill="#33C430"/>
<rect x="50.3303" y="33.5944" width="10.6772" height="113.66" fill="#33C430"/>
<rect x="36.5542" y="23.606" width="10.5682" height="123.648" fill="#33C430"/>
<rect x="22.7761" y="23.606" width="10.5682" height="123.648" fill="#33C430"/>
<rect x="9" y="23.606" width="10.5682" height="123.648" fill="#33C430"/>
<rect x="77.8848" y="62.708" width="10.5682" height="84.5459" fill="#33C430"/>
<rect x="91.6628" y="62.708" width="10.5682" height="84.5459" fill="#33C430"/>
<rect x="105.439" y="62.708" width="10.5682" height="84.5459" fill="#33C430"/>
<rect x="119.215" y="69.759" width="10.6772" height="77.4955" fill="#33C430"/>
<rect x="132.991" y="73.5477" width="10.6772" height="73.7069" fill="#33C430"/>
<rect x="146.769" y="73.5477" width="10.6772" height="73.7069" fill="#33C430"/>
<rect x="160.546" y="79.0582" width="10.6772" height="68.1961" fill="#33C430"/>
<rect x="174.324" y="79.0582" width="10.6772" height="68.1961" fill="#33C430"/>
<rect x="188.1" y="79.0582" width="10.6772" height="68.1961" fill="#33C430"/>
<rect x="201.878" y="79.0582" width="10.6772" height="68.1961" fill="#33C430"/>
<rect x="215.654" y="79.0582" width="10.6772" height="68.1961" fill="#33C430"/>
<rect x="229.432" y="125.061" width="10.5682" height="22.1933" fill="#33C430"/>
</svg>
