<svg width="84" height="81" viewBox="0 0 84 81" fill="none" xmlns="http://www.w3.org/2000/svg">
<path d="M56.5569 8.07532L57.0484 8.64892L57.6731 9.80185L58.1168 11.0286L58.0602 11.8154L57.7012 11.3699L57.0585 9.77656L57.4723 11.7638L57.4306 12.5668L56.7243 13.1743L57.0984 13.1055L57.3511 12.9313L57.5889 12.7147L57.9083 12.5111L57.7969 12.6375L57.7711 12.7895L57.8128 12.9697L57.9083 13.1741L58.0018 12.8815L58.1054 12.3106L58.2428 12.0008L59.4275 15.2904L60.9139 18.8102L62.6657 21.7559L67.3306 27.8855L67.7058 28.1736L69.2636 30.0895L70.2257 31.0442L70.8077 30.717L71.0306 30.8594L71.6754 30.9725L71.8086 31.1623L71.8266 31.6259L71.9043 32.0128L72.0834 32.3562L72.4017 32.6876L73.5398 34.3841L73.9038 34.6446L75.3125 36.5549L76.375 37.5624L76.9997 37.3705L77.141 37.76L77.2752 38.7591L77.501 39.2172L77.878 39.5079L79.5185 40.081L80.1015 40.1415L80.6746 40.1214L81.2138 40.1657L81.6893 40.4181L82.3013 41.3445L82.7132 41.5966L82.7369 41.6117L83 42.5415L82.8099 42.5529L82.4366 42.3543L82.0645 42.294L81.8909 42.5618L81.7887 43.5129L81.6307 43.83L81.3061 43.8806L80.8519 43.8018L80.4243 43.6699L80.1836 43.556L79.924 43.2665L79.6113 42.669L79.3613 42.3853L79.1647 42.4763L78.929 42.3879L77.9088 41.5213L76.4925 40.9542L76.0415 41.0055L75.5873 41.3919L75.3099 41.7859L75.2645 42.0158L75.5607 42.543L75.7299 43.2233L75.8347 43.3661L75.9945 43.4149L76.1069 43.484L76.0678 43.6858L75.7033 43.8952L74.3994 44.0745L73.9426 44.2364L73.7374 44.583L73.6743 45.0588L73.7009 47.1117L73.7387 50.0819L73.7909 54.138L73.7943 54.4121L74.5259 54.1044L74.7514 54.1031L74.9214 54.2298L75.0093 54.4173L75.0781 54.6123L75.1868 54.7646L75.3302 54.849L75.8798 55.0954L77.0025 55.9277L78.1142 56.3083L78.4459 56.5289L79.0763 57.5968L79.1736 57.8297L79.1543 57.8615L78.8193 58.4121L78.0877 58.8585L75.5659 59.8949L75.2809 60.1001L75.0429 60.4179L75.1592 60.5303L75.3532 60.6505L75.3493 60.9873L75.1211 61.2525L74.3934 61.7077L74.1958 61.9212L74.1669 62.2912L74.2876 62.6408L74.5048 62.9662L75.2723 63.8284L75.6812 64.4062L75.9849 65.0452L76.1789 65.7967L76.3228 67.5203L76.2508 68.3891L76.0214 69.1173L75.4807 69.786L74.8427 70.1015L74.1515 70.3143L73.4491 70.6764L72.3668 71.7128L71.2538 72.3411L71.0384 72.5166L71.0105 72.8264L71.2347 73.067L71.9194 73.4711L72.049 73.6104L72.2852 73.9595L72.4216 74.0687L72.5764 74.0776L72.8716 73.9595L73.0945 73.9908L73.5221 74.2168L73.6895 74.4702L73.8013 75.254L75.0893 78.0857L74.9681 79.1883L74.815 79.7512L74.4821 79.4892L74.5199 79.1125L74.705 78.6966L74.8155 78.3178L74.748 78.0153L73.0825 75.146L72.4935 74.5237L69.4553 72.3067L68.6236 71.4873L69.3419 70.6063L69.4743 70.5359L69.6117 70.2825L69.8774 69.9537L70.0466 69.5746L69.8915 69.1783L69.0926 68.1774L68.9583 67.8968L68.9453 67.5315L69.1195 67.4038L69.424 67.3133L69.808 67.0687L69.5194 66.9762L68.8061 67.0145L68.457 66.8847L68.275 66.6805L67.7885 65.7177L67.869 65.5899L67.9079 65.5033L67.9556 65.3644H68.1227L68.3584 65.7659L68.4301 65.9622L68.457 66.2933L68.5644 66.3486L69.2915 66.0558V65.8718L68.9573 65.7299L68.6032 65.4663L68.3018 65.1503L68.1227 64.8575H67.9556L67.7705 65.1613L67.3257 65.1795L66.8173 65.1201L66.4382 65.1954L66.2591 64.8633L65.9725 64.5152L65.6333 64.3382L65.286 64.5212L64.5111 64.0634L64.2843 63.6921L64.4355 63.1698L64.2684 63.1579L64.1023 63.1698L64.2027 62.7652L63.8565 62.571L63.341 62.4633L62.9322 62.3264L62.789 62.6163L62.6597 62.5952L62.4986 62.4774L62.2509 62.4784L62.1346 62.6114L62.1046 62.7855L62.0032 62.9365L61.6729 63.0009L60.8641 62.8791L60.5348 62.9999L60.4133 63.4921L60.5984 63.3503L60.5955 63.3391H60.7478L61.6064 64.6362L61.7198 65.0296L62.2212 65.8225L62.4162 66.0558L62.7385 66.2219L63.6518 66.4996L64.0189 66.5468L64.3552 66.7491L64.6757 67.1425L64.9851 67.4072L65.2865 67.2231L65.2996 67.8327L65.2508 68.0832L65.1025 68.2504V68.4193L65.4717 68.9262L65.6208 69.7912L65.5561 70.6902L65.2865 71.3037L64.7375 71.3238L63.8432 71.0352L63.0005 70.6269L62.6005 70.2921H62.7507L62.8602 70.3797L62.9497 70.4199L63.2818 70.459L62.8102 70.2467L62.6191 70.1211L62.4162 69.9391V70.2921L61.0065 69.6737L60.5051 69.6012L59.0077 69.7832L58.5929 69.7852L58.2396 69.6173L57.9142 69.2815L57.3182 68.504L55.1923 66.5183L55.0559 66.2939L54.9506 66.2668L54.4502 66.0616L54.298 65.9651L54.2224 65.1965L54.9665 64.0454L55.1396 63.8462L55.5236 63.6167L55.7862 63.5151L55.9067 63.5865L55.9844 63.7343L56.1536 63.5633L56.7486 62.6505L56.9086 62.4794L56.6023 62.0868L56.9715 61.6449L57.6431 61.2825L58.2441 61.1284V60.9753L57.7148 60.912L57.4491 60.9362L57.2671 61.0833L56.9845 61.3893L56.698 61.5241L56.6025 61.2866L56.7188 60.8669L57.0609 60.4531L57.6668 60.1572L57.9453 59.964L58.0616 59.685L57.9093 59.4342L57.592 59.26L57.3034 59.0264L57.2426 58.5944L57.7151 58.8371L57.944 58.9085L58.2433 58.9177L58.097 58.7365L57.9119 58.5985L57.5597 58.4103L57.4105 58.2864L57.3261 58.1717L57.1957 58.0933L56.9081 58.0732L57.2046 57.8938L57.1628 57.764L56.9926 57.6651L56.9081 57.5807L57.0187 57.3087L57.1441 57.1064L57.3151 56.927L57.5599 56.7216L56.9123 55.0143L56.7929 54.7977L56.3919 54.3555L56.2247 54.5226L55.6757 53.8064L55.1753 52.971L54.5326 52.3161L53.5546 52.1406L53.6112 51.5018L53.0731 50.9556L52.3339 50.5776L51.7867 50.4344L49.8656 48.5898L47.9824 47.7106L47.681 47.4747L45.3293 46.5449H45.177L45.0187 46.6609L44.8813 46.6599L44.7669 46.554L44.6754 46.3603L44.3401 46.5055L44.1401 46.3452L43.9133 46.1124L43.4935 46.0368L43.756 45.58L43.4069 44.9355L42.7682 44.3707L42.1562 44.1608V44.3282L42.3711 44.3705L42.5163 44.4309L42.8396 44.6669L42.2039 44.5551L41.1952 43.959L40.5556 43.8219L39.9359 43.7734L36.6669 42.8575L36.0412 42.8061L35.7486 42.8575L35.4352 42.9573L35.1099 43.0238L34.7816 42.9743L34.4951 42.7321L34.3986 42.4395L34.2831 42.2033L33.9478 42.1277L34.0104 42.2276L34.0461 42.3021L34.0977 42.4818L33.6938 42.1548L32.7876 41.5666L32.6116 41.1974L32.525 40.8564L32.3102 40.6919L32.0385 40.5839L31.7759 40.4194L31.6923 40.1681L31.7272 39.9087L31.6597 39.741L31.2767 39.7572L31.3731 39.4756L31.3463 39.2052L31.2837 38.951L31.2767 38.727L31.4208 38.4486L31.8416 38.0278L32.0077 37.6078L32.1788 37.3989L32.3508 37.1283L32.4293 36.7708L32.3477 36.4741L32.1566 36.2168L31.7757 35.8322L30.7867 34.3542L30.5101 34.137L30.1133 33.9662L30.166 33.5905L30.5101 33.0208L29.9091 32.5239L29.7986 32.2824L29.925 31.9187L29.2237 31.7026L27.0568 31.9187V31.7339L27.3572 31.6157L27.7423 31.5732L28.5899 31.5792V31.4095L27.8108 31.3722L27.1155 31.2479L26.4869 31.0328L25.9039 30.7175L25.1668 30.1022L25.0544 29.969L24.8962 29.9325L24.5859 29.7213L24.3669 29.4869L24.4842 29.3759L24.0754 29.1626L23.0727 28.2177L22.5384 27.951L22.2868 27.7176L22.1327 27.665L22.0105 27.7205L21.9051 27.8136L21.7659 27.8347L21.55 27.665L21.6942 27.4011L21.7419 27.2324L21.6314 27.1555L21.5359 27.1101L21.2155 26.8171L20.7749 26.9615L19.1206 26.9868L18.6828 26.8737L18.2917 26.5989L17.679 25.9549V25.8003L17.8193 25.3463L17.3925 24.8236L16.3428 24.0875L16.4919 24.59L17.1982 25.1085L17.3604 25.715L17.4251 26.8674L17.5724 27.5435L17.861 28.0044L17.5427 28.2107L17.5875 28.5543L17.8761 28.8786L18.6231 29.1425L18.8888 29.4324L19.211 30.0537H19.3633L19.5604 29.9719L19.6459 30.0386L19.6827 30.2083L19.4697 30.2245L19.2499 30.1961L19.041 30.1335L18.8619 30.0537V30.2083L19.3205 30.6166L19.8795 31.1146L21.3628 31.7208L21.5498 31.8269L21.7239 31.7584L22.114 31.919L23.0581 32.4644L23.4937 32.6057L23.9612 32.618L24.4011 32.4271L24.6897 32.6584L25.3055 33.0482L25.586 33.2907V33.4453L25.0985 33.5634L25.1204 33.9208L25.4158 34.3369L25.7373 34.6459L25.5383 34.7145L25.3504 34.8477L25.055 35.1535L25.4161 35.317L25.8429 35.3655L26.7233 35.3381V35.4925L26.3792 35.7258L25.9414 35.9107L25.5644 36.1652L25.4033 36.6013L25.3118 36.7023L24.7358 37.0323L24.6274 37.2141L24.502 37.6714L24.4016 37.8643L23.6345 37.4829L23.2275 37.4495L23.0515 37.7796L23.16 37.9824L23.536 38.4619L23.4763 38.5578L22.6844 38.9463L22.5512 38.9797L22.4618 39.1069L21.8827 39.4036L21.7633 39.6005L21.2291 41.3067L21.0051 41.7405L20.7126 42.128H20.5324L19.849 40.7104L17.8117 37.9381L17.6793 37.6171L17.5789 37.5011L17.3521 37.3588L16.7394 37.1043L16.6885 36.9074L16.6974 36.6814L16.6776 36.5088L16.0956 35.8638L15.2858 35.4023L12.6564 34.4613L12.4215 34.5119L12.0713 34.7572L11.9131 34.8159L11.6774 34.7604L11.346 34.5179L11.0774 34.4613L10.9202 34.4483L10.8655 34.4089L10.8337 34.3341L10.7442 34.222L10.5732 34.1422L10.4308 34.1795L10.3372 34.2582L10.3192 34.3067L8.9374 33.8603L8.27567 33.7574L8.11949 33.6604L7.99513 33.5423L7.80011 33.4453L7.52556 33.4573L7.34462 33.5673L7.18349 33.5785L6.96552 33.2907L7.14073 32.8281L6.88209 32.2029L4.37808 29.1146L4.22894 28.8419L4.03209 28.1729L3.7307 27.7049L2.77775 25.3609L2.69118 24.6572L2.58663 24.2296L2.44349 23.9183L2.78087 23.5867L2.92114 23.3481L2.86848 23.1468L2.34807 22.4794L2.02085 22.2791L2.2018 22.0343L2.62548 21.6964L2.91202 21.2746L3.11199 20.8629L3.52993 21.0298L3.75676 20.7656L3.9338 20.3803L4.45317 19.9858L4.25215 19.5397L3.88296 19.0743L3.62823 18.8112L3.78153 18.7051L3.84724 18.6686L3.96066 18.6412V18.4712H3.62849V18.3013L3.90695 18.2486L4.08606 18.0755L4.29491 17.6059H4.46203L4.80228 17.8841L5.28175 17.6846L5.77114 17.4083L6.14528 17.4529H6.29755L6.26469 17.1259L6.34838 16.9682L6.48761 16.8821L6.61693 16.7729L6.8409 16.3841L6.92954 16.4055L7.23198 16.4339L7.96828 15.6617L7.91248 15.4552L7.78316 15.2972L7.4669 15.0756L6.46519 16.0939L6.4412 16.0121L6.44433 15.9391L6.41748 15.8987L6.29806 15.9088V15.754L6.58147 15.4432L6.7546 15.3126L6.96656 15.2458L6.79944 15.0758L6.77754 15.098L6.74469 15.1454L6.69385 15.1981L6.61719 15.2455L6.67898 15.0391L6.69097 14.9671L6.96656 14.8902V14.7353H6.79944V14.5499L7.20721 14.223L7.28778 13.3777L7.14855 11.7383L6.78145 11.3028L5.97268 10.9412L5.16286 10.8085L4.79576 11.0596H4.64949L3.97499 10.4985L3.77893 10.2858L3.89521 10.3243L4.04044 10.2576L4.10119 10.1189L3.96092 9.94577L3.7818 9.90536L3.30936 9.95203L3.11252 9.94603L2.39317 9.67461L1.82713 9.34141L1.19435 9.06086L0.273987 8.94328V8.7579L0.82725 8.61815L1.86182 8.14598L2.44375 8.07715L2.35119 7.9241L2.27767 7.82998L2.16425 7.77314L1.94342 7.73664V7.56847L3.15214 7.49547L3.45954 7.56847L3.58782 7.7601L3.55705 7.98302L3.49734 8.1684L3.54506 8.2474L3.64648 8.29511L3.96092 8.58686H4.11318L4.29516 8.40253V8.24558L4.01671 7.9679L4.28344 7.78852L4.80463 7.71056L5.29714 7.73481L5.46426 7.81381L5.68327 8.03152L5.88221 8.07506L6.04151 8.0164L6.10904 7.87352L6.08218 7.70431L5.96381 7.56638V7.38101L6.327 7.24517L6.42947 6.97167L6.34499 6.64837L6.14606 6.35948L5.96903 6.22964L5.55708 6.05834L5.38109 5.93476L5.17511 5.71575V5.65683L5.29844 5.63049L5.46452 5.50873L5.83867 5.16119L6.05559 5.28086L6.30927 5.51708L6.7997 5.50899L7.09406 5.23732L7.02836 4.87543L6.76372 4.52684L6.46519 4.30392L6.25713 4.21553L6.84767 3.25007L7.2943 2.27339L7.98288 1.34155L8.7966 1L9.49665 1.36267L10.1865 1.98737L10.9768 2.43347L13.4513 3.35488L16.7534 4.58185L17.6308 4.90828L21.1425 6.21452L25.0896 7.67771L25.6518 7.74081L26.2248 7.53353L28.7479 5.85967L30.5571 4.65981L31.3228 4.47626L31.7561 4.66737L32.6867 5.33926L33.113 5.40105L33.6399 5.37133L34.2041 5.55228L35.4232 6.09224L35.5552 6.12952L35.6816 6.18036L35.8005 6.24476L35.903 6.32064L36.4588 7.01573L36.6679 7.19276L36.8872 7.31765L37.1482 7.42064L37.416 7.44775L37.6478 7.34998L38.9631 6.48906L39.1709 6.36418L39.4027 6.48202L39.4595 6.66923L39.4546 6.92083L39.5052 7.229L39.6126 7.40917L39.938 7.81981L40.0063 7.99476L40.2647 8.23723L41.4006 8.67525L41.6603 8.85228L41.8788 9.09606L42.345 9.33541L42.7676 9.69234L42.8586 10.2891L42.5194 10.4672L42.4183 10.5366L42.3095 10.729L42.3549 10.8693L42.4548 10.9754L42.5103 11.0617L43.0484 11.4958L43.1772 11.665L43.4507 11.465L43.8317 11.4728L44.0053 11.4984L44.2183 11.5294L44.5121 11.4799L44.9663 11.9262L45.2474 12.0337L45.5285 11.8196H45.6966L45.9928 12.1108L46.5993 11.7192L47.0169 11.8196L47.3069 11.5284L47.6359 11.4731L47.9058 11.6569L48.0176 12.0814L49.492 13.2497L49.6568 13.3282L49.8841 13.3636L50.1235 13.3167L50.464 13.0789L50.6277 13.0236L51.2962 13.1574L51.3872 13.1021L51.8876 12.5144L53.5106 11.8957L53.6365 11.8655L55.2423 11.4801L56.1009 11.0359L56.1715 10.3598L55.9473 9.47412L55.9246 8.40488L55.9361 8.28468L55.9069 8.15797L56.0845 8.03126L56.2284 8.06202L56.3833 8.05811L56.5569 8.07532ZM20.2013 28.6461L20.4401 28.7037L20.5754 28.82L20.7744 28.8734L21.033 28.8664V29.02L20.7355 29.1282L20.3606 29.2192L19.9447 29.2554L19.5299 29.2059L19.1062 29.0301L18.8823 28.8017L18.5441 28.1731L19.0048 28.0175L19.2108 28.0034L19.9909 28.1369L20.712 28.3582V28.528H19.8644L20.0962 28.6523L20.2013 28.6461ZM50.3892 63.149L50.7109 62.9881L51.0618 62.9735L51.0326 63.2658L50.8426 63.3388L50.5354 63.2804L50.3892 63.149Z" stroke="white" stroke-width="0.5"/>
</svg>
