<svg width="40" height="40" viewBox="0 0 40 40" fill="none" xmlns="http://www.w3.org/2000/svg">
<g clip-path="url(#clip0_1711_496)">
<path d="M32.993 21.36C32.993 21.1989 32.9063 21.0504 32.7661 20.9712L32.7659 20.9711C32.7655 20.9708 32.7651 20.9706 32.7647 20.9703C32.7388 20.9532 32.7112 20.9384 32.6823 20.9262L26.7503 18.2752V10.2975C26.7503 10.2937 26.7502 10.2899 26.7501 10.2861C26.7501 10.2848 26.7501 10.2836 26.75 10.2823C26.75 10.2798 26.7499 10.2772 26.7497 10.2746C26.7497 10.2731 26.7496 10.2716 26.7495 10.2701C26.7494 10.2668 26.7492 10.2635 26.7489 10.2603C26.7488 10.258 26.7486 10.2557 26.7484 10.2535C26.7483 10.2523 26.7481 10.2511 26.748 10.2499C26.7386 10.1483 26.6991 10.0553 26.6386 9.97995C26.6378 9.97888 26.6369 9.97781 26.636 9.97675C26.6348 9.97527 26.6336 9.9738 26.6324 9.97233C26.6311 9.9708 26.6298 9.96928 26.6285 9.96776C26.6275 9.96664 26.6266 9.96552 26.6257 9.96446C26.6234 9.96182 26.621 9.95918 26.6187 9.95659C26.6182 9.95608 26.6177 9.95557 26.6172 9.95506C26.6151 9.95273 26.6129 9.95039 26.6107 9.94811C26.6102 9.94755 26.6097 9.94704 26.6092 9.94648C26.6067 9.94394 26.6043 9.9414 26.6018 9.93891C26.6016 9.93876 26.6015 9.93861 26.6013 9.93846C26.5985 9.93566 26.5957 9.93287 26.5928 9.93013C26.5927 9.93003 26.5926 9.92998 26.5926 9.92987C26.5899 9.92739 26.5873 9.9249 26.5846 9.92246C26.5841 9.922 26.5836 9.92155 26.5831 9.92109C26.5806 9.91891 26.5781 9.91667 26.5756 9.91454C26.5752 9.91418 26.5748 9.91378 26.5744 9.91342C26.5716 9.91104 26.5688 9.90865 26.5659 9.90631C26.5651 9.90565 26.5643 9.90499 26.5636 9.90438C26.5617 9.90286 26.5598 9.90129 26.5578 9.89976C26.5566 9.89875 26.5552 9.89773 26.554 9.89671C26.5525 9.8956 26.5511 9.89448 26.5496 9.89336C26.5158 9.86762 26.4787 9.84604 26.4389 9.82933L20.2071 7.04418C20.0753 6.98527 19.9246 6.98527 19.7927 7.04418L13.5608 9.82923C13.5211 9.84593 13.4839 9.86752 13.4501 9.89326C13.4486 9.89438 13.4472 9.8955 13.4457 9.89661C13.4444 9.89763 13.4432 9.89864 13.4419 9.89966C13.44 9.90118 13.4381 9.90271 13.4361 9.90428C13.4353 9.90494 13.4345 9.90555 13.4338 9.90621C13.4309 9.90855 13.4281 9.91093 13.4253 9.91332C13.4249 9.91368 13.4245 9.91403 13.4241 9.91444C13.4216 9.91657 13.4191 9.9188 13.4166 9.92099C13.4161 9.92145 13.4156 9.9219 13.4151 9.92236C13.4124 9.9248 13.4098 9.92729 13.4072 9.92977C13.4071 9.92988 13.407 9.92993 13.4069 9.93003C13.404 9.93277 13.4012 9.93556 13.3984 9.93836C13.3982 9.93851 13.3981 9.93866 13.3979 9.93881C13.3954 9.9413 13.393 9.94384 13.3905 9.94638C13.39 9.94694 13.3895 9.94745 13.389 9.948C13.3868 9.95029 13.3846 9.95262 13.3825 9.95496C13.382 9.95547 13.3815 9.95598 13.3811 9.95648C13.3787 9.95907 13.3764 9.96171 13.374 9.96436C13.3731 9.96542 13.3722 9.96654 13.3712 9.96766C13.3699 9.96918 13.3686 9.9707 13.3673 9.97223C13.3661 9.9737 13.3649 9.97517 13.3637 9.97664C13.3628 9.97771 13.362 9.97878 13.3611 9.97984C13.3006 10.0552 13.2612 10.1481 13.2517 10.2498C13.2516 10.251 13.2515 10.2522 13.2514 10.2534C13.2512 10.2557 13.251 10.2579 13.2508 10.2602C13.2506 10.2634 13.2504 10.2667 13.2502 10.27C13.2501 10.2715 13.2501 10.273 13.25 10.2745C13.2499 10.2771 13.2498 10.2797 13.2497 10.2822C13.2497 10.2835 13.2497 10.2847 13.2496 10.286C13.2495 10.2898 13.2495 10.2936 13.2495 10.2974V18.2751L7.31746 20.9261C7.31731 20.9262 7.31716 20.9263 7.31701 20.9264C7.12942 21.005 7.00684 21.1884 7.00684 21.3918V21.3942V29.701C7.00684 29.9013 7.12455 30.0829 7.30746 30.1646C7.30746 30.1646 13.5508 32.9547 13.5512 32.9549L13.5541 32.9562C13.6827 33.0143 13.8301 33.0146 13.9588 32.9569L13.9645 32.9543L19.9999 30.2572L26.0354 32.9544C26.0354 32.9545 26.0433 32.9574 26.0558 32.9622C26.1831 33.0106 26.3245 33.0079 26.4497 32.9544C26.4497 32.9544 26.4497 32.9544 26.4497 32.9544L32.6923 30.1646C32.8752 30.0829 32.993 29.9013 32.993 29.701V21.3942V21.36ZM26.2426 23.6279L21.2445 21.3942L26.2426 19.1606L31.2406 21.3942L26.2426 23.6279ZM19.9999 15.1027C20.2803 15.1027 20.5077 14.8754 20.5077 14.5949V13.4167L25.7348 11.0807V18.2751L20.5077 20.6111V19.186C20.5077 18.9055 20.2803 18.6782 19.9999 18.6782C19.7195 18.6782 19.4922 18.9055 19.4922 19.186V20.6111L14.2651 18.2751V11.0807L19.4922 13.4167V14.5949C19.4921 14.8754 19.7195 15.1027 19.9999 15.1027ZM19.9999 8.06397L24.998 10.2976L19.9999 12.5312L15.0018 10.2976L19.9999 8.06397ZM13.7573 19.1606L18.7554 21.3942L13.7573 23.6279L8.75925 21.3942L13.7573 19.1606ZM8.02241 22.1773L13.2632 24.5195C13.2542 24.5573 13.2495 24.5967 13.2495 24.6373V31.7077L8.02241 29.3717V22.1773ZM14.2513 24.5194L19.4921 22.1773V29.3718L14.2651 31.7078V24.6372C14.2651 24.5967 14.2603 24.5573 14.2513 24.5194ZM20.5077 22.1773L25.7485 24.5195C25.7395 24.5573 25.7348 24.5967 25.7348 24.6373V31.7077L20.5077 29.3717V22.1773ZM26.7503 31.7077V24.6372C26.7503 24.5967 26.7456 24.5572 26.7366 24.5194L31.9774 22.1773V29.3717L26.7503 31.7077Z" fill="black"/>
<path d="M20.0003 17.389C19.7854 17.389 19.5884 17.2481 19.5194 17.0444C19.4544 16.8524 19.5128 16.6332 19.6654 16.4995C19.8319 16.3538 20.0804 16.3341 20.2682 16.4503C20.4483 16.5617 20.5414 16.782 20.4961 16.9888C20.4456 17.2194 20.2367 17.389 20.0003 17.389Z" fill="black"/>
</g>
<defs>
<clipPath id="clip0_1711_496">
<rect width="26" height="26" fill="white" transform="translate(7 7)"/>
</clipPath>
</defs>
</svg>
