<svg width="30" height="30" viewBox="0 0 30 30" fill="none" xmlns="http://www.w3.org/2000/svg">
<circle cx="15" cy="15" r="15" fill="#F5F5F5"/>
<path fill-rule="evenodd" clip-rule="evenodd" d="M14.5383 9.80762C13.0425 9.81467 11.5572 9.43909 9.89565 8.69709C9.25514 8.41104 8.58324 8.88899 8.58324 9.5119V20.5417C8.58324 21.0129 8.95134 21.3948 9.40541 21.3948H19.5946C20.0487 21.3948 20.4168 21.0129 20.4168 20.5417V9.49962C20.4168 8.87723 19.7493 8.4033 19.114 8.68761C17.4969 9.41129 16.0336 9.80057 14.5383 9.80762ZM10.1262 8.1412C9.1458 7.70336 8 8.40436 8 9.5119V20.5417C8 21.3471 8.62922 22 9.40541 22H19.5946C20.3708 22 21 21.3471 21 20.5417V9.49962C21 8.39492 19.8606 7.69442 18.883 8.13191C15.7452 9.53609 13.3466 9.57938 10.1262 8.1412Z" fill="#888888"/>
</svg>
