<svg width="50" height="50" viewBox="0 0 50 50" fill="none" xmlns="http://www.w3.org/2000/svg">
<g clip-path="url(#clip0_20_30)">
<circle cx="25" cy="25" r="25" fill="#9BE938"/>
<path d="M24.4995 32.2016C25.0234 32.2016 25.4481 31.7768 25.4481 31.2529C25.4481 30.7289 25.0234 30.3042 24.4995 30.3042C23.9755 30.3042 23.5508 30.7289 23.5508 31.2529C23.5508 31.7768 23.9755 32.2016 24.4995 32.2016Z" fill="white"/>
<path d="M37 16.4648V15H30.2757V16.4648H32.9054V18.8121H31.6742V20.0432H27.4959L26.1811 17.4135H22.8189L21.504 20.0432H17.3257V18.8121H16.0946V16.4648H18.7243V15H12V16.4648H14.6297V18.8121H13.3986V20.7756C13.3986 21.8601 14.2777 22.7392 15.3622 22.7392C16.1876 22.7392 16.8937 22.2296 17.184 21.5081H19.823L20.7716 23.4054H28.2284L29.177 21.5081H31.816C32.1063 22.2296 32.8124 22.7392 33.6378 22.7392C34.7223 22.7392 35.6014 21.8601 35.6014 20.7756V18.8121H34.3702V16.4648H37Z" fill="white"/>
<path d="M28.7037 27.0502H26.3818V24.8701H22.8199V27.0502H20.2983C19.3699 27.0502 18.6172 27.8029 18.6172 28.7313V33.7746C18.6172 34.703 19.3698 35.4557 20.2983 35.4557H28.7037C29.6321 35.4557 30.3848 34.703 30.3848 33.7746V28.7313C30.3848 27.8029 29.6321 27.0502 28.7037 27.0502ZM24.501 33.6665C23.1702 33.6665 22.0875 32.5837 22.0875 31.2529C22.0875 29.9221 23.1702 28.8394 24.501 28.8394C25.8318 28.8394 26.9145 29.9221 26.9145 31.2529C26.9145 32.5837 25.8318 33.6665 24.501 33.6665Z" fill="white"/>
</g>
<defs>
<clipPath id="clip0_20_30">
<rect width="50" height="50" fill="white"/>
</clipPath>
</defs>
</svg>
