<svg width="25" height="21" viewBox="0 0 25 21" fill="none" xmlns="http://www.w3.org/2000/svg">
<path d="M12.5 17.2018C13.0239 17.2018 13.4486 16.777 13.4486 16.2531C13.4486 15.7291 13.0239 15.3044 12.5 15.3044C11.976 15.3044 11.5513 15.7291 11.5513 16.2531C11.5513 16.777 11.976 17.2018 12.5 17.2018Z" fill="black"/>
<path d="M25 1.46484V0H18.2757V1.46484H20.9054V3.81206H19.6742V5.04321H15.4959L14.1811 2.41348H10.8189L9.504 5.04321H5.32573V3.81206H4.09458V1.46484H6.72432V0H0V1.46484H2.62974V3.81206H1.39858V5.77563C1.39858 6.86011 2.27773 7.73921 3.36216 7.73921C4.18765 7.73921 4.89365 7.22959 5.18403 6.50806H7.823L8.77163 8.40537H16.2284L17.177 6.50806H19.816C20.1063 7.22959 20.8124 7.73921 21.6378 7.73921C22.7223 7.73921 23.6014 6.86011 23.6014 5.77563V3.81206H22.3702V1.46484H25Z" fill="black"/>
<path d="M16.7027 12.0504H14.3808V9.87026H10.8189V12.0504H8.29731C7.3689 12.0504 6.61621 12.803 6.61621 13.7314V18.7747C6.61621 19.7031 7.36885 20.4558 8.29731 20.4558H16.7027C17.6312 20.4558 18.3838 19.7032 18.3838 18.7747V13.7314C18.3838 12.803 17.6312 12.0504 16.7027 12.0504ZM12.5 18.6666C11.1692 18.6666 10.0865 17.5839 10.0865 16.2531C10.0865 14.9223 11.1692 13.8396 12.5 13.8396C13.8308 13.8396 14.9135 14.9223 14.9135 16.2531C14.9135 17.5839 13.8308 18.6666 12.5 18.6666Z" fill="black"/>
</svg>
