<svg width="30" height="30" viewBox="0 0 30 30" fill="none" xmlns="http://www.w3.org/2000/svg">
<rect width="30" height="30" rx="15" fill="#77D721"/>
<path fill-rule="evenodd" clip-rule="evenodd" d="M21.4286 7.28493C21.6829 7.28493 21.9314 7.36033 22.1429 7.5016C22.3543 7.64287 22.5191 7.84366 22.6164 8.07859C22.7137 8.31351 22.7392 8.57201 22.6896 8.8214C22.64 9.0708 22.5175 9.29988 22.3377 9.47968C22.1579 9.65948 21.9288 9.78193 21.6794 9.83154C21.43 9.88114 21.1715 9.85568 20.9365 9.75838C20.7016 9.66107 20.5008 9.49628 20.3595 9.28486C20.2183 9.07343 20.1429 8.82486 20.1429 8.57059C20.1432 8.22973 20.2788 7.90295 20.5199 7.66192C20.7609 7.4209 21.0877 7.28532 21.4286 7.28493ZM7.28571 11.1419C7.28571 10.8876 7.36111 10.639 7.50239 10.4276C7.64367 10.2162 7.84447 10.0514 8.0794 9.9541C8.31434 9.8568 8.57285 9.83134 8.82225 9.88094C9.07166 9.93055 9.30075 10.053 9.48056 10.2328C9.66037 10.4126 9.78282 10.6417 9.83243 10.8911C9.88204 11.1405 9.85658 11.399 9.75927 11.6339C9.66196 11.8688 9.49716 12.0696 9.28573 12.2109C9.07429 12.3521 8.82571 12.4275 8.57142 12.4275C8.23055 12.4272 7.90375 12.2916 7.66272 12.0506C7.42168 11.8095 7.2861 11.4828 7.28571 11.1419ZM8.57142 22.7128C8.31713 22.7128 8.06855 22.6374 7.85712 22.4961C7.64568 22.3548 7.48089 22.154 7.38358 21.9191C7.28627 21.6842 7.2608 21.4257 7.31041 21.1763C7.36002 20.9269 7.48248 20.6978 7.66229 20.518C7.8421 20.3382 8.07119 20.2158 8.32059 20.1662C8.57 20.1166 8.82851 20.142 9.06344 20.2393C9.29838 20.3366 9.49918 20.5014 9.64046 20.7129C9.78173 20.9243 9.85714 21.1728 9.85714 21.4271C9.85675 21.768 9.72116 22.0948 9.48013 22.3358C9.23909 22.5768 8.9123 22.7124 8.57142 22.7128ZM23.2754 6.77887C23.7412 7.25884 24.0012 7.90173 24 8.57059C23.9982 9.22605 23.7458 9.85601 23.2945 10.3314C22.8432 10.8068 22.2271 11.0916 21.5726 11.1274L19.9738 19.1217C20.3627 19.3085 20.6982 19.5903 20.9493 19.9411C21.2004 20.2919 21.359 20.7004 21.4103 21.1287C21.4617 21.557 21.4043 21.9914 21.2433 22.3916C21.0824 22.7919 20.8231 23.1451 20.4894 23.4185C20.1558 23.692 19.7586 23.877 19.3345 23.9563C18.9104 24.0356 18.4732 24.0067 18.0633 23.8722C17.6534 23.7378 17.284 23.5022 16.9892 23.1872C16.6945 22.8722 16.4839 22.4879 16.3771 22.07H11.0515C10.939 22.5085 10.7125 22.9095 10.395 23.2322C10.0774 23.5549 9.68012 23.7879 9.24342 23.9074C8.80672 24.0269 8.34617 24.0288 7.90852 23.9128C7.47087 23.7968 7.07171 23.5671 6.75155 23.2469C6.4314 22.9268 6.20166 22.5276 6.08565 22.09C5.96965 21.6524 5.97151 21.1918 6.09104 20.7552C6.21058 20.3185 6.44354 19.9212 6.76626 19.6037C7.08899 19.2861 7.48999 19.0596 7.92857 18.9472V13.6219C7.51094 13.5148 7.12705 13.3042 6.81237 13.0095C6.49768 12.7148 6.26236 12.3455 6.12814 11.9358C5.99393 11.5261 5.96515 11.0892 6.04447 10.6655C6.12379 10.2417 6.30865 9.84479 6.58197 9.51137C6.85528 9.17796 7.20823 8.91881 7.6082 8.75788C8.00817 8.59695 8.44225 8.53943 8.87034 8.59064C9.29842 8.64184 9.70669 8.80012 10.0574 9.05084C10.4081 9.30156 10.69 9.63664 10.877 10.0251L18.8717 8.42653C18.9081 7.75866 19.2038 7.13138 19.6958 6.67832C20.1879 6.22526 20.8374 5.98223 21.506 6.00101C22.1747 6.0198 22.8095 6.2989 23.2754 6.77887ZM11.0515 20.7843H16.3771C16.5137 20.2591 16.8134 19.7907 17.2332 19.4468C17.6531 19.1028 18.1712 18.9009 18.7131 18.8703L20.3119 10.876C19.7937 10.624 19.3751 10.2054 19.123 9.68737L11.1283 11.286C11.0976 11.8278 10.8958 12.3459 10.5518 12.7657C10.2079 13.1855 9.73954 13.4853 9.21428 13.6219V18.9472C9.65624 19.0623 10.0595 19.2933 10.3824 19.6162C10.7054 19.9391 10.9363 20.3424 11.0515 20.7843ZM18.1428 22.4961C18.3543 22.6374 18.6028 22.7128 18.8571 22.7128C19.198 22.7124 19.5248 22.5768 19.7658 22.3358C20.0069 22.0948 20.1425 21.768 20.1429 21.4271C20.1429 21.1728 20.0674 20.9243 19.9262 20.7129C19.7849 20.5014 19.5841 20.3366 19.3492 20.2393C19.1142 20.142 18.8557 20.1166 18.6063 20.1662C18.3569 20.2158 18.1278 20.3382 17.948 20.518C17.7682 20.6978 17.6457 20.9269 17.5961 21.1763C17.5465 21.4257 17.572 21.6842 17.6693 21.9191C17.7666 22.154 17.9314 22.3548 18.1428 22.4961Z" fill="white"/>
</svg>
