<svg width="30" height="30" viewBox="0 0 30 30" fill="none" xmlns="http://www.w3.org/2000/svg">
<path d="M0 15C0 6.71573 6.71573 0 15 0C23.2843 0 30 6.71573 30 15C30 23.2843 23.2843 30 15 30C6.71573 30 0 23.2843 0 15Z" fill="#F2F2F2"/>
<path fill-rule="evenodd" clip-rule="evenodd" d="M11.6658 22.4423C11.513 22.4423 11.3892 22.3184 11.3892 22.1656V11.9447L9.13924 14.1946C9.03119 14.3026 8.85601 14.3026 8.74797 14.1946C8.63993 14.0866 8.63993 13.9114 8.74797 13.8033L11.4702 11.0811C11.5782 10.9731 11.7534 10.9731 11.8615 11.0811L14.5837 13.8033C14.6917 13.9114 14.6917 14.0866 14.5837 14.1946C14.4756 14.3026 14.3005 14.3026 14.1924 14.1946L11.9425 11.9447V22.1656C11.9425 22.3184 11.8186 22.4423 11.6658 22.4423Z" fill="#888888"/>
<path fill-rule="evenodd" clip-rule="evenodd" d="M18.2774 22.5533C18.1246 22.5533 18.0007 22.4294 18.0007 22.2766V8.77849L15.8326 11.6918C15.7414 11.8144 15.5681 11.8398 15.4455 11.7486C15.3229 11.6574 15.2975 11.484 15.3887 11.3615L18.0554 7.77813C18.1076 7.70798 18.1899 7.66664 18.2774 7.66664C18.3648 7.66664 18.4471 7.70798 18.4993 7.77813L21.166 11.3615C21.2572 11.484 21.2318 11.6574 21.1092 11.7486C20.9866 11.8398 20.8133 11.8144 20.7221 11.6918L18.554 8.77849V22.2766C18.554 22.4294 18.4302 22.5533 18.2774 22.5533Z" fill="#888888"/>
</svg>
