<svg width="285" height="123" viewBox="0 0 285 123" fill="none" xmlns="http://www.w3.org/2000/svg">
<rect width="285" height="123" fill="white"/>
<path d="M153.63 110V109.284L155.844 106.989C156.081 106.74 156.276 106.522 156.429 106.334C156.585 106.145 156.701 105.964 156.778 105.794C156.854 105.624 156.893 105.442 156.893 105.251C156.893 105.033 156.842 104.846 156.739 104.688C156.637 104.528 156.498 104.406 156.321 104.321C156.144 104.233 155.945 104.19 155.723 104.19C155.489 104.19 155.284 104.238 155.109 104.333C154.935 104.429 154.8 104.565 154.707 104.739C154.613 104.914 154.566 105.119 154.566 105.353H153.623C153.623 104.955 153.715 104.606 153.898 104.308C154.081 104.01 154.333 103.778 154.652 103.614C154.972 103.448 155.335 103.365 155.742 103.365C156.153 103.365 156.516 103.447 156.829 103.611C157.144 103.773 157.39 103.995 157.567 104.276C157.744 104.555 157.832 104.87 157.832 105.222C157.832 105.465 157.787 105.702 157.695 105.935C157.605 106.167 157.449 106.426 157.225 106.711C157.001 106.995 156.69 107.339 156.292 107.744L154.991 109.105V109.153H157.938V110H153.63ZM161.428 110.089C160.989 110.089 160.597 110.014 160.252 109.863C159.909 109.711 159.637 109.501 159.437 109.233C159.239 108.962 159.132 108.649 159.117 108.293H160.121C160.134 108.487 160.199 108.656 160.316 108.798C160.435 108.939 160.591 109.048 160.782 109.124C160.974 109.201 161.187 109.239 161.422 109.239C161.679 109.239 161.907 109.195 162.105 109.105C162.306 109.016 162.462 108.891 162.575 108.731C162.688 108.569 162.745 108.383 162.745 108.172C162.745 107.952 162.688 107.76 162.575 107.593C162.464 107.425 162.301 107.293 162.086 107.197C161.873 107.101 161.615 107.053 161.313 107.053H160.76V106.248H161.313C161.556 106.248 161.769 106.204 161.952 106.117C162.137 106.029 162.282 105.908 162.387 105.752C162.491 105.595 162.543 105.411 162.543 105.2C162.543 104.997 162.498 104.821 162.406 104.672C162.316 104.521 162.189 104.403 162.022 104.317C161.858 104.232 161.664 104.19 161.441 104.19C161.228 104.19 161.028 104.229 160.843 104.308C160.66 104.385 160.511 104.495 160.396 104.64C160.281 104.783 160.219 104.955 160.21 105.155H159.255C159.265 104.801 159.37 104.49 159.568 104.222C159.768 103.953 160.032 103.743 160.36 103.592C160.689 103.441 161.053 103.365 161.453 103.365C161.873 103.365 162.235 103.447 162.54 103.611C162.847 103.773 163.083 103.989 163.25 104.26C163.418 104.531 163.501 104.827 163.499 105.148C163.501 105.515 163.399 105.826 163.192 106.082C162.988 106.337 162.715 106.509 162.374 106.596V106.647C162.809 106.713 163.145 106.886 163.384 107.165C163.625 107.444 163.744 107.79 163.742 108.204C163.744 108.564 163.644 108.887 163.441 109.172C163.241 109.458 162.967 109.683 162.62 109.847C162.273 110.009 161.875 110.089 161.428 110.089ZM165.17 110L168.028 104.349V104.301H164.723V103.455H169.05V104.33L166.203 110H165.17ZM172.633 103.455H173.832L175.915 108.543H175.992L178.076 103.455H179.275V110H178.335V105.263H178.274L176.344 109.99H175.564L173.634 105.26H173.573V110H172.633V103.455ZM180.634 110V105.091H181.589V110H180.634ZM181.116 104.333C180.95 104.333 180.807 104.278 180.688 104.167C180.571 104.054 180.512 103.92 180.512 103.765C180.512 103.607 180.571 103.473 180.688 103.362C180.807 103.249 180.95 103.192 181.116 103.192C181.282 103.192 181.424 103.249 181.541 103.362C181.661 103.473 181.72 103.607 181.72 103.765C181.72 103.92 181.661 104.054 181.541 104.167C181.424 104.278 181.282 104.333 181.116 104.333ZM183.83 103.455V110H182.875V103.455H183.83ZM186.072 103.455V110H185.116V103.455H186.072ZM187.357 110V105.091H188.313V110H187.357ZM187.84 104.333C187.674 104.333 187.531 104.278 187.412 104.167C187.294 104.054 187.236 103.92 187.236 103.765C187.236 103.607 187.294 103.473 187.412 103.362C187.531 103.249 187.674 103.192 187.84 103.192C188.006 103.192 188.148 103.249 188.265 103.362C188.384 103.473 188.444 103.607 188.444 103.765C188.444 103.92 188.384 104.054 188.265 104.167C188.148 104.278 188.006 104.333 187.84 104.333ZM191.666 110.099C191.206 110.099 190.804 109.994 190.461 109.783C190.118 109.572 189.852 109.277 189.662 108.897C189.473 108.518 189.378 108.075 189.378 107.568C189.378 107.059 189.473 106.613 189.662 106.232C189.852 105.85 190.118 105.554 190.461 105.343C190.804 105.132 191.206 105.027 191.666 105.027C192.127 105.027 192.528 105.132 192.871 105.343C193.214 105.554 193.481 105.85 193.67 106.232C193.86 106.613 193.955 107.059 193.955 107.568C193.955 108.075 193.86 108.518 193.67 108.897C193.481 109.277 193.214 109.572 192.871 109.783C192.528 109.994 192.127 110.099 191.666 110.099ZM191.669 109.297C191.968 109.297 192.215 109.218 192.411 109.06C192.607 108.903 192.752 108.693 192.846 108.431C192.941 108.169 192.989 107.88 192.989 107.565C192.989 107.251 192.941 106.964 192.846 106.702C192.752 106.437 192.607 106.225 192.411 106.066C192.215 105.906 191.968 105.826 191.669 105.826C191.369 105.826 191.12 105.906 190.922 106.066C190.726 106.225 190.58 106.437 190.484 106.702C190.39 106.964 190.343 107.251 190.343 107.565C190.343 107.88 190.39 108.169 190.484 108.431C190.58 108.693 190.726 108.903 190.922 109.06C191.12 109.218 191.369 109.297 191.669 109.297ZM195.977 107.085V110H195.021V105.091H195.939V105.89H195.999C196.112 105.63 196.289 105.421 196.53 105.263C196.773 105.106 197.078 105.027 197.447 105.027C197.782 105.027 198.075 105.097 198.326 105.238C198.577 105.376 198.772 105.583 198.911 105.858C199.049 106.133 199.119 106.473 199.119 106.877V110H198.163V106.993C198.163 106.637 198.07 106.359 197.885 106.158C197.7 105.956 197.445 105.855 197.121 105.855C196.9 105.855 196.702 105.903 196.53 105.999C196.359 106.094 196.224 106.235 196.124 106.42C196.026 106.604 195.977 106.825 195.977 107.085ZM205.892 107.964V105.091H206.851V110H205.911V109.15H205.86C205.747 109.412 205.566 109.63 205.316 109.805C205.069 109.978 204.761 110.064 204.393 110.064C204.078 110.064 203.798 109.995 203.555 109.856C203.315 109.716 203.125 109.508 202.987 109.233C202.85 108.958 202.782 108.618 202.782 108.213V105.091H203.738V108.098C203.738 108.433 203.83 108.699 204.016 108.897C204.201 109.096 204.442 109.195 204.738 109.195C204.917 109.195 205.095 109.15 205.272 109.06C205.451 108.971 205.599 108.836 205.716 108.654C205.835 108.473 205.894 108.243 205.892 107.964ZM209.09 107.085V110H208.135V105.091H209.052V105.89H209.113C209.225 105.63 209.402 105.421 209.643 105.263C209.886 105.106 210.192 105.027 210.56 105.027C210.895 105.027 211.188 105.097 211.439 105.238C211.691 105.376 211.886 105.583 212.024 105.858C212.163 106.133 212.232 106.473 212.232 106.877V110H211.276V106.993C211.276 106.637 211.184 106.359 210.998 106.158C210.813 105.956 210.558 105.855 210.234 105.855C210.013 105.855 209.816 105.903 209.643 105.999C209.473 106.094 209.337 106.235 209.237 106.42C209.139 106.604 209.09 106.825 209.09 107.085ZM213.513 110V105.091H214.469V110H213.513ZM213.996 104.333C213.83 104.333 213.687 104.278 213.568 104.167C213.451 104.054 213.392 103.92 213.392 103.765C213.392 103.607 213.451 103.473 213.568 103.362C213.687 103.249 213.83 103.192 213.996 103.192C214.162 103.192 214.304 103.249 214.421 103.362C214.54 103.473 214.6 103.607 214.6 103.765C214.6 103.92 214.54 104.054 214.421 104.167C214.304 104.278 214.162 104.333 213.996 104.333ZM218.046 105.091V105.858H215.365V105.091H218.046ZM216.084 103.915H217.04V108.559C217.04 108.744 217.067 108.884 217.123 108.977C217.178 109.069 217.249 109.132 217.337 109.166C217.426 109.198 217.523 109.214 217.628 109.214C217.704 109.214 217.771 109.208 217.829 109.198C217.886 109.187 217.931 109.179 217.963 109.172L218.136 109.962C218.08 109.983 218.002 110.004 217.899 110.026C217.797 110.049 217.669 110.062 217.516 110.064C217.264 110.068 217.03 110.023 216.813 109.93C216.595 109.836 216.419 109.691 216.285 109.495C216.151 109.299 216.084 109.053 216.084 108.757V103.915ZM222.703 106.289L221.837 106.443C221.801 106.332 221.743 106.227 221.664 106.126C221.587 106.026 221.483 105.944 221.351 105.88C221.219 105.816 221.054 105.784 220.856 105.784C220.585 105.784 220.359 105.845 220.178 105.967C219.997 106.086 219.906 106.24 219.906 106.43C219.906 106.594 219.967 106.726 220.089 106.826C220.21 106.926 220.406 107.009 220.677 107.072L221.456 107.251C221.908 107.356 222.245 107.517 222.466 107.734C222.688 107.951 222.799 108.234 222.799 108.581C222.799 108.875 222.714 109.137 222.543 109.367C222.375 109.595 222.139 109.774 221.837 109.904C221.536 110.034 221.188 110.099 220.792 110.099C220.242 110.099 219.793 109.982 219.446 109.748C219.099 109.511 218.886 109.175 218.807 108.741L219.731 108.6C219.788 108.841 219.906 109.023 220.085 109.147C220.264 109.268 220.498 109.329 220.785 109.329C221.098 109.329 221.349 109.264 221.536 109.134C221.724 109.002 221.818 108.841 221.818 108.651C221.818 108.498 221.76 108.369 221.645 108.265C221.532 108.16 221.358 108.081 221.124 108.028L220.293 107.846C219.835 107.741 219.496 107.575 219.277 107.347C219.059 107.119 218.951 106.831 218.951 106.481C218.951 106.191 219.032 105.938 219.194 105.721C219.356 105.503 219.579 105.334 219.865 105.212C220.15 105.089 220.477 105.027 220.846 105.027C221.377 105.027 221.794 105.142 222.099 105.372C222.403 105.6 222.605 105.906 222.703 106.289ZM227.66 110.109C227.349 110.109 227.068 110.051 226.816 109.936C226.565 109.819 226.366 109.65 226.218 109.428C226.074 109.206 226.001 108.935 226.001 108.613C226.001 108.336 226.054 108.108 226.161 107.929C226.267 107.75 226.411 107.608 226.592 107.504C226.774 107.4 226.976 107.321 227.2 107.267C227.423 107.214 227.651 107.174 227.884 107.146C228.178 107.112 228.416 107.084 228.6 107.063C228.783 107.039 228.916 107.002 228.999 106.951C229.082 106.9 229.124 106.817 229.124 106.702V106.679C229.124 106.4 229.045 106.184 228.887 106.031C228.732 105.877 228.499 105.8 228.19 105.8C227.869 105.8 227.615 105.872 227.43 106.015C227.247 106.155 227.12 106.312 227.049 106.484L226.151 106.28C226.258 105.982 226.413 105.741 226.618 105.558C226.825 105.372 227.062 105.238 227.331 105.155C227.599 105.07 227.881 105.027 228.178 105.027C228.374 105.027 228.581 105.05 228.801 105.097C229.022 105.142 229.229 105.225 229.421 105.347C229.615 105.468 229.774 105.642 229.897 105.868C230.021 106.091 230.082 106.382 230.082 106.74V110H229.149V109.329H229.111C229.049 109.452 228.956 109.574 228.833 109.693C228.709 109.812 228.551 109.912 228.357 109.99C228.163 110.069 227.93 110.109 227.66 110.109ZM227.868 109.342C228.132 109.342 228.358 109.289 228.545 109.185C228.735 109.081 228.879 108.944 228.977 108.776C229.077 108.605 229.127 108.423 229.127 108.229V107.597C229.093 107.631 229.027 107.663 228.929 107.692C228.833 107.72 228.723 107.745 228.6 107.766C228.476 107.785 228.356 107.803 228.238 107.82C228.121 107.835 228.023 107.848 227.944 107.859C227.759 107.882 227.59 107.922 227.436 107.977C227.285 108.032 227.163 108.112 227.072 108.217C226.982 108.319 226.938 108.455 226.938 108.626C226.938 108.862 227.025 109.041 227.2 109.163C227.374 109.282 227.597 109.342 227.868 109.342ZM235.379 105.091L233.599 110H232.576L230.793 105.091H231.819L233.062 108.869H233.113L234.353 105.091H235.379ZM237.565 110.109C237.254 110.109 236.973 110.051 236.721 109.936C236.47 109.819 236.271 109.65 236.124 109.428C235.979 109.206 235.906 108.935 235.906 108.613C235.906 108.336 235.96 108.108 236.066 107.929C236.173 107.75 236.317 107.608 236.498 107.504C236.679 107.4 236.881 107.321 237.105 107.267C237.329 107.214 237.557 107.174 237.789 107.146C238.083 107.112 238.322 107.084 238.505 107.063C238.688 107.039 238.821 107.002 238.904 106.951C238.987 106.9 239.029 106.817 239.029 106.702V106.679C239.029 106.4 238.95 106.184 238.792 106.031C238.637 105.877 238.405 105.8 238.096 105.8C237.774 105.8 237.52 105.872 237.335 106.015C237.152 106.155 237.025 106.312 236.955 106.484L236.057 106.28C236.163 105.982 236.319 105.741 236.523 105.558C236.73 105.372 236.968 105.238 237.236 105.155C237.504 105.07 237.787 105.027 238.083 105.027C238.279 105.027 238.487 105.05 238.706 105.097C238.928 105.142 239.134 105.225 239.326 105.347C239.52 105.468 239.679 105.642 239.802 105.868C239.926 106.091 239.988 106.382 239.988 106.74V110H239.055V109.329H239.016C238.954 109.452 238.862 109.574 238.738 109.693C238.615 109.812 238.456 109.912 238.262 109.99C238.068 110.069 237.836 110.109 237.565 110.109ZM237.773 109.342C238.037 109.342 238.263 109.289 238.45 109.185C238.64 109.081 238.784 108.944 238.882 108.776C238.982 108.605 239.032 108.423 239.032 108.229V107.597C238.998 107.631 238.932 107.663 238.834 107.692C238.738 107.72 238.628 107.745 238.505 107.766C238.381 107.785 238.261 107.803 238.144 107.82C238.026 107.835 237.928 107.848 237.85 107.859C237.664 107.882 237.495 107.922 237.341 107.977C237.19 108.032 237.069 108.112 236.977 108.217C236.888 108.319 236.843 108.455 236.843 108.626C236.843 108.862 236.93 109.041 237.105 109.163C237.28 109.282 237.502 109.342 237.773 109.342ZM241.261 110V105.091H242.216V110H241.261ZM241.743 104.333C241.577 104.333 241.434 104.278 241.315 104.167C241.198 104.054 241.139 103.92 241.139 103.765C241.139 103.607 241.198 103.473 241.315 103.362C241.434 103.249 241.577 103.192 241.743 103.192C241.909 103.192 242.051 103.249 242.168 103.362C242.288 103.473 242.347 103.607 242.347 103.765C242.347 103.92 242.288 104.054 242.168 104.167C242.051 104.278 241.909 104.333 241.743 104.333ZM244.457 103.455V110H243.502V103.455H244.457ZM247.172 110.109C246.861 110.109 246.579 110.051 246.328 109.936C246.076 109.819 245.877 109.65 245.73 109.428C245.585 109.206 245.513 108.935 245.513 108.613C245.513 108.336 245.566 108.108 245.673 107.929C245.779 107.75 245.923 107.608 246.104 107.504C246.285 107.4 246.488 107.321 246.711 107.267C246.935 107.214 247.163 107.174 247.395 107.146C247.689 107.112 247.928 107.084 248.111 107.063C248.294 107.039 248.428 107.002 248.511 106.951C248.594 106.9 248.635 106.817 248.635 106.702V106.679C248.635 106.4 248.557 106.184 248.399 106.031C248.243 105.877 248.011 105.8 247.702 105.8C247.38 105.8 247.127 105.872 246.941 106.015C246.758 106.155 246.631 106.312 246.561 106.484L245.663 106.28C245.77 105.982 245.925 105.741 246.13 105.558C246.336 105.372 246.574 105.238 246.842 105.155C247.111 105.07 247.393 105.027 247.689 105.027C247.885 105.027 248.093 105.05 248.313 105.097C248.534 105.142 248.741 105.225 248.933 105.347C249.127 105.468 249.285 105.642 249.409 105.868C249.532 106.091 249.594 106.382 249.594 106.74V110H248.661V109.329H248.623C248.561 109.452 248.468 109.574 248.345 109.693C248.221 109.812 248.062 109.912 247.868 109.99C247.674 110.069 247.442 110.109 247.172 110.109ZM247.379 109.342C247.644 109.342 247.869 109.289 248.057 109.185C248.247 109.081 248.39 108.944 248.488 108.776C248.589 108.605 248.639 108.423 248.639 108.229V107.597C248.604 107.631 248.538 107.663 248.44 107.692C248.345 107.72 248.235 107.745 248.111 107.766C247.988 107.785 247.867 107.803 247.75 107.82C247.633 107.835 247.535 107.848 247.456 107.859C247.271 107.882 247.101 107.922 246.948 107.977C246.797 108.032 246.675 108.112 246.584 108.217C246.494 108.319 246.449 108.455 246.449 108.626C246.449 108.862 246.537 109.041 246.711 109.163C246.886 109.282 247.109 109.342 247.379 109.342ZM250.944 110V103.455H251.899V105.887H251.957C252.012 105.784 252.092 105.666 252.197 105.532C252.301 105.398 252.446 105.281 252.631 105.18C252.817 105.078 253.062 105.027 253.366 105.027C253.763 105.027 254.116 105.127 254.427 105.327C254.738 105.528 254.982 105.816 255.159 106.194C255.338 106.571 255.428 107.025 255.428 107.555C255.428 108.086 255.339 108.54 255.162 108.92C254.986 109.297 254.743 109.588 254.434 109.792C254.125 109.995 253.772 110.096 253.376 110.096C253.078 110.096 252.834 110.046 252.644 109.946C252.456 109.846 252.309 109.728 252.203 109.594C252.096 109.46 252.014 109.341 251.957 109.236H251.877V110H250.944ZM251.88 107.545C251.88 107.891 251.93 108.193 252.03 108.453C252.131 108.713 252.275 108.917 252.465 109.064C252.655 109.208 252.887 109.281 253.162 109.281C253.447 109.281 253.686 109.205 253.878 109.054C254.069 108.901 254.214 108.693 254.312 108.431C254.412 108.169 254.463 107.874 254.463 107.545C254.463 107.222 254.414 106.931 254.316 106.673C254.22 106.415 254.075 106.212 253.881 106.062C253.689 105.913 253.449 105.839 253.162 105.839C252.885 105.839 252.65 105.91 252.459 106.053C252.269 106.196 252.125 106.395 252.027 106.651C251.929 106.906 251.88 107.205 251.88 107.545ZM257.456 103.455V110H256.501V103.455H257.456ZM260.858 110.099C260.374 110.099 259.958 109.996 259.608 109.789C259.261 109.58 258.992 109.287 258.803 108.91C258.615 108.531 258.521 108.087 258.521 107.577C258.521 107.075 258.615 106.631 258.803 106.248C258.992 105.864 259.257 105.565 259.595 105.35C259.936 105.135 260.335 105.027 260.791 105.027C261.068 105.027 261.336 105.073 261.596 105.164C261.856 105.256 262.089 105.4 262.296 105.596C262.503 105.792 262.666 106.047 262.785 106.36C262.904 106.671 262.964 107.049 262.964 107.494V107.833H259.062V107.117H262.028C262.028 106.866 261.976 106.643 261.874 106.449C261.772 106.253 261.628 106.099 261.443 105.986C261.259 105.873 261.044 105.816 260.797 105.816C260.529 105.816 260.294 105.882 260.094 106.015C259.896 106.145 259.742 106.315 259.634 106.526C259.527 106.735 259.474 106.962 259.474 107.207V107.766C259.474 108.094 259.531 108.373 259.646 108.603C259.764 108.833 259.927 109.009 260.135 109.131C260.344 109.25 260.588 109.31 260.867 109.31C261.048 109.31 261.214 109.284 261.363 109.233C261.512 109.18 261.641 109.101 261.749 108.996C261.858 108.892 261.941 108.763 261.999 108.61L262.903 108.773C262.831 109.039 262.701 109.272 262.513 109.473C262.328 109.671 262.095 109.825 261.813 109.936C261.534 110.045 261.216 110.099 260.858 110.099Z" fill="#898989"/>
<path d="M65.272 49H64.2237L66.5792 42.4545H67.7202L70.0756 49H69.0273L67.1768 43.6435H67.1257L65.272 49ZM65.4478 46.4368H68.8484V47.2678H65.4478V46.4368ZM70.9442 49V44.0909H71.8678V44.8707H71.9189C72.0084 44.6065 72.1661 44.3988 72.392 44.2475C72.6199 44.0941 72.8778 44.0174 73.1654 44.0174C73.2251 44.0174 73.2954 44.0195 73.3763 44.0238C73.4594 44.0281 73.5244 44.0334 73.5713 44.0398V44.9538C73.5329 44.9432 73.4648 44.9315 73.3667 44.9187C73.2687 44.9038 73.1707 44.8963 73.0727 44.8963C72.8469 44.8963 72.6455 44.9442 72.4687 45.0401C72.2939 45.1339 72.1555 45.2649 72.0532 45.4332C71.9509 45.5994 71.8998 45.7891 71.8998 46.0021V49H70.9442ZM76.3382 49.0991C75.8546 49.0991 75.438 48.9957 75.0886 48.7891C74.7413 48.5803 74.4728 48.2873 74.2832 47.9102C74.0957 47.5309 74.002 47.0866 74.002 46.5774C74.002 46.0746 74.0957 45.6314 74.2832 45.2479C74.4728 44.8643 74.737 44.565 75.0758 44.3498C75.4167 44.1346 75.8152 44.027 76.2711 44.027C76.5481 44.027 76.8166 44.0728 77.0765 44.1644C77.3365 44.256 77.5698 44.3999 77.7765 44.5959C77.9831 44.7919 78.1461 45.0465 78.2654 45.3597C78.3848 45.6708 78.4444 46.049 78.4444 46.4943V46.8331H74.5421V46.1172H77.508C77.508 45.8658 77.4569 45.6431 77.3546 45.4492C77.2523 45.2532 77.1085 45.0987 76.9231 44.9858C76.7399 44.8729 76.5247 44.8164 76.2775 44.8164C76.0091 44.8164 75.7747 44.8825 75.5744 45.0146C75.3762 45.1445 75.2228 45.315 75.1142 45.5259C75.0076 45.7347 74.9544 45.9616 74.9544 46.2067V46.766C74.9544 47.0941 75.0119 47.3732 75.127 47.6033C75.2441 47.8335 75.4071 48.0092 75.6159 48.1307C75.8248 48.25 76.0687 48.3097 76.3478 48.3097C76.5289 48.3097 76.6941 48.2841 76.8432 48.233C76.9924 48.1797 77.1213 48.1009 77.2299 47.9964C77.3386 47.892 77.4217 47.7631 77.4792 47.6097L78.3837 47.7727C78.3113 48.0391 78.1813 48.2724 77.9938 48.4727C77.8084 48.6708 77.5751 48.8253 77.2939 48.9361C77.0147 49.0447 76.6962 49.0991 76.3382 49.0991ZM80.9333 49.1087C80.6222 49.1087 80.341 49.0511 80.0896 48.9361C79.8382 48.8189 79.6389 48.6495 79.4919 48.4279C79.347 48.2063 79.2746 47.9347 79.2746 47.6129C79.2746 47.3359 79.3279 47.108 79.4344 46.929C79.5409 46.75 79.6847 46.6083 79.8659 46.5039C80.047 46.3995 80.2494 46.3207 80.4731 46.2674C80.6968 46.2141 80.9248 46.1737 81.157 46.146C81.4511 46.1119 81.6897 46.0842 81.873 46.0629C82.0562 46.0394 82.1894 46.0021 82.2725 45.951C82.3556 45.8999 82.3971 45.8168 82.3971 45.7017V45.6793C82.3971 45.4002 82.3183 45.1839 82.1606 45.0305C82.0051 44.8771 81.7728 44.8004 81.4639 44.8004C81.1421 44.8004 80.8886 44.8718 80.7032 45.0146C80.52 45.1552 80.3932 45.3118 80.3229 45.4844L79.4248 45.2798C79.5313 44.9815 79.6869 44.7408 79.8914 44.5575C80.0981 44.3722 80.3357 44.2379 80.6041 44.1548C80.8726 44.0696 81.1549 44.027 81.4511 44.027C81.6471 44.027 81.8548 44.0504 82.0743 44.0973C82.2959 44.142 82.5026 44.2251 82.6943 44.3466C82.8882 44.468 83.047 44.6417 83.1705 44.8675C83.2941 45.0913 83.3559 45.3821 83.3559 45.7401V49H82.4227V48.3288H82.3843C82.3225 48.4524 82.2298 48.5739 82.1063 48.6932C81.9827 48.8125 81.824 48.9116 81.6301 48.9904C81.4362 49.0692 81.2039 49.1087 80.9333 49.1087ZM81.1411 48.3416C81.4053 48.3416 81.6311 48.2894 81.8186 48.185C82.0083 48.0806 82.1521 47.9442 82.2501 47.7759C82.3502 47.6055 82.4003 47.4233 82.4003 47.2294V46.5966C82.3662 46.6307 82.3002 46.6626 82.2021 46.6925C82.1063 46.7202 81.9965 46.7447 81.873 46.766C81.7494 46.7852 81.629 46.8033 81.5118 46.8203C81.3946 46.8352 81.2966 46.848 81.2178 46.8587C81.0324 46.8821 80.863 46.9215 80.7096 46.9769C80.5583 47.0323 80.4369 47.1122 80.3453 47.2166C80.2558 47.3189 80.211 47.4553 80.211 47.6257C80.211 47.8622 80.2984 48.0412 80.4731 48.1626C80.6478 48.282 80.8705 48.3416 81.1411 48.3416Z" fill="#898989"/>
<rect x="192" y="45" width="33" height="14" fill="white"/>
<circle cx="207.5" cy="51.5" r="33" fill="white" stroke="#32B8DC" stroke-width="19"/>
<mask id="path-5-inside-1_10_2" fill="white">
<path d="M237.552 81.552C242.827 76.2768 246.621 69.7059 248.552 62.4998C250.483 55.2937 250.483 47.7063 248.552 40.5002C246.621 33.2941 242.827 26.7232 237.552 21.448C232.277 16.1727 225.706 12.379 218.5 10.4482L207.5 51.5L237.552 81.552Z"/>
</mask>
<path d="M237.552 81.552C242.827 76.2768 246.621 69.7059 248.552 62.4998C250.483 55.2937 250.483 47.7063 248.552 40.5002C246.621 33.2941 242.827 26.7232 237.552 21.448C232.277 16.1727 225.706 12.379 218.5 10.4482L207.5 51.5L237.552 81.552Z" stroke="#157F9B" stroke-width="38" mask="url(#path-5-inside-1_10_2)"/>
<circle cx="208" cy="52" r="24" fill="white"/>
<path d="M195.618 55.3807V54.1236L199.321 48.2727H200.369V50.0625H199.73L197.237 54.0128V54.081H202.406V55.3807H195.618ZM199.781 57V54.9972L199.798 54.4347V48.2727H201.29V57H199.781ZM206.9 57.1193C206.286 57.1193 205.741 57.0142 205.263 56.804C204.789 56.5937 204.414 56.3011 204.138 55.9261C203.863 55.5511 203.717 55.1179 203.7 54.6264H205.302C205.316 54.8622 205.394 55.0682 205.536 55.2443C205.678 55.4176 205.867 55.5526 206.103 55.6491C206.339 55.7457 206.603 55.794 206.896 55.794C207.208 55.794 207.485 55.7401 207.727 55.6321C207.968 55.5213 208.157 55.3679 208.293 55.1719C208.43 54.9759 208.496 54.75 208.494 54.4943C208.496 54.2301 208.428 53.9972 208.289 53.7955C208.15 53.5937 207.948 53.4361 207.684 53.3224C207.423 53.2088 207.107 53.152 206.738 53.152H205.967V51.9332H206.738C207.042 51.9332 207.308 51.8807 207.535 51.7756C207.765 51.6705 207.945 51.5227 208.076 51.3324C208.207 51.1392 208.271 50.9162 208.268 50.6634C208.271 50.4162 208.215 50.2017 208.102 50.0199C207.991 49.8352 207.833 49.6918 207.629 49.5895C207.427 49.4872 207.19 49.4361 206.917 49.4361C206.65 49.4361 206.403 49.4844 206.175 49.581C205.948 49.6776 205.765 49.8153 205.626 49.9943C205.487 50.1705 205.413 50.3807 205.404 50.625H203.883C203.894 50.1364 204.035 49.7074 204.305 49.3381C204.577 48.9659 204.941 48.6761 205.396 48.4688C205.85 48.2585 206.36 48.1534 206.925 48.1534C207.508 48.1534 208.013 48.2628 208.442 48.4815C208.874 48.6974 209.208 48.9886 209.444 49.3551C209.68 49.7216 209.798 50.1264 209.798 50.5696C209.8 51.0611 209.656 51.473 209.363 51.8054C209.073 52.1378 208.692 52.3551 208.221 52.4574V52.5256C208.835 52.6108 209.305 52.8381 209.631 53.2074C209.961 53.5739 210.124 54.0298 210.121 54.5753C210.121 55.0639 209.982 55.5014 209.704 55.8878C209.428 56.2713 209.048 56.5724 208.562 56.7912C208.079 57.0099 207.525 57.1193 206.9 57.1193ZM216.25 55.3636V54.9034C216.25 54.5653 216.321 54.2543 216.463 53.9702C216.608 53.6861 216.819 53.4574 217.094 53.2841C217.37 53.1108 217.703 53.0241 218.096 53.0241C218.499 53.0241 218.837 53.1108 219.11 53.2841C219.382 53.4545 219.588 53.6818 219.728 53.9659C219.87 54.25 219.941 54.5625 219.941 54.9034V55.3636C219.941 55.7017 219.87 56.0128 219.728 56.2969C219.586 56.581 219.377 56.8097 219.101 56.983C218.828 57.1563 218.493 57.2429 218.096 57.2429C217.698 57.2429 217.361 57.1563 217.086 56.983C216.81 56.8097 216.601 56.581 216.459 56.2969C216.32 56.0128 216.25 55.7017 216.25 55.3636ZM217.363 54.9034V55.3636C217.363 55.5881 217.417 55.794 217.525 55.9815C217.632 56.169 217.823 56.2628 218.096 56.2628C218.371 56.2628 218.56 56.1705 218.662 55.9858C218.767 55.7983 218.82 55.5909 218.82 55.3636V54.9034C218.82 54.6761 218.77 54.4688 218.671 54.2812C218.571 54.0909 218.38 53.9957 218.096 53.9957C217.828 53.9957 217.64 54.0909 217.529 54.2812C217.418 54.4688 217.363 54.6761 217.363 54.9034ZM211.814 50.3693V49.9091C211.814 49.5682 211.887 49.2557 212.032 48.9716C212.176 48.6875 212.387 48.4602 212.662 48.2898C212.938 48.1165 213.272 48.0298 213.664 48.0298C214.064 48.0298 214.401 48.1165 214.674 48.2898C214.949 48.4602 215.157 48.6875 215.296 48.9716C215.435 49.2557 215.505 49.5682 215.505 49.9091V50.3693C215.505 50.7102 215.434 51.0227 215.292 51.3068C215.152 51.5881 214.945 51.8139 214.669 51.9844C214.394 52.1548 214.059 52.2401 213.664 52.2401C213.263 52.2401 212.925 52.1548 212.65 51.9844C212.377 51.8139 212.169 51.5866 212.027 51.3026C211.885 51.0185 211.814 50.7074 211.814 50.3693ZM212.935 49.9091V50.3693C212.935 50.5966 212.988 50.804 213.093 50.9915C213.201 51.1761 213.391 51.2685 213.664 51.2685C213.936 51.2685 214.124 51.1761 214.226 50.9915C214.331 50.804 214.384 50.5966 214.384 50.3693V49.9091C214.384 49.6818 214.334 49.4744 214.235 49.2869C214.135 49.0966 213.945 49.0014 213.664 49.0014C213.394 49.0014 213.205 49.0966 213.097 49.2869C212.989 49.4773 212.935 49.6847 212.935 49.9091ZM212.3 57L218.3 48.2727H219.365L213.365 57H212.3Z" fill="#898989"/>
<path d="M54.3253 57.2727V66H52.7443V58.8111H52.6932L50.652 60.1151V58.6662L52.821 57.2727H54.3253ZM59.6733 66.1193C59.0597 66.1193 58.5142 66.0142 58.0369 65.804C57.5625 65.5937 57.1875 65.3011 56.9119 64.9261C56.6364 64.5511 56.4901 64.1179 56.473 63.6264H58.0753C58.0895 63.8622 58.1676 64.0682 58.3097 64.2443C58.4517 64.4176 58.6406 64.5526 58.8764 64.6491C59.1122 64.7457 59.3764 64.794 59.669 64.794C59.9815 64.794 60.2585 64.7401 60.5 64.6321C60.7415 64.5213 60.9304 64.3679 61.0668 64.1719C61.2031 63.9759 61.2699 63.75 61.267 63.4943C61.2699 63.2301 61.2017 62.9972 61.0625 62.7955C60.9233 62.5937 60.7216 62.4361 60.4574 62.3224C60.196 62.2088 59.8807 62.152 59.5114 62.152H58.7401V60.9332H59.5114C59.8153 60.9332 60.081 60.8807 60.3082 60.7756C60.5384 60.6705 60.7188 60.5227 60.8494 60.3324C60.9801 60.1392 61.044 59.9162 61.0412 59.6634C61.044 59.4162 60.9886 59.2017 60.875 59.0199C60.7642 58.8352 60.6065 58.6918 60.402 58.5895C60.2003 58.4872 59.9631 58.4361 59.6903 58.4361C59.4233 58.4361 59.1761 58.4844 58.9489 58.581C58.7216 58.6776 58.5384 58.8153 58.3991 58.9943C58.2599 59.1705 58.1861 59.3807 58.1776 59.625H56.6562C56.6676 59.1364 56.8082 58.7074 57.0781 58.3381C57.3509 57.9659 57.7145 57.6761 58.169 57.4688C58.6236 57.2585 59.1335 57.1534 59.6989 57.1534C60.2813 57.1534 60.7869 57.2628 61.2159 57.4815C61.6477 57.6974 61.9815 57.9886 62.2173 58.3551C62.4531 58.7216 62.571 59.1264 62.571 59.5696C62.5739 60.0611 62.429 60.473 62.1364 60.8054C61.8466 61.1378 61.4659 61.3551 60.9943 61.4574V61.5256C61.608 61.6108 62.0781 61.8381 62.4048 62.2074C62.7344 62.5739 62.8977 63.0298 62.8949 63.5753C62.8949 64.0639 62.7557 64.5014 62.4773 64.8878C62.2017 65.2713 61.821 65.5724 61.3352 65.7912C60.8523 66.0099 60.2983 66.1193 59.6733 66.1193ZM67.3917 66.1193C66.8235 66.1193 66.315 66.0128 65.8661 65.7997C65.4173 65.5838 65.0607 65.2884 64.7965 64.9134C64.5352 64.5384 64.396 64.1094 64.3789 63.6264H65.913C65.9414 63.9844 66.0962 64.277 66.3775 64.5043C66.6587 64.7287 66.9968 64.8409 67.3917 64.8409C67.7013 64.8409 67.9769 64.7699 68.2184 64.6278C68.4599 64.4858 68.6502 64.2884 68.7894 64.0355C68.9286 63.7827 68.9968 63.4943 68.994 63.1705C68.9968 62.8409 68.9272 62.5483 68.7852 62.2926C68.6431 62.0369 68.4485 61.8366 68.2013 61.6918C67.9542 61.544 67.6701 61.4702 67.3491 61.4702C67.0877 61.4673 66.8306 61.5156 66.5778 61.6151C66.3249 61.7145 66.1246 61.8452 65.9769 62.0071L64.5494 61.7727L65.0053 57.2727H70.0678V58.5938H66.3136L66.0621 60.9077H66.1133C66.2752 60.7173 66.5039 60.5597 66.7994 60.4347C67.0948 60.3068 67.4187 60.2429 67.771 60.2429C68.2994 60.2429 68.771 60.3679 69.1857 60.6179C69.6005 60.8651 69.9272 61.206 70.1658 61.6406C70.4045 62.0753 70.5238 62.5724 70.5238 63.1321C70.5238 63.7088 70.3903 64.223 70.1232 64.6747C69.859 65.1236 69.4911 65.4773 69.0195 65.7358C68.5508 65.9915 68.0082 66.1193 67.3917 66.1193ZM79.756 59.6719C79.7163 59.2997 79.5487 59.0099 79.2532 58.8026C78.9606 58.5952 78.5799 58.4915 78.1112 58.4915C77.7816 58.4915 77.4989 58.5412 77.2631 58.6406C77.0273 58.7401 76.8469 58.875 76.7219 59.0455C76.5969 59.2159 76.533 59.4105 76.5302 59.6293C76.5302 59.8111 76.5714 59.9687 76.6538 60.1023C76.739 60.2358 76.854 60.3494 76.9989 60.4432C77.1438 60.5341 77.3043 60.6108 77.4805 60.6733C77.6566 60.7358 77.8342 60.7884 78.0131 60.831L78.8313 61.0355C79.1609 61.1122 79.4776 61.2159 79.7816 61.3466C80.0884 61.4773 80.3626 61.642 80.604 61.8409C80.8484 62.0398 81.0415 62.2798 81.1836 62.5611C81.3256 62.8423 81.3967 63.1719 81.3967 63.5497C81.3967 64.0611 81.266 64.5114 81.0046 64.9006C80.7433 65.2869 80.3654 65.5895 79.8711 65.8082C79.3796 66.0241 78.7844 66.1321 78.0856 66.1321C77.4066 66.1321 76.8171 66.027 76.3171 65.8168C75.82 65.6065 75.4308 65.2997 75.1495 64.8963C74.8711 64.4929 74.7205 64.0014 74.6978 63.4219H76.2532C76.2759 63.7259 76.3697 63.9787 76.5344 64.1804C76.6992 64.3821 76.9137 64.5327 77.1779 64.6321C77.445 64.7315 77.7433 64.7812 78.0728 64.7812C78.4165 64.7812 78.7177 64.7301 78.9762 64.6278C79.2376 64.5227 79.4421 64.3778 79.5898 64.1932C79.7376 64.0057 79.8129 63.7869 79.8157 63.5369C79.8129 63.3097 79.7461 63.1222 79.6154 62.9744C79.4847 62.8239 79.3015 62.6989 79.0657 62.5994C78.8327 62.4972 78.56 62.4062 78.2475 62.3267L77.2546 62.071C76.5359 61.8864 75.9677 61.6065 75.5501 61.2315C75.1353 60.8537 74.9279 60.3523 74.9279 59.7273C74.9279 59.2131 75.0671 58.7628 75.3455 58.3764C75.6268 57.9901 76.0089 57.6903 76.4918 57.4773C76.9748 57.2614 77.5217 57.1534 78.1325 57.1534C78.7518 57.1534 79.2944 57.2614 79.7603 57.4773C80.229 57.6903 80.5969 57.9872 80.864 58.3679C81.131 58.7457 81.2688 59.1804 81.2773 59.6719H79.756ZM86.0575 63.0682H87.4893L88.3374 64.1676L88.9425 64.8835L90.3956 66.75H88.8615L87.8729 65.4972L87.451 64.9006L86.0575 63.0682ZM90.6044 61.6364C90.6044 62.5767 90.4283 63.3821 90.076 64.0526C89.7266 64.7202 89.2493 65.2315 88.6442 65.5866C88.0419 65.9418 87.3587 66.1193 86.5945 66.1193C85.8303 66.1193 85.1456 65.9418 84.5405 65.5866C83.9382 65.2287 83.4609 64.7159 83.1087 64.0483C82.7592 63.3778 82.5845 62.5739 82.5845 61.6364C82.5845 60.696 82.7592 59.892 83.1087 59.2244C83.4609 58.554 83.9382 58.0412 84.5405 57.6861C85.1456 57.331 85.8303 57.1534 86.5945 57.1534C87.3587 57.1534 88.0419 57.331 88.6442 57.6861C89.2493 58.0412 89.7266 58.554 90.076 59.2244C90.4283 59.892 90.6044 60.696 90.6044 61.6364ZM89.0149 61.6364C89.0149 60.9744 88.9112 60.4162 88.7038 59.9616C88.4993 59.5043 88.2152 59.1591 87.8516 58.9261C87.4879 58.6903 87.0689 58.5724 86.5945 58.5724C86.12 58.5724 85.701 58.6903 85.3374 58.9261C84.9737 59.1591 84.6882 59.5043 84.4808 59.9616C84.2763 60.4162 84.174 60.9744 84.174 61.6364C84.174 62.2983 84.2763 62.858 84.4808 63.3153C84.6882 63.7699 84.9737 64.1151 85.3374 64.3509C85.701 64.5838 86.12 64.7003 86.5945 64.7003C87.0689 64.7003 87.4879 64.5838 87.8516 64.3509C88.2152 64.1151 88.4993 63.7699 88.7038 63.3153C88.9112 62.858 89.0149 62.2983 89.0149 61.6364ZM92.1108 66V57.2727H93.6918V61.2827H93.7983L97.2031 57.2727H99.1335L95.7585 61.1889L99.1634 66H97.2628L94.6591 62.2585L93.6918 63.4006V66H92.1108Z" fill="#898989"/>
<path d="M39.3379 59.9139L14 69.7705L35.2414 91H103.062L124 69.7705L105.793 17L82.5793 23.5205L75.7517 17L32.5103 32.6189L39.3379 59.9139Z" stroke="#157F9B" stroke-width="3"/>
</svg>
