<svg width="285" height="123" viewBox="0 0 285 123" fill="none" xmlns="http://www.w3.org/2000/svg">
<rect width="285" height="123" fill="white"/>
<path d="M156.113 103.455V110H155.122V104.445H155.084L153.518 105.468V104.522L155.151 103.455H156.113ZM160.162 110.109C159.657 110.107 159.226 109.973 158.868 109.709C158.51 109.445 158.236 109.06 158.047 108.555C157.857 108.05 157.762 107.442 157.762 106.73C157.762 106.021 157.857 105.415 158.047 104.912C158.238 104.409 158.513 104.026 158.871 103.761C159.231 103.497 159.662 103.365 160.162 103.365C160.663 103.365 161.092 103.498 161.45 103.765C161.808 104.029 162.082 104.412 162.272 104.915C162.463 105.416 162.559 106.021 162.559 106.73C162.559 107.444 162.464 108.054 162.275 108.559C162.085 109.061 161.811 109.446 161.453 109.712C161.096 109.977 160.665 110.109 160.162 110.109ZM160.162 109.255C160.605 109.255 160.952 109.039 161.201 108.607C161.452 108.174 161.578 107.549 161.578 106.73C161.578 106.187 161.521 105.728 161.406 105.353C161.293 104.976 161.13 104.69 160.917 104.496C160.706 104.3 160.454 104.202 160.162 104.202C159.721 104.202 159.375 104.42 159.124 104.854C158.872 105.289 158.745 105.914 158.743 106.73C158.743 107.276 158.8 107.737 158.913 108.114C159.028 108.489 159.191 108.774 159.402 108.968C159.613 109.159 159.866 109.255 160.162 109.255ZM163.738 110L166.595 104.349V104.301H163.29V103.455H167.618V104.33L164.77 110H163.738ZM171.201 103.455H172.399L174.483 108.543H174.56L176.643 103.455H177.842V110H176.902V105.263H176.842L174.911 109.99H174.131L172.201 105.26H172.14V110H171.201V103.455ZM179.201 110V105.091H180.157V110H179.201ZM179.684 104.333C179.517 104.333 179.375 104.278 179.255 104.167C179.138 104.054 179.08 103.92 179.08 103.765C179.08 103.607 179.138 103.473 179.255 103.362C179.375 103.249 179.517 103.192 179.684 103.192C179.85 103.192 179.991 103.249 180.109 103.362C180.228 103.473 180.288 103.607 180.288 103.765C180.288 103.92 180.228 104.054 180.109 104.167C179.991 104.278 179.85 104.333 179.684 104.333ZM182.398 103.455V110H181.442V103.455H182.398ZM184.639 103.455V110H183.683V103.455H184.639ZM185.925 110V105.091H186.88V110H185.925ZM186.407 104.333C186.241 104.333 186.098 104.278 185.979 104.167C185.862 104.054 185.803 103.92 185.803 103.765C185.803 103.607 185.862 103.473 185.979 103.362C186.098 103.249 186.241 103.192 186.407 103.192C186.573 103.192 186.715 103.249 186.832 103.362C186.952 103.473 187.011 103.607 187.011 103.765C187.011 103.92 186.952 104.054 186.832 104.167C186.715 104.278 186.573 104.333 186.407 104.333ZM190.234 110.099C189.773 110.099 189.372 109.994 189.029 109.783C188.686 109.572 188.419 109.277 188.23 108.897C188.04 108.518 187.945 108.075 187.945 107.568C187.945 107.059 188.04 106.613 188.23 106.232C188.419 105.85 188.686 105.554 189.029 105.343C189.372 105.132 189.773 105.027 190.234 105.027C190.694 105.027 191.096 105.132 191.439 105.343C191.782 105.554 192.048 105.85 192.238 106.232C192.427 106.613 192.522 107.059 192.522 107.568C192.522 108.075 192.427 108.518 192.238 108.897C192.048 109.277 191.782 109.572 191.439 109.783C191.096 109.994 190.694 110.099 190.234 110.099ZM190.237 109.297C190.535 109.297 190.782 109.218 190.978 109.06C191.174 108.903 191.319 108.693 191.413 108.431C191.509 108.169 191.557 107.88 191.557 107.565C191.557 107.251 191.509 106.964 191.413 106.702C191.319 106.437 191.174 106.225 190.978 106.066C190.782 105.906 190.535 105.826 190.237 105.826C189.936 105.826 189.687 105.906 189.489 106.066C189.293 106.225 189.147 106.437 189.051 106.702C188.957 106.964 188.911 107.251 188.911 107.565C188.911 107.88 188.957 108.169 189.051 108.431C189.147 108.693 189.293 108.903 189.489 109.06C189.687 109.218 189.936 109.297 190.237 109.297ZM194.544 107.085V110H193.589V105.091H194.506V105.89H194.567C194.68 105.63 194.856 105.421 195.097 105.263C195.34 105.106 195.646 105.027 196.014 105.027C196.349 105.027 196.642 105.097 196.893 105.238C197.145 105.376 197.34 105.583 197.478 105.858C197.617 106.133 197.686 106.473 197.686 106.877V110H196.73V106.993C196.73 106.637 196.638 106.359 196.452 106.158C196.267 105.956 196.012 105.855 195.688 105.855C195.467 105.855 195.27 105.903 195.097 105.999C194.927 106.094 194.791 106.235 194.691 106.42C194.593 106.604 194.544 106.825 194.544 107.085ZM204.459 107.964V105.091H205.418V110H204.478V109.15H204.427C204.314 109.412 204.133 109.63 203.884 109.805C203.637 109.978 203.329 110.064 202.96 110.064C202.645 110.064 202.366 109.995 202.123 109.856C201.882 109.716 201.692 109.508 201.554 109.233C201.418 108.958 201.349 108.618 201.349 108.213V105.091H202.305V108.098C202.305 108.433 202.398 108.699 202.583 108.897C202.768 109.096 203.009 109.195 203.305 109.195C203.484 109.195 203.662 109.15 203.839 109.06C204.018 108.971 204.166 108.836 204.283 108.654C204.403 108.473 204.461 108.243 204.459 107.964ZM207.658 107.085V110H206.702V105.091H207.619V105.89H207.68C207.793 105.63 207.97 105.421 208.21 105.263C208.453 105.106 208.759 105.027 209.128 105.027C209.462 105.027 209.755 105.097 210.007 105.238C210.258 105.376 210.453 105.583 210.592 105.858C210.73 106.133 210.799 106.473 210.799 106.877V110H209.844V106.993C209.844 106.637 209.751 106.359 209.566 106.158C209.38 105.956 209.126 105.855 208.802 105.855C208.58 105.855 208.383 105.903 208.21 105.999C208.04 106.094 207.905 106.235 207.805 106.42C207.707 106.604 207.658 106.825 207.658 107.085ZM212.081 110V105.091H213.036V110H212.081ZM212.563 104.333C212.397 104.333 212.255 104.278 212.135 104.167C212.018 104.054 211.959 103.92 211.959 103.765C211.959 103.607 212.018 103.473 212.135 103.362C212.255 103.249 212.397 103.192 212.563 103.192C212.73 103.192 212.871 103.249 212.989 103.362C213.108 103.473 213.168 103.607 213.168 103.765C213.168 103.92 213.108 104.054 212.989 104.167C212.871 104.278 212.73 104.333 212.563 104.333ZM216.614 105.091V105.858H213.932V105.091H216.614ZM214.651 103.915H215.607V108.559C215.607 108.744 215.635 108.884 215.69 108.977C215.745 109.069 215.817 109.132 215.904 109.166C215.994 109.198 216.091 109.214 216.195 109.214C216.272 109.214 216.339 109.208 216.396 109.198C216.454 109.187 216.499 109.179 216.531 109.172L216.703 109.962C216.648 109.983 216.569 110.004 216.467 110.026C216.364 110.049 216.237 110.062 216.083 110.064C215.832 110.068 215.597 110.023 215.38 109.93C215.163 109.836 214.987 109.691 214.853 109.495C214.718 109.299 214.651 109.053 214.651 108.757V103.915ZM221.27 106.289L220.404 106.443C220.368 106.332 220.31 106.227 220.232 106.126C220.155 106.026 220.05 105.944 219.918 105.88C219.786 105.816 219.621 105.784 219.423 105.784C219.152 105.784 218.926 105.845 218.745 105.967C218.564 106.086 218.474 106.24 218.474 106.43C218.474 106.594 218.534 106.726 218.656 106.826C218.777 106.926 218.973 107.009 219.244 107.072L220.024 107.251C220.475 107.356 220.812 107.517 221.034 107.734C221.255 107.951 221.366 108.234 221.366 108.581C221.366 108.875 221.281 109.137 221.11 109.367C220.942 109.595 220.707 109.774 220.404 109.904C220.104 110.034 219.755 110.099 219.359 110.099C218.809 110.099 218.361 109.982 218.013 109.748C217.666 109.511 217.453 109.175 217.374 108.741L218.298 108.6C218.355 108.841 218.474 109.023 218.653 109.147C218.832 109.268 219.065 109.329 219.353 109.329C219.666 109.329 219.916 109.264 220.104 109.134C220.291 109.002 220.385 108.841 220.385 108.651C220.385 108.498 220.327 108.369 220.212 108.265C220.099 108.16 219.926 108.081 219.691 108.028L218.86 107.846C218.402 107.741 218.064 107.575 217.844 107.347C217.627 107.119 217.518 106.831 217.518 106.481C217.518 106.191 217.599 105.938 217.761 105.721C217.923 105.503 218.147 105.334 218.432 105.212C218.718 105.089 219.045 105.027 219.413 105.027C219.944 105.027 220.362 105.142 220.666 105.372C220.971 105.6 221.172 105.906 221.27 106.289ZM226.227 110.109C225.916 110.109 225.635 110.051 225.384 109.936C225.132 109.819 224.933 109.65 224.786 109.428C224.641 109.206 224.569 108.935 224.569 108.613C224.569 108.336 224.622 108.108 224.728 107.929C224.835 107.75 224.979 107.608 225.16 107.504C225.341 107.4 225.543 107.321 225.767 107.267C225.991 107.214 226.219 107.174 226.451 107.146C226.745 107.112 226.984 107.084 227.167 107.063C227.35 107.039 227.483 107.002 227.566 106.951C227.65 106.9 227.691 106.817 227.691 106.702V106.679C227.691 106.4 227.612 106.184 227.455 106.031C227.299 105.877 227.067 105.8 226.758 105.8C226.436 105.8 226.183 105.872 225.997 106.015C225.814 106.155 225.687 106.312 225.617 106.484L224.719 106.28C224.825 105.982 224.981 105.741 225.185 105.558C225.392 105.372 225.63 105.238 225.898 105.155C226.167 105.07 226.449 105.027 226.745 105.027C226.941 105.027 227.149 105.05 227.368 105.097C227.59 105.142 227.797 105.225 227.988 105.347C228.182 105.468 228.341 105.642 228.464 105.868C228.588 106.091 228.65 106.382 228.65 106.74V110H227.717V109.329H227.678C227.616 109.452 227.524 109.574 227.4 109.693C227.277 109.812 227.118 109.912 226.924 109.99C226.73 110.069 226.498 110.109 226.227 110.109ZM226.435 109.342C226.699 109.342 226.925 109.289 227.113 109.185C227.302 109.081 227.446 108.944 227.544 108.776C227.644 108.605 227.694 108.423 227.694 108.229V107.597C227.66 107.631 227.594 107.663 227.496 107.692C227.4 107.72 227.29 107.745 227.167 107.766C227.043 107.785 226.923 107.803 226.806 107.82C226.689 107.835 226.591 107.848 226.512 107.859C226.326 107.882 226.157 107.922 226.004 107.977C225.852 108.032 225.731 108.112 225.639 108.217C225.55 108.319 225.505 108.455 225.505 108.626C225.505 108.862 225.592 109.041 225.767 109.163C225.942 109.282 226.164 109.342 226.435 109.342ZM233.946 105.091L232.166 110H231.144L229.36 105.091H230.386L231.629 108.869H231.68L232.921 105.091H233.946ZM236.133 110.109C235.821 110.109 235.54 110.051 235.289 109.936C235.037 109.819 234.838 109.65 234.691 109.428C234.546 109.206 234.474 108.935 234.474 108.613C234.474 108.336 234.527 108.108 234.634 107.929C234.74 107.75 234.884 107.608 235.065 107.504C235.246 107.4 235.449 107.321 235.672 107.267C235.896 107.214 236.124 107.174 236.356 107.146C236.65 107.112 236.889 107.084 237.072 107.063C237.255 107.039 237.389 107.002 237.472 106.951C237.555 106.9 237.596 106.817 237.596 106.702V106.679C237.596 106.4 237.517 106.184 237.36 106.031C237.204 105.877 236.972 105.8 236.663 105.8C236.341 105.8 236.088 105.872 235.902 106.015C235.719 106.155 235.592 106.312 235.522 106.484L234.624 106.28C234.731 105.982 234.886 105.741 235.091 105.558C235.297 105.372 235.535 105.238 235.803 105.155C236.072 105.07 236.354 105.027 236.65 105.027C236.846 105.027 237.054 105.05 237.274 105.097C237.495 105.142 237.702 105.225 237.894 105.347C238.087 105.468 238.246 105.642 238.37 105.868C238.493 106.091 238.555 106.382 238.555 106.74V110H237.622V109.329H237.584C237.522 109.452 237.429 109.574 237.305 109.693C237.182 109.812 237.023 109.912 236.829 109.99C236.635 110.069 236.403 110.109 236.133 110.109ZM236.34 109.342C236.604 109.342 236.83 109.289 237.018 109.185C237.207 109.081 237.351 108.944 237.449 108.776C237.549 108.605 237.6 108.423 237.6 108.229V107.597C237.565 107.631 237.499 107.663 237.401 107.692C237.305 107.72 237.196 107.745 237.072 107.766C236.949 107.785 236.828 107.803 236.711 107.82C236.594 107.835 236.496 107.848 236.417 107.859C236.232 107.882 236.062 107.922 235.909 107.977C235.758 108.032 235.636 108.112 235.544 108.217C235.455 108.319 235.41 108.455 235.41 108.626C235.41 108.862 235.498 109.041 235.672 109.163C235.847 109.282 236.07 109.342 236.34 109.342ZM239.828 110V105.091H240.784V110H239.828ZM240.311 104.333C240.144 104.333 240.002 104.278 239.882 104.167C239.765 104.054 239.706 103.92 239.706 103.765C239.706 103.607 239.765 103.473 239.882 103.362C240.002 103.249 240.144 103.192 240.311 103.192C240.477 103.192 240.618 103.249 240.736 103.362C240.855 103.473 240.915 103.607 240.915 103.765C240.915 103.92 240.855 104.054 240.736 104.167C240.618 104.278 240.477 104.333 240.311 104.333ZM243.025 103.455V110H242.069V103.455H243.025ZM245.739 110.109C245.428 110.109 245.147 110.051 244.895 109.936C244.644 109.819 244.445 109.65 244.298 109.428C244.153 109.206 244.08 108.935 244.08 108.613C244.08 108.336 244.134 108.108 244.24 107.929C244.347 107.75 244.49 107.608 244.672 107.504C244.853 107.4 245.055 107.321 245.279 107.267C245.502 107.214 245.73 107.174 245.963 107.146C246.257 107.112 246.495 107.084 246.679 107.063C246.862 107.039 246.995 107.002 247.078 106.951C247.161 106.9 247.203 106.817 247.203 106.702V106.679C247.203 106.4 247.124 106.184 246.966 106.031C246.811 105.877 246.578 105.8 246.27 105.8C245.948 105.8 245.694 105.872 245.509 106.015C245.326 106.155 245.199 106.312 245.129 106.484L244.23 106.28C244.337 105.982 244.493 105.741 244.697 105.558C244.904 105.372 245.141 105.238 245.41 105.155C245.678 105.07 245.961 105.027 246.257 105.027C246.453 105.027 246.661 105.05 246.88 105.097C247.102 105.142 247.308 105.225 247.5 105.347C247.694 105.468 247.853 105.642 247.976 105.868C248.1 106.091 248.162 106.382 248.162 106.74V110H247.228V109.329H247.19C247.128 109.452 247.036 109.574 246.912 109.693C246.788 109.812 246.63 109.912 246.436 109.99C246.242 110.069 246.01 110.109 245.739 110.109ZM245.947 109.342C246.211 109.342 246.437 109.289 246.624 109.185C246.814 109.081 246.958 108.944 247.056 108.776C247.156 108.605 247.206 108.423 247.206 108.229V107.597C247.172 107.631 247.106 107.663 247.008 107.692C246.912 107.72 246.802 107.745 246.679 107.766C246.555 107.785 246.435 107.803 246.317 107.82C246.2 107.835 246.102 107.848 246.023 107.859C245.838 107.882 245.669 107.922 245.515 107.977C245.364 108.032 245.243 108.112 245.151 108.217C245.061 108.319 245.017 108.455 245.017 108.626C245.017 108.862 245.104 109.041 245.279 109.163C245.453 109.282 245.676 109.342 245.947 109.342ZM249.511 110V103.455H250.467V105.887H250.524C250.58 105.784 250.66 105.666 250.764 105.532C250.868 105.398 251.013 105.281 251.199 105.18C251.384 105.078 251.629 105.027 251.934 105.027C252.33 105.027 252.684 105.127 252.995 105.327C253.306 105.528 253.55 105.816 253.727 106.194C253.906 106.571 253.995 107.025 253.995 107.555C253.995 108.086 253.907 108.54 253.73 108.92C253.553 109.297 253.31 109.588 253.001 109.792C252.692 109.995 252.34 110.096 251.943 110.096C251.645 110.096 251.401 110.046 251.211 109.946C251.024 109.846 250.877 109.728 250.77 109.594C250.664 109.46 250.582 109.341 250.524 109.236H250.444V110H249.511ZM250.448 107.545C250.448 107.891 250.498 108.193 250.598 108.453C250.698 108.713 250.843 108.917 251.032 109.064C251.222 109.208 251.454 109.281 251.729 109.281C252.015 109.281 252.253 109.205 252.445 109.054C252.637 108.901 252.782 108.693 252.88 108.431C252.98 108.169 253.03 107.874 253.03 107.545C253.03 107.222 252.981 106.931 252.883 106.673C252.787 106.415 252.642 106.212 252.448 106.062C252.256 105.913 252.017 105.839 251.729 105.839C251.452 105.839 251.218 105.91 251.026 106.053C250.836 106.196 250.693 106.395 250.595 106.651C250.497 106.906 250.448 107.205 250.448 107.545ZM256.024 103.455V110H255.068V103.455H256.024ZM259.425 110.099C258.941 110.099 258.525 109.996 258.176 109.789C257.828 109.58 257.56 109.287 257.37 108.91C257.183 108.531 257.089 108.087 257.089 107.577C257.089 107.075 257.183 106.631 257.37 106.248C257.56 105.864 257.824 105.565 258.163 105.35C258.504 105.135 258.902 105.027 259.358 105.027C259.635 105.027 259.903 105.073 260.163 105.164C260.423 105.256 260.657 105.4 260.863 105.596C261.07 105.792 261.233 106.047 261.352 106.36C261.472 106.671 261.531 107.049 261.531 107.494V107.833H257.629V107.117H260.595C260.595 106.866 260.544 106.643 260.441 106.449C260.339 106.253 260.195 106.099 260.01 105.986C259.827 105.873 259.612 105.816 259.364 105.816C259.096 105.816 258.862 105.882 258.661 106.015C258.463 106.145 258.31 106.315 258.201 106.526C258.095 106.735 258.041 106.962 258.041 107.207V107.766C258.041 108.094 258.099 108.373 258.214 108.603C258.331 108.833 258.494 109.009 258.703 109.131C258.912 109.25 259.156 109.31 259.435 109.31C259.616 109.31 259.781 109.284 259.93 109.233C260.079 109.18 260.208 109.101 260.317 108.996C260.426 108.892 260.509 108.763 260.566 108.61L261.471 108.773C261.398 109.039 261.268 109.272 261.081 109.473C260.895 109.671 260.662 109.825 260.381 109.936C260.102 110.045 259.783 110.099 259.425 110.099Z" fill="#898989"/>
<path d="M65.272 49H64.2237L66.5792 42.4545H67.7202L70.0756 49H69.0273L67.1768 43.6435H67.1257L65.272 49ZM65.4478 46.4368H68.8484V47.2678H65.4478V46.4368ZM70.9442 49V44.0909H71.8678V44.8707H71.9189C72.0084 44.6065 72.1661 44.3988 72.392 44.2475C72.6199 44.0941 72.8778 44.0174 73.1654 44.0174C73.2251 44.0174 73.2954 44.0195 73.3763 44.0238C73.4594 44.0281 73.5244 44.0334 73.5713 44.0398V44.9538C73.5329 44.9432 73.4648 44.9315 73.3667 44.9187C73.2687 44.9038 73.1707 44.8963 73.0727 44.8963C72.8469 44.8963 72.6455 44.9442 72.4687 45.0401C72.2939 45.1339 72.1555 45.2649 72.0532 45.4332C71.9509 45.5994 71.8998 45.7891 71.8998 46.0021V49H70.9442ZM76.3382 49.0991C75.8546 49.0991 75.438 48.9957 75.0886 48.7891C74.7413 48.5803 74.4728 48.2873 74.2832 47.9102C74.0957 47.5309 74.002 47.0866 74.002 46.5774C74.002 46.0746 74.0957 45.6314 74.2832 45.2479C74.4728 44.8643 74.737 44.565 75.0758 44.3498C75.4167 44.1346 75.8152 44.027 76.2711 44.027C76.5481 44.027 76.8166 44.0728 77.0765 44.1644C77.3365 44.256 77.5698 44.3999 77.7765 44.5959C77.9831 44.7919 78.1461 45.0465 78.2654 45.3597C78.3848 45.6708 78.4444 46.049 78.4444 46.4943V46.8331H74.5421V46.1172H77.508C77.508 45.8658 77.4569 45.6431 77.3546 45.4492C77.2523 45.2532 77.1085 45.0987 76.9231 44.9858C76.7399 44.8729 76.5247 44.8164 76.2775 44.8164C76.0091 44.8164 75.7747 44.8825 75.5744 45.0146C75.3762 45.1445 75.2228 45.315 75.1142 45.5259C75.0076 45.7347 74.9544 45.9616 74.9544 46.2067V46.766C74.9544 47.0941 75.0119 47.3732 75.127 47.6033C75.2441 47.8335 75.4071 48.0092 75.6159 48.1307C75.8248 48.25 76.0687 48.3097 76.3478 48.3097C76.5289 48.3097 76.6941 48.2841 76.8432 48.233C76.9924 48.1797 77.1213 48.1009 77.2299 47.9964C77.3386 47.892 77.4217 47.7631 77.4792 47.6097L78.3837 47.7727C78.3113 48.0391 78.1813 48.2724 77.9938 48.4727C77.8084 48.6708 77.5751 48.8253 77.2939 48.9361C77.0147 49.0447 76.6962 49.0991 76.3382 49.0991ZM80.9333 49.1087C80.6222 49.1087 80.341 49.0511 80.0896 48.9361C79.8382 48.8189 79.6389 48.6495 79.4919 48.4279C79.347 48.2063 79.2746 47.9347 79.2746 47.6129C79.2746 47.3359 79.3279 47.108 79.4344 46.929C79.5409 46.75 79.6847 46.6083 79.8659 46.5039C80.047 46.3995 80.2494 46.3207 80.4731 46.2674C80.6968 46.2141 80.9248 46.1737 81.157 46.146C81.4511 46.1119 81.6897 46.0842 81.873 46.0629C82.0562 46.0394 82.1894 46.0021 82.2725 45.951C82.3556 45.8999 82.3971 45.8168 82.3971 45.7017V45.6793C82.3971 45.4002 82.3183 45.1839 82.1606 45.0305C82.0051 44.8771 81.7728 44.8004 81.4639 44.8004C81.1421 44.8004 80.8886 44.8718 80.7032 45.0146C80.52 45.1552 80.3932 45.3118 80.3229 45.4844L79.4248 45.2798C79.5313 44.9815 79.6869 44.7408 79.8914 44.5575C80.0981 44.3722 80.3357 44.2379 80.6041 44.1548C80.8726 44.0696 81.1549 44.027 81.4511 44.027C81.6471 44.027 81.8548 44.0504 82.0743 44.0973C82.2959 44.142 82.5026 44.2251 82.6943 44.3466C82.8882 44.468 83.047 44.6417 83.1705 44.8675C83.2941 45.0913 83.3559 45.3821 83.3559 45.7401V49H82.4227V48.3288H82.3843C82.3225 48.4524 82.2298 48.5739 82.1063 48.6932C81.9827 48.8125 81.824 48.9116 81.6301 48.9904C81.4362 49.0692 81.2039 49.1087 80.9333 49.1087ZM81.1411 48.3416C81.4053 48.3416 81.6311 48.2894 81.8186 48.185C82.0083 48.0806 82.1521 47.9442 82.2501 47.7759C82.3502 47.6055 82.4003 47.4233 82.4003 47.2294V46.5966C82.3662 46.6307 82.3002 46.6626 82.2021 46.6925C82.1063 46.7202 81.9965 46.7447 81.873 46.766C81.7494 46.7852 81.629 46.8033 81.5118 46.8203C81.3946 46.8352 81.2966 46.848 81.2178 46.8587C81.0324 46.8821 80.863 46.9215 80.7096 46.9769C80.5583 47.0323 80.4369 47.1122 80.3453 47.2166C80.2558 47.3189 80.211 47.4553 80.211 47.6257C80.211 47.8622 80.2984 48.0412 80.4731 48.1626C80.6478 48.282 80.8705 48.3416 81.1411 48.3416Z" fill="#898989"/>
<rect x="192" y="45" width="33" height="14" fill="white"/>
<circle cx="207.5" cy="51.5" r="33" fill="white" stroke="#32B8DC" stroke-width="19"/>
<mask id="path-5-inside-1_10_15" fill="white">
<path d="M250 51.5C250 45.9188 248.901 40.3923 246.765 35.236C244.629 30.0796 241.499 25.3945 237.552 21.448L207.5 51.5H250Z"/>
</mask>
<path d="M250 51.5C250 45.9188 248.901 40.3923 246.765 35.236C244.629 30.0796 241.499 25.3945 237.552 21.448L207.5 51.5H250Z" stroke="#157F9B" stroke-width="38" mask="url(#path-5-inside-1_10_15)"/>
<circle cx="208" cy="52" r="24" fill="white"/>
<path d="M199.325 48.2727V57H197.744V49.8111H197.693L195.652 51.1151V49.6662L197.821 48.2727H199.325ZM204.643 57.1193C204.01 57.1193 203.447 57.0128 202.956 56.7997C202.467 56.5866 202.084 56.2955 201.805 55.9261C201.53 55.554 201.393 55.1321 201.396 54.6605C201.393 54.294 201.473 53.9574 201.635 53.6506C201.797 53.3438 202.016 53.0881 202.291 52.8835C202.57 52.6761 202.879 52.544 203.22 52.4872V52.4276C202.771 52.3281 202.408 52.0994 202.129 51.7415C201.854 51.3807 201.717 50.9645 201.72 50.4929C201.717 50.044 201.842 49.6435 202.095 49.2912C202.348 48.9389 202.695 48.6619 203.135 48.4602C203.575 48.2557 204.078 48.1534 204.643 48.1534C205.203 48.1534 205.702 48.2557 206.139 48.4602C206.58 48.6619 206.926 48.9389 207.179 49.2912C207.435 49.6435 207.562 50.044 207.562 50.4929C207.562 50.9645 207.422 51.3807 207.141 51.7415C206.862 52.0994 206.503 52.3281 206.062 52.4276V52.4872C206.403 52.544 206.71 52.6761 206.983 52.8835C207.259 53.0881 207.477 53.3438 207.639 53.6506C207.804 53.9574 207.886 54.294 207.886 54.6605C207.886 55.1321 207.747 55.554 207.469 55.9261C207.19 56.2955 206.807 56.5866 206.318 56.7997C205.832 57.0128 205.274 57.1193 204.643 57.1193ZM204.643 55.9006C204.97 55.9006 205.254 55.8452 205.496 55.7344C205.737 55.6207 205.925 55.4616 206.058 55.2571C206.192 55.0526 206.26 54.8168 206.263 54.5497C206.26 54.2713 206.188 54.0256 206.045 53.8125C205.906 53.5966 205.714 53.4276 205.47 53.3054C205.229 53.1832 204.953 53.1222 204.643 53.1222C204.331 53.1222 204.053 53.1832 203.808 53.3054C203.564 53.4276 203.371 53.5966 203.229 53.8125C203.089 54.0256 203.021 54.2713 203.024 54.5497C203.021 54.8168 203.087 55.0526 203.22 55.2571C203.354 55.4588 203.541 55.6165 203.783 55.7301C204.027 55.8437 204.314 55.9006 204.643 55.9006ZM204.643 51.9247C204.911 51.9247 205.146 51.8707 205.351 51.7628C205.558 51.6548 205.722 51.5043 205.841 51.3111C205.96 51.1179 206.021 50.8949 206.024 50.642C206.021 50.392 205.962 50.1733 205.845 49.9858C205.729 49.7955 205.567 49.6491 205.359 49.5469C205.152 49.4418 204.913 49.3892 204.643 49.3892C204.368 49.3892 204.125 49.4418 203.915 49.5469C203.707 49.6491 203.545 49.7955 203.429 49.9858C203.315 50.1733 203.26 50.392 203.263 50.642C203.26 50.8949 203.317 51.1179 203.433 51.3111C203.553 51.5014 203.716 51.652 203.923 51.7628C204.134 51.8707 204.374 51.9247 204.643 51.9247ZM213.953 55.3636V54.9034C213.953 54.5653 214.025 54.2543 214.167 53.9702C214.311 53.6861 214.522 53.4574 214.797 53.2841C215.073 53.1108 215.407 53.0241 215.799 53.0241C216.202 53.0241 216.54 53.1108 216.813 53.2841C217.086 53.4545 217.292 53.6818 217.431 53.9659C217.573 54.25 217.644 54.5625 217.644 54.9034V55.3636C217.644 55.7017 217.573 56.0128 217.431 56.2969C217.289 56.581 217.08 56.8097 216.804 56.983C216.532 57.1563 216.196 57.2429 215.799 57.2429C215.401 57.2429 215.064 57.1563 214.789 56.983C214.513 56.8097 214.304 56.581 214.162 56.2969C214.023 56.0128 213.953 55.7017 213.953 55.3636ZM215.066 54.9034V55.3636C215.066 55.5881 215.12 55.794 215.228 55.9815C215.336 56.169 215.526 56.2628 215.799 56.2628C216.074 56.2628 216.263 56.1705 216.365 55.9858C216.471 55.7983 216.523 55.5909 216.523 55.3636V54.9034C216.523 54.6761 216.473 54.4688 216.374 54.2812C216.275 54.0909 216.083 53.9957 215.799 53.9957C215.532 53.9957 215.343 54.0909 215.232 54.2812C215.121 54.4688 215.066 54.6761 215.066 54.9034ZM209.517 50.3693V49.9091C209.517 49.5682 209.59 49.2557 209.735 48.9716C209.88 48.6875 210.09 48.4602 210.365 48.2898C210.641 48.1165 210.975 48.0298 211.367 48.0298C211.767 48.0298 212.104 48.1165 212.377 48.2898C212.652 48.4602 212.86 48.6875 212.999 48.9716C213.138 49.2557 213.208 49.5682 213.208 49.9091V50.3693C213.208 50.7102 213.137 51.0227 212.995 51.3068C212.855 51.5881 212.648 51.8139 212.373 51.9844C212.097 52.1548 211.762 52.2401 211.367 52.2401C210.966 52.2401 210.628 52.1548 210.353 51.9844C210.08 51.8139 209.873 51.5866 209.73 51.3026C209.588 51.0185 209.517 50.7074 209.517 50.3693ZM210.638 49.9091V50.3693C210.638 50.5966 210.691 50.804 210.796 50.9915C210.904 51.1761 211.094 51.2685 211.367 51.2685C211.64 51.2685 211.827 51.1761 211.929 50.9915C212.034 50.804 212.087 50.5966 212.087 50.3693V49.9091C212.087 49.6818 212.037 49.4744 211.938 49.2869C211.838 49.0966 211.648 49.0014 211.367 49.0014C211.097 49.0014 210.908 49.0966 210.8 49.2869C210.692 49.4773 210.638 49.6847 210.638 49.9091ZM210.003 57L216.003 48.2727H217.069L211.069 57H210.003Z" fill="#898989"/>
<path d="M54.3253 57.2727V66H52.7443V58.8111H52.6932L50.652 60.1151V58.6662L52.821 57.2727H54.3253ZM56.5412 66V64.858L59.571 61.8878C59.8608 61.5952 60.1023 61.3352 60.2955 61.108C60.4886 60.8807 60.6335 60.6605 60.7301 60.4474C60.8267 60.2344 60.875 60.0071 60.875 59.7656C60.875 59.4901 60.8125 59.2543 60.6875 59.0582C60.5625 58.8594 60.3906 58.706 60.1719 58.598C59.9531 58.4901 59.7045 58.4361 59.4261 58.4361C59.1392 58.4361 58.8878 58.4957 58.6719 58.6151C58.456 58.7315 58.2884 58.8977 58.169 59.1136C58.0526 59.3295 57.9943 59.5866 57.9943 59.8849H56.4901C56.4901 59.331 56.6165 58.8494 56.8693 58.4403C57.1222 58.0312 57.4702 57.7145 57.9134 57.4901C58.3594 57.2656 58.8707 57.1534 59.4474 57.1534C60.0327 57.1534 60.5469 57.2628 60.9901 57.4815C61.4332 57.7003 61.777 58 62.0213 58.3807C62.2685 58.7614 62.392 59.196 62.392 59.6847C62.392 60.0114 62.3295 60.3324 62.2045 60.6477C62.0795 60.9631 61.8594 61.3125 61.544 61.696C61.2315 62.0795 60.7926 62.544 60.2273 63.0895L58.723 64.6193V64.679H62.5241V66H56.5412ZM63.6491 64.3807V63.1236L67.3523 57.2727H68.4006V59.0625H67.7614L65.2685 63.0128V63.081H70.4375V64.3807H63.6491ZM67.8125 66V63.9972L67.8295 63.4347V57.2727H69.321V66H67.8125ZM79.6037 59.6719C79.5639 59.2997 79.3963 59.0099 79.1009 58.8026C78.8082 58.5952 78.4276 58.4915 77.9588 58.4915C77.6293 58.4915 77.3466 58.5412 77.1108 58.6406C76.875 58.7401 76.6946 58.875 76.5696 59.0455C76.4446 59.2159 76.3807 59.4105 76.3778 59.6293C76.3778 59.8111 76.419 59.9687 76.5014 60.1023C76.5866 60.2358 76.7017 60.3494 76.8466 60.4432C76.9915 60.5341 77.152 60.6108 77.3281 60.6733C77.5043 60.7358 77.6818 60.7884 77.8608 60.831L78.679 61.0355C79.0085 61.1122 79.3253 61.2159 79.6293 61.3466C79.9361 61.4773 80.2102 61.642 80.4517 61.8409C80.696 62.0398 80.8892 62.2798 81.0312 62.5611C81.1733 62.8423 81.2443 63.1719 81.2443 63.5497C81.2443 64.0611 81.1136 64.5114 80.8523 64.9006C80.5909 65.2869 80.2131 65.5895 79.7188 65.8082C79.2273 66.0241 78.6321 66.1321 77.9332 66.1321C77.2543 66.1321 76.6648 66.027 76.1648 65.8168C75.6676 65.6065 75.2784 65.2997 74.9972 64.8963C74.7188 64.4929 74.5682 64.0014 74.5455 63.4219H76.1009C76.1236 63.7259 76.2173 63.9787 76.3821 64.1804C76.5469 64.3821 76.7614 64.5327 77.0256 64.6321C77.2926 64.7315 77.5909 64.7812 77.9205 64.7812C78.2642 64.7812 78.5653 64.7301 78.8239 64.6278C79.0852 64.5227 79.2898 64.3778 79.4375 64.1932C79.5852 64.0057 79.6605 63.7869 79.6634 63.5369C79.6605 63.3097 79.5938 63.1222 79.4631 62.9744C79.3324 62.8239 79.1491 62.6989 78.9134 62.5994C78.6804 62.4972 78.4077 62.4062 78.0952 62.3267L77.1023 62.071C76.3835 61.8864 75.8153 61.6065 75.3977 61.2315C74.983 60.8537 74.7756 60.3523 74.7756 59.7273C74.7756 59.2131 74.9148 58.7628 75.1932 58.3764C75.4744 57.9901 75.8565 57.6903 76.3395 57.4773C76.8224 57.2614 77.3693 57.1534 77.9801 57.1534C78.5994 57.1534 79.142 57.2614 79.608 57.4773C80.0767 57.6903 80.4446 57.9872 80.7116 58.3679C80.9787 58.7457 81.1165 59.1804 81.125 59.6719H79.6037ZM85.9052 63.0682H87.337L88.185 64.1676L88.7901 64.8835L90.2433 66.75H88.7092L87.7205 65.4972L87.2987 64.9006L85.9052 63.0682ZM90.4521 61.6364C90.4521 62.5767 90.2759 63.3821 89.9237 64.0526C89.5742 64.7202 89.0969 65.2315 88.4918 65.5866C87.8896 65.9418 87.2063 66.1193 86.4421 66.1193C85.6779 66.1193 84.9933 65.9418 84.3881 65.5866C83.7859 65.2287 83.3086 64.7159 82.9563 64.0483C82.6069 63.3778 82.4322 62.5739 82.4322 61.6364C82.4322 60.696 82.6069 59.892 82.9563 59.2244C83.3086 58.554 83.7859 58.0412 84.3881 57.6861C84.9933 57.331 85.6779 57.1534 86.4421 57.1534C87.2063 57.1534 87.8896 57.331 88.4918 57.6861C89.0969 58.0412 89.5742 58.554 89.9237 59.2244C90.2759 59.892 90.4521 60.696 90.4521 61.6364ZM88.8626 61.6364C88.8626 60.9744 88.7589 60.4162 88.5515 59.9616C88.3469 59.5043 88.0629 59.1591 87.6992 58.9261C87.3356 58.6903 86.9165 58.5724 86.4421 58.5724C85.9677 58.5724 85.5487 58.6903 85.185 58.9261C84.8214 59.1591 84.5359 59.5043 84.3285 59.9616C84.1239 60.4162 84.0217 60.9744 84.0217 61.6364C84.0217 62.2983 84.1239 62.858 84.3285 63.3153C84.5359 63.7699 84.8214 64.1151 85.185 64.3509C85.5487 64.5838 85.9677 64.7003 86.4421 64.7003C86.9165 64.7003 87.3356 64.5838 87.6992 64.3509C88.0629 64.1151 88.3469 63.7699 88.5515 63.3153C88.7589 62.858 88.8626 62.2983 88.8626 61.6364ZM91.9585 66V57.2727H93.5394V61.2827H93.646L97.0508 57.2727H98.9812L95.6062 61.1889L99.011 66H97.1104L94.5067 62.2585L93.5394 63.4006V66H91.9585Z" fill="#898989"/>
<path d="M31 88V44.344L46.7766 25.5924L92.0423 19L124.923 52.5478L132 78.7707L107.377 88H31Z" stroke="#157F9B" stroke-width="3"/>
</svg>
