<svg width="50" height="50" viewBox="0 0 50 50" fill="none" xmlns="http://www.w3.org/2000/svg">
<path d="M28.2432 25.2223C28.2432 27.1378 26.685 28.696 24.7695 28.696C22.854 28.696 21.2964 27.1378 21.2964 25.2223C21.2964 23.3068 22.854 21.7486 24.7695 21.7486C26.685 21.7486 28.2432 23.3074 28.2432 25.2223ZM35.539 20.2898V30.156C35.539 31.4713 34.4726 32.5377 33.1573 32.5377H16.3817C15.0664 32.5377 14 31.4713 14 30.156V20.2898C14 18.9745 15.0664 17.9081 16.3817 17.9081H19.3112V17.084C19.3112 15.933 20.2437 15 21.3952 15H28.1438C29.2953 15 30.2278 15.933 30.2278 17.084V17.9075H33.1573C34.4726 17.9081 35.539 18.9745 35.539 20.2898ZM30.0295 25.2223C30.0295 22.322 27.6698 19.9623 24.7695 19.9623C21.8698 19.9623 19.5101 22.322 19.5101 25.2223C19.5101 28.1226 21.8698 30.4823 24.7695 30.4823C27.6698 30.4823 30.0295 28.1226 30.0295 25.2223Z" fill="white"/>
<path d="M45.8154 19.7461C45.2485 18.117 44.4235 16.5967 43.3632 15.2272C43.1651 14.9714 42.7971 14.9245 42.5412 15.1226C42.2854 15.3208 42.2385 15.6888 42.4366 15.9447C43.4191 17.2136 44.1835 18.6222 44.7086 20.1313C45.2519 21.6924 45.5273 23.3305 45.5273 25C45.5273 26.6695 45.2519 28.3075 44.7086 29.8688C44.1835 31.3779 43.4191 32.7864 42.4366 34.0553C42.2385 34.3112 42.2853 34.6793 42.5412 34.8774C42.795 35.0744 43.1641 35.03 43.3632 34.7728C44.4235 33.4034 45.2485 31.883 45.8154 30.2539C46.4018 28.5686 46.6992 26.8009 46.6992 25C46.6992 23.1991 46.4018 21.4315 45.8154 19.7461Z" fill="white"/>
<path d="M41.206 17.5705C41.0078 17.3146 40.6398 17.2678 40.3839 17.466C40.1281 17.6641 40.0813 18.0321 40.2794 18.288C41.7782 20.2232 42.5704 22.544 42.5704 24.9993C42.5704 27.4546 41.7782 29.7754 40.2794 31.7107C40.0813 31.9665 40.1281 32.3346 40.3839 32.5327C40.6377 32.7298 41.0068 32.6854 41.206 32.4282C42.8653 30.2857 43.7423 27.7169 43.7423 24.9993C43.7423 22.2818 42.8652 19.713 41.206 17.5705Z" fill="white"/>
<path d="M38.2269 19.8099C37.9712 20.0082 37.9246 20.3763 38.1229 20.632C39.0984 21.8901 39.614 23.4003 39.614 24.9992C39.614 26.5981 39.0984 28.1082 38.1229 29.3663C37.9246 29.622 37.9712 29.9901 38.2269 30.1884C38.4806 30.3856 38.8497 30.3415 39.049 30.0844C40.1853 28.6189 40.7859 26.8604 40.7859 24.9991C40.7859 23.1378 40.1853 21.3794 39.049 19.9139C38.8507 19.6582 38.4827 19.6116 38.2269 19.8099Z" fill="white"/>
<path d="M3.88385 30.2539C4.45073 31.883 5.27577 33.4033 6.336 34.7728C6.53409 35.0286 6.90209 35.0755 7.15799 34.8774C7.41385 34.6792 7.46069 34.3112 7.2626 34.0553C6.28014 32.7864 5.51573 31.3778 4.99061 29.8687C4.44737 28.3076 4.17194 26.6695 4.17194 25C4.17194 23.3305 4.44737 21.6925 4.99061 20.1312C5.51573 18.6221 6.28014 17.2136 7.2626 15.9447C7.46069 15.6888 7.41389 15.3207 7.15799 15.1226C6.9042 14.9256 6.5351 14.97 6.336 15.2272C5.27573 16.5966 4.45073 18.117 3.88386 19.7461C3.29741 21.4314 3.00007 23.1991 3.00007 25C3.00007 26.8009 3.29741 28.5685 3.88385 30.2539Z" fill="white"/>
<path d="M8.49326 32.4295C8.69142 32.6854 9.05943 32.7322 9.31529 32.534C9.57115 32.3359 9.6179 31.9679 9.41978 31.712C7.92099 29.7768 7.1288 27.456 7.1288 25.0007C7.1288 22.5454 7.92099 20.2246 9.41978 18.2893C9.61791 18.0335 9.57115 17.6654 9.31529 17.4673C9.06154 17.2702 8.69244 17.3146 8.49326 17.5718C6.83396 19.7143 5.95693 22.2831 5.95693 25.0007C5.95693 27.7182 6.834 30.287 8.49326 32.4295Z" fill="white"/>
<path d="M11.4723 30.1901C11.728 29.9918 11.7746 29.6237 11.5763 29.368C10.6008 28.1099 10.0852 26.5997 10.0852 25.0008C10.0852 23.4019 10.6008 21.8918 11.5763 20.6337C11.7746 20.378 11.728 20.0099 11.4723 19.8116C11.2187 19.6144 10.8495 19.6585 10.6502 19.9156C9.51397 21.3811 8.91334 23.1396 8.91334 25.0009C8.91334 26.8622 9.51393 28.6206 10.6502 30.0861C10.8485 30.3418 11.2165 30.3884 11.4723 30.1901Z" fill="white"/>
</svg>
