<svg width="50" height="50" viewBox="0 0 50 50" fill="none" xmlns="http://www.w3.org/2000/svg">
<g clip-path="url(#clip0_20_18)">
<circle cx="25" cy="25" r="25" fill="#9BE938"/>
<path d="M27.64 24.9535C27.64 26.4439 26.4276 27.6562 24.9373 27.6562C23.4469 27.6562 22.235 26.4439 22.235 24.9535C22.235 23.4632 23.4469 22.2508 24.9373 22.2508C26.4276 22.2508 27.64 23.4637 27.64 24.9535ZM33.3164 21.1158V28.7922C33.3164 29.8155 32.4867 30.6452 31.4633 30.6452H18.4112C17.3878 30.6452 16.5581 29.8155 16.5581 28.7922V21.1158C16.5581 20.0924 17.3878 19.2627 18.4112 19.2627H20.6905V18.6216C20.6905 17.7261 21.4159 17.0001 22.3119 17.0001H27.5626C28.4586 17.0001 29.184 17.7261 29.184 18.6216V19.2623H31.4633C32.4867 19.2627 33.3164 20.0924 33.3164 21.1158ZM29.0298 24.9535C29.0298 22.6969 27.1938 20.861 24.9373 20.861C22.6811 20.861 20.8452 22.6969 20.8452 24.9535C20.8452 27.2101 22.6811 29.046 24.9373 29.046C27.1938 29.046 29.0298 27.2101 29.0298 24.9535Z" fill="white"/>
<path d="M41.3121 20.6928C40.8711 19.4253 40.2292 18.2424 39.4043 17.1769C39.2501 16.9779 38.9638 16.9414 38.7647 17.0955C38.5656 17.2497 38.5292 17.536 38.6833 17.7351C39.4477 18.7224 40.0425 19.8183 40.451 20.9925C40.8737 22.2071 41.088 23.4816 41.088 24.7806C41.088 26.0795 40.8737 27.354 40.451 28.5687C40.0425 29.7428 39.4477 30.8388 38.6833 31.826C38.5292 32.0251 38.5656 32.3114 38.7647 32.4656C38.9622 32.6189 39.2493 32.5844 39.4043 32.3842C40.2292 31.3187 40.8711 30.1358 41.3121 28.8683C41.7684 27.5571 41.9998 26.1817 41.9998 24.7806C41.9998 23.3794 41.7684 22.0041 41.3121 20.6928Z" fill="white"/>
<path d="M37.726 19.0001C37.5718 18.8011 37.2855 18.7647 37.0864 18.9188C36.8874 19.073 36.851 19.3593 37.0051 19.5584C38.1713 21.0641 38.7876 22.8698 38.7876 24.7801C38.7876 26.6905 38.1713 28.4961 37.0051 30.0018C36.851 30.2009 36.8874 30.4873 37.0864 30.6414C37.2839 30.7948 37.571 30.7602 37.726 30.5601C39.017 28.8932 39.6994 26.8945 39.6994 24.7801C39.6994 22.6658 39.017 20.6671 37.726 19.0001Z" fill="white"/>
<path d="M35.408 20.7425C35.209 20.8968 35.1728 21.1832 35.3271 21.3821C36.086 22.361 36.4872 23.5359 36.4872 24.7799C36.4872 26.024 36.086 27.1989 35.3271 28.1778C35.1728 28.3767 35.209 28.6631 35.408 28.8174C35.6053 28.9708 35.8926 28.9365 36.0476 28.7364C36.9317 27.5962 37.399 26.2281 37.399 24.7799C37.399 23.3317 36.9317 21.9636 36.0476 20.8234C35.8933 20.6245 35.607 20.5882 35.408 20.7425Z" fill="white"/>
<path d="M8.68738 28.8682C9.12843 30.1357 9.77035 31.3186 10.5953 32.3841C10.7494 32.5832 11.0357 32.6196 11.2348 32.4655C11.4339 32.3114 11.4703 32.025 11.3162 31.8259C10.5518 30.8387 9.95705 29.7427 9.54848 28.5686C9.12582 27.3539 8.91152 26.0794 8.91152 24.7805C8.91152 23.4815 9.12582 22.2071 9.54848 20.9924C9.95705 19.8182 10.5518 18.7223 11.3162 17.735C11.4703 17.5359 11.4339 17.2496 11.2348 17.0954C11.0373 16.9421 10.7502 16.9767 10.5953 17.1768C9.77032 18.2423 9.12843 19.4252 8.68738 20.6927C8.2311 22.004 7.99975 23.3793 7.99975 24.7805C7.99975 26.1816 8.2311 27.557 8.68738 28.8682Z" fill="white"/>
<path d="M12.2735 30.5609C12.4277 30.7599 12.714 30.7964 12.9131 30.6422C13.1121 30.4881 13.1485 30.2017 12.9944 30.0026C11.8283 28.4969 11.2119 26.6913 11.2119 24.7809C11.2119 22.8706 11.8283 21.0649 12.9944 19.5592C13.1485 19.3601 13.1121 19.0738 12.9131 18.9196C12.7156 18.7663 12.4285 18.8008 12.2735 19.0009C10.9825 20.6679 10.3001 22.6666 10.3001 24.7809C10.3001 26.8953 10.9825 28.8939 12.2735 30.5609Z" fill="white"/>
<path d="M14.5915 28.8185C14.7905 28.6643 14.8267 28.3779 14.6724 28.1789C13.9135 27.2001 13.5123 26.0251 13.5123 24.7811C13.5123 23.5371 13.9135 22.3621 14.6724 21.3833C14.8267 21.1843 14.7905 20.8979 14.5915 20.7437C14.3942 20.5902 14.107 20.6246 13.9519 20.8246C13.0678 21.9648 12.6005 23.3329 12.6005 24.7811C12.6005 26.2293 13.0678 27.5975 13.9519 28.7377C14.1062 28.9366 14.3925 28.9728 14.5915 28.8185Z" fill="white"/>
</g>
<defs>
<clipPath id="clip0_20_18">
<rect width="50" height="50" fill="white"/>
</clipPath>
</defs>
</svg>
