<svg width="285" height="123" viewBox="0 0 285 123" fill="none" xmlns="http://www.w3.org/2000/svg">
<rect width="285" height="123" fill="white"/>
<path d="M35.8396 27.0949L32.8717 66.708L21 74.9854L44.7433 101L95.7914 83.2628L102.914 90.9489L132 80.8978L99.9465 20L35.8396 27.0949Z" stroke="#157F9B" stroke-width="3"/>
<path d="M156.113 103.455V110H155.122V104.445H155.084L153.518 105.468V104.522L155.151 103.455H156.113ZM160.06 103.365C160.352 103.367 160.64 103.42 160.923 103.525C161.206 103.629 161.462 103.8 161.69 104.036C161.92 104.273 162.103 104.592 162.24 104.995C162.378 105.396 162.449 105.894 162.451 106.491C162.451 107.064 162.393 107.574 162.278 108.022C162.163 108.467 161.998 108.843 161.783 109.15C161.57 109.457 161.311 109.69 161.006 109.85C160.701 110.01 160.358 110.089 159.977 110.089C159.587 110.089 159.241 110.013 158.938 109.859C158.636 109.706 158.39 109.494 158.2 109.223C158.01 108.951 157.892 108.637 157.845 108.284H158.82C158.884 108.565 159.014 108.793 159.21 108.968C159.408 109.14 159.664 109.227 159.977 109.227C160.456 109.227 160.83 109.018 161.099 108.6C161.367 108.18 161.502 107.594 161.505 106.842H161.453C161.343 107.026 161.204 107.183 161.038 107.315C160.874 107.447 160.69 107.55 160.485 107.622C160.281 107.695 160.062 107.731 159.83 107.731C159.453 107.731 159.11 107.638 158.801 107.453C158.492 107.267 158.246 107.013 158.062 106.689C157.879 106.365 157.788 105.995 157.788 105.58C157.788 105.167 157.881 104.792 158.069 104.455C158.259 104.118 158.523 103.852 158.862 103.656C159.202 103.458 159.602 103.361 160.06 103.365ZM160.063 104.196C159.814 104.196 159.589 104.258 159.389 104.381C159.191 104.503 159.034 104.668 158.919 104.877C158.804 105.083 158.746 105.314 158.746 105.567C158.746 105.821 158.802 106.051 158.913 106.257C159.026 106.462 159.179 106.625 159.373 106.746C159.569 106.866 159.793 106.925 160.044 106.925C160.232 106.925 160.406 106.889 160.568 106.817C160.73 106.744 160.872 106.644 160.993 106.516C161.115 106.386 161.21 106.239 161.278 106.075C161.346 105.911 161.38 105.739 161.38 105.558C161.38 105.317 161.322 105.093 161.207 104.886C161.094 104.68 160.939 104.513 160.741 104.388C160.543 104.26 160.317 104.196 160.063 104.196ZM163.65 110L166.507 104.349V104.301H163.203V103.455H167.53V104.33L164.682 110H163.65ZM171.113 103.455H172.311L174.395 108.543H174.472L176.555 103.455H177.754V110H176.814V105.263H176.754L174.823 109.99H174.043L172.113 105.26H172.052V110H171.113V103.455ZM179.113 110V105.091H180.069V110H179.113ZM179.596 104.333C179.43 104.333 179.287 104.278 179.167 104.167C179.05 104.054 178.992 103.92 178.992 103.765C178.992 103.607 179.05 103.473 179.167 103.362C179.287 103.249 179.43 103.192 179.596 103.192C179.762 103.192 179.904 103.249 180.021 103.362C180.14 103.473 180.2 103.607 180.2 103.765C180.2 103.92 180.14 104.054 180.021 104.167C179.904 104.278 179.762 104.333 179.596 104.333ZM182.31 103.455V110H181.354V103.455H182.31ZM184.551 103.455V110H183.596V103.455H184.551ZM185.837 110V105.091H186.792V110H185.837ZM186.319 104.333C186.153 104.333 186.01 104.278 185.891 104.167C185.774 104.054 185.715 103.92 185.715 103.765C185.715 103.607 185.774 103.473 185.891 103.362C186.01 103.249 186.153 103.192 186.319 103.192C186.486 103.192 186.627 103.249 186.744 103.362C186.864 103.473 186.923 103.607 186.923 103.765C186.923 103.92 186.864 104.054 186.744 104.167C186.627 104.278 186.486 104.333 186.319 104.333ZM190.146 110.099C189.686 110.099 189.284 109.994 188.941 109.783C188.598 109.572 188.331 109.277 188.142 108.897C187.952 108.518 187.857 108.075 187.857 107.568C187.857 107.059 187.952 106.613 188.142 106.232C188.331 105.85 188.598 105.554 188.941 105.343C189.284 105.132 189.686 105.027 190.146 105.027C190.606 105.027 191.008 105.132 191.351 105.343C191.694 105.554 191.96 105.85 192.15 106.232C192.339 106.613 192.434 107.059 192.434 107.568C192.434 108.075 192.339 108.518 192.15 108.897C191.96 109.277 191.694 109.572 191.351 109.783C191.008 109.994 190.606 110.099 190.146 110.099ZM190.149 109.297C190.447 109.297 190.694 109.218 190.89 109.06C191.086 108.903 191.231 108.693 191.325 108.431C191.421 108.169 191.469 107.88 191.469 107.565C191.469 107.251 191.421 106.964 191.325 106.702C191.231 106.437 191.086 106.225 190.89 106.066C190.694 105.906 190.447 105.826 190.149 105.826C189.849 105.826 189.599 105.906 189.401 106.066C189.205 106.225 189.059 106.437 188.963 106.702C188.869 106.964 188.823 107.251 188.823 107.565C188.823 107.88 188.869 108.169 188.963 108.431C189.059 108.693 189.205 108.903 189.401 109.06C189.599 109.218 189.849 109.297 190.149 109.297ZM194.456 107.085V110H193.501V105.091H194.418V105.89H194.479C194.592 105.63 194.769 105.421 195.009 105.263C195.252 105.106 195.558 105.027 195.927 105.027C196.261 105.027 196.554 105.097 196.805 105.238C197.057 105.376 197.252 105.583 197.39 105.858C197.529 106.133 197.598 106.473 197.598 106.877V110H196.642V106.993C196.642 106.637 196.55 106.359 196.364 106.158C196.179 105.956 195.924 105.855 195.601 105.855C195.379 105.855 195.182 105.903 195.009 105.999C194.839 106.094 194.704 106.235 194.603 106.42C194.505 106.604 194.456 106.825 194.456 107.085ZM204.371 107.964V105.091H205.33V110H204.39V109.15H204.339C204.226 109.412 204.045 109.63 203.796 109.805C203.549 109.978 203.241 110.064 202.872 110.064C202.557 110.064 202.278 109.995 202.035 109.856C201.794 109.716 201.605 109.508 201.466 109.233C201.33 108.958 201.262 108.618 201.262 108.213V105.091H202.217V108.098C202.217 108.433 202.31 108.699 202.495 108.897C202.681 109.096 202.921 109.195 203.218 109.195C203.396 109.195 203.574 109.15 203.751 109.06C203.93 108.971 204.078 108.836 204.195 108.654C204.315 108.473 204.373 108.243 204.371 107.964ZM207.57 107.085V110H206.614V105.091H207.531V105.89H207.592C207.705 105.63 207.882 105.421 208.123 105.263C208.366 105.106 208.671 105.027 209.04 105.027C209.374 105.027 209.667 105.097 209.919 105.238C210.17 105.376 210.365 105.583 210.504 105.858C210.642 106.133 210.711 106.473 210.711 106.877V110H209.756V106.993C209.756 106.637 209.663 106.359 209.478 106.158C209.292 105.956 209.038 105.855 208.714 105.855C208.492 105.855 208.295 105.903 208.123 105.999C207.952 106.094 207.817 106.235 207.717 106.42C207.619 106.604 207.57 106.825 207.57 107.085ZM211.993 110V105.091H212.949V110H211.993ZM212.476 104.333C212.309 104.333 212.167 104.278 212.047 104.167C211.93 104.054 211.872 103.92 211.872 103.765C211.872 103.607 211.93 103.473 212.047 103.362C212.167 103.249 212.309 103.192 212.476 103.192C212.642 103.192 212.783 103.249 212.901 103.362C213.02 103.473 213.08 103.607 213.08 103.765C213.08 103.92 213.02 104.054 212.901 104.167C212.783 104.278 212.642 104.333 212.476 104.333ZM216.526 105.091V105.858H213.844V105.091H216.526ZM214.563 103.915H215.519V108.559C215.519 108.744 215.547 108.884 215.602 108.977C215.657 109.069 215.729 109.132 215.816 109.166C215.906 109.198 216.003 109.214 216.107 109.214C216.184 109.214 216.251 109.208 216.308 109.198C216.366 109.187 216.411 109.179 216.443 109.172L216.615 109.962C216.56 109.983 216.481 110.004 216.379 110.026C216.276 110.049 216.149 110.062 215.995 110.064C215.744 110.068 215.509 110.023 215.292 109.93C215.075 109.836 214.899 109.691 214.765 109.495C214.631 109.299 214.563 109.053 214.563 108.757V103.915ZM221.182 106.289L220.316 106.443C220.28 106.332 220.222 106.227 220.144 106.126C220.067 106.026 219.963 105.944 219.83 105.88C219.698 105.816 219.533 105.784 219.335 105.784C219.064 105.784 218.839 105.845 218.657 105.967C218.476 106.086 218.386 106.24 218.386 106.43C218.386 106.594 218.447 106.726 218.568 106.826C218.689 106.926 218.885 107.009 219.156 107.072L219.936 107.251C220.388 107.356 220.724 107.517 220.946 107.734C221.167 107.951 221.278 108.234 221.278 108.581C221.278 108.875 221.193 109.137 221.023 109.367C220.854 109.595 220.619 109.774 220.316 109.904C220.016 110.034 219.667 110.099 219.271 110.099C218.721 110.099 218.273 109.982 217.926 109.748C217.578 109.511 217.365 109.175 217.286 108.741L218.21 108.6C218.268 108.841 218.386 109.023 218.565 109.147C218.744 109.268 218.977 109.329 219.265 109.329C219.578 109.329 219.828 109.264 220.016 109.134C220.203 109.002 220.297 108.841 220.297 108.651C220.297 108.498 220.24 108.369 220.124 108.265C220.012 108.16 219.838 108.081 219.604 108.028L218.773 107.846C218.314 107.741 217.976 107.575 217.756 107.347C217.539 107.119 217.43 106.831 217.43 106.481C217.43 106.191 217.511 105.938 217.673 105.721C217.835 105.503 218.059 105.334 218.344 105.212C218.63 105.089 218.957 105.027 219.325 105.027C219.856 105.027 220.274 105.142 220.578 105.372C220.883 105.6 221.084 105.906 221.182 106.289ZM226.139 110.109C225.828 110.109 225.547 110.051 225.296 109.936C225.044 109.819 224.845 109.65 224.698 109.428C224.553 109.206 224.481 108.935 224.481 108.613C224.481 108.336 224.534 108.108 224.64 107.929C224.747 107.75 224.891 107.608 225.072 107.504C225.253 107.4 225.455 107.321 225.679 107.267C225.903 107.214 226.131 107.174 226.363 107.146C226.657 107.112 226.896 107.084 227.079 107.063C227.262 107.039 227.395 107.002 227.479 106.951C227.562 106.9 227.603 106.817 227.603 106.702V106.679C227.603 106.4 227.524 106.184 227.367 106.031C227.211 105.877 226.979 105.8 226.67 105.8C226.348 105.8 226.095 105.872 225.909 106.015C225.726 106.155 225.599 106.312 225.529 106.484L224.631 106.28C224.737 105.982 224.893 105.741 225.097 105.558C225.304 105.372 225.542 105.238 225.81 105.155C226.079 105.07 226.361 105.027 226.657 105.027C226.853 105.027 227.061 105.05 227.28 105.097C227.502 105.142 227.709 105.225 227.9 105.347C228.094 105.468 228.253 105.642 228.377 105.868C228.5 106.091 228.562 106.382 228.562 106.74V110H227.629V109.329H227.59C227.529 109.452 227.436 109.574 227.312 109.693C227.189 109.812 227.03 109.912 226.836 109.99C226.642 110.069 226.41 110.109 226.139 110.109ZM226.347 109.342C226.611 109.342 226.837 109.289 227.025 109.185C227.214 109.081 227.358 108.944 227.456 108.776C227.556 108.605 227.606 108.423 227.606 108.229V107.597C227.572 107.631 227.506 107.663 227.408 107.692C227.312 107.72 227.203 107.745 227.079 107.766C226.955 107.785 226.835 107.803 226.718 107.82C226.601 107.835 226.503 107.848 226.424 107.859C226.238 107.882 226.069 107.922 225.916 107.977C225.764 108.032 225.643 108.112 225.551 108.217C225.462 108.319 225.417 108.455 225.417 108.626C225.417 108.862 225.504 109.041 225.679 109.163C225.854 109.282 226.077 109.342 226.347 109.342ZM233.859 105.091L232.078 110H231.056L229.272 105.091H230.298L231.541 108.869H231.593L232.833 105.091H233.859ZM236.045 110.109C235.734 110.109 235.452 110.051 235.201 109.936C234.949 109.819 234.75 109.65 234.603 109.428C234.458 109.206 234.386 108.935 234.386 108.613C234.386 108.336 234.439 108.108 234.546 107.929C234.652 107.75 234.796 107.608 234.977 107.504C235.158 107.4 235.361 107.321 235.584 107.267C235.808 107.214 236.036 107.174 236.268 107.146C236.562 107.112 236.801 107.084 236.984 107.063C237.168 107.039 237.301 107.002 237.384 106.951C237.467 106.9 237.508 106.817 237.508 106.702V106.679C237.508 106.4 237.43 106.184 237.272 106.031C237.116 105.877 236.884 105.8 236.575 105.8C236.253 105.8 236 105.872 235.815 106.015C235.631 106.155 235.505 106.312 235.434 106.484L234.536 106.28C234.643 105.982 234.798 105.741 235.003 105.558C235.209 105.372 235.447 105.238 235.715 105.155C235.984 105.07 236.266 105.027 236.562 105.027C236.758 105.027 236.966 105.05 237.186 105.097C237.407 105.142 237.614 105.225 237.806 105.347C238 105.468 238.158 105.642 238.282 105.868C238.405 106.091 238.467 106.382 238.467 106.74V110H237.534V109.329H237.496C237.434 109.452 237.341 109.574 237.218 109.693C237.094 109.812 236.935 109.912 236.741 109.99C236.547 110.069 236.315 110.109 236.045 110.109ZM236.252 109.342C236.517 109.342 236.742 109.289 236.93 109.185C237.12 109.081 237.263 108.944 237.361 108.776C237.462 108.605 237.512 108.423 237.512 108.229V107.597C237.478 107.631 237.411 107.663 237.313 107.692C237.218 107.72 237.108 107.745 236.984 107.766C236.861 107.785 236.74 107.803 236.623 107.82C236.506 107.835 236.408 107.848 236.329 107.859C236.144 107.882 235.974 107.922 235.821 107.977C235.67 108.032 235.548 108.112 235.457 108.217C235.367 108.319 235.322 108.455 235.322 108.626C235.322 108.862 235.41 109.041 235.584 109.163C235.759 109.282 235.982 109.342 236.252 109.342ZM239.74 110V105.091H240.696V110H239.74ZM240.223 104.333C240.056 104.333 239.914 104.278 239.794 104.167C239.677 104.054 239.619 103.92 239.619 103.765C239.619 103.607 239.677 103.473 239.794 103.362C239.914 103.249 240.056 103.192 240.223 103.192C240.389 103.192 240.531 103.249 240.648 103.362C240.767 103.473 240.827 103.607 240.827 103.765C240.827 103.92 240.767 104.054 240.648 104.167C240.531 104.278 240.389 104.333 240.223 104.333ZM242.937 103.455V110H241.981V103.455H242.937ZM245.651 110.109C245.34 110.109 245.059 110.051 244.807 109.936C244.556 109.819 244.357 109.65 244.21 109.428C244.065 109.206 243.992 108.935 243.992 108.613C243.992 108.336 244.046 108.108 244.152 107.929C244.259 107.75 244.403 107.608 244.584 107.504C244.765 107.4 244.967 107.321 245.191 107.267C245.415 107.214 245.643 107.174 245.875 107.146C246.169 107.112 246.407 107.084 246.591 107.063C246.774 107.039 246.907 107.002 246.99 106.951C247.073 106.9 247.115 106.817 247.115 106.702V106.679C247.115 106.4 247.036 106.184 246.878 106.031C246.723 105.877 246.491 105.8 246.182 105.8C245.86 105.8 245.606 105.872 245.421 106.015C245.238 106.155 245.111 106.312 245.041 106.484L244.143 106.28C244.249 105.982 244.405 105.741 244.609 105.558C244.816 105.372 245.053 105.238 245.322 105.155C245.59 105.07 245.873 105.027 246.169 105.027C246.365 105.027 246.573 105.05 246.792 105.097C247.014 105.142 247.22 105.225 247.412 105.347C247.606 105.468 247.765 105.642 247.888 105.868C248.012 106.091 248.074 106.382 248.074 106.74V110H247.14V109.329H247.102C247.04 109.452 246.948 109.574 246.824 109.693C246.7 109.812 246.542 109.912 246.348 109.99C246.154 110.069 245.922 110.109 245.651 110.109ZM245.859 109.342C246.123 109.342 246.349 109.289 246.536 109.185C246.726 109.081 246.87 108.944 246.968 108.776C247.068 108.605 247.118 108.423 247.118 108.229V107.597C247.084 107.631 247.018 107.663 246.92 107.692C246.824 107.72 246.714 107.745 246.591 107.766C246.467 107.785 246.347 107.803 246.23 107.82C246.112 107.835 246.014 107.848 245.936 107.859C245.75 107.882 245.581 107.922 245.427 107.977C245.276 108.032 245.155 108.112 245.063 108.217C244.974 108.319 244.929 108.455 244.929 108.626C244.929 108.862 245.016 109.041 245.191 109.163C245.366 109.282 245.588 109.342 245.859 109.342ZM249.423 110V103.455H250.379V105.887H250.436C250.492 105.784 250.572 105.666 250.676 105.532C250.78 105.398 250.925 105.281 251.111 105.18C251.296 105.078 251.541 105.027 251.846 105.027C252.242 105.027 252.596 105.127 252.907 105.327C253.218 105.528 253.462 105.816 253.639 106.194C253.818 106.571 253.907 107.025 253.907 107.555C253.907 108.086 253.819 108.54 253.642 108.92C253.465 109.297 253.222 109.588 252.913 109.792C252.604 109.995 252.252 110.096 251.855 110.096C251.557 110.096 251.313 110.046 251.123 109.946C250.936 109.846 250.789 109.728 250.682 109.594C250.576 109.46 250.494 109.341 250.436 109.236H250.356V110H249.423ZM250.36 107.545C250.36 107.891 250.41 108.193 250.51 108.453C250.61 108.713 250.755 108.917 250.945 109.064C251.134 109.208 251.366 109.281 251.641 109.281C251.927 109.281 252.165 109.205 252.357 109.054C252.549 108.901 252.694 108.693 252.792 108.431C252.892 108.169 252.942 107.874 252.942 107.545C252.942 107.222 252.893 106.931 252.795 106.673C252.699 106.415 252.554 106.212 252.36 106.062C252.169 105.913 251.929 105.839 251.641 105.839C251.364 105.839 251.13 105.91 250.938 106.053C250.748 106.196 250.605 106.395 250.507 106.651C250.409 106.906 250.36 107.205 250.36 107.545ZM255.936 103.455V110H254.98V103.455H255.936ZM259.337 110.099C258.854 110.099 258.437 109.996 258.088 109.789C257.74 109.58 257.472 109.287 257.282 108.91C257.095 108.531 257.001 108.087 257.001 107.577C257.001 107.075 257.095 106.631 257.282 106.248C257.472 105.864 257.736 105.565 258.075 105.35C258.416 105.135 258.814 105.027 259.27 105.027C259.547 105.027 259.816 105.073 260.076 105.164C260.335 105.256 260.569 105.4 260.775 105.596C260.982 105.792 261.145 106.047 261.264 106.36C261.384 106.671 261.443 107.049 261.443 107.494V107.833H257.541V107.117H260.507C260.507 106.866 260.456 106.643 260.354 106.449C260.251 106.253 260.108 106.099 259.922 105.986C259.739 105.873 259.524 105.816 259.277 105.816C259.008 105.816 258.774 105.882 258.573 106.015C258.375 106.145 258.222 106.315 258.113 106.526C258.007 106.735 257.953 106.962 257.953 107.207V107.766C257.953 108.094 258.011 108.373 258.126 108.603C258.243 108.833 258.406 109.009 258.615 109.131C258.824 109.25 259.068 109.31 259.347 109.31C259.528 109.31 259.693 109.284 259.842 109.233C259.991 109.18 260.12 109.101 260.229 108.996C260.338 108.892 260.421 108.763 260.478 108.61L261.383 108.773C261.31 109.039 261.18 109.272 260.993 109.473C260.807 109.671 260.574 109.825 260.293 109.936C260.014 110.045 259.695 110.099 259.337 110.099Z" fill="#898989"/>
<path d="M65.272 49H64.2237L66.5792 42.4545H67.7202L70.0756 49H69.0273L67.1768 43.6435H67.1257L65.272 49ZM65.4478 46.4368H68.8484V47.2678H65.4478V46.4368ZM70.9442 49V44.0909H71.8678V44.8707H71.9189C72.0084 44.6065 72.1661 44.3988 72.392 44.2475C72.6199 44.0941 72.8778 44.0174 73.1654 44.0174C73.2251 44.0174 73.2954 44.0195 73.3763 44.0238C73.4594 44.0281 73.5244 44.0334 73.5713 44.0398V44.9538C73.5329 44.9432 73.4648 44.9315 73.3667 44.9187C73.2687 44.9038 73.1707 44.8963 73.0727 44.8963C72.8469 44.8963 72.6455 44.9442 72.4687 45.0401C72.2939 45.1339 72.1555 45.2649 72.0532 45.4332C71.9509 45.5994 71.8998 45.7891 71.8998 46.0021V49H70.9442ZM76.3382 49.0991C75.8546 49.0991 75.438 48.9957 75.0886 48.7891C74.7413 48.5803 74.4728 48.2873 74.2832 47.9102C74.0957 47.5309 74.002 47.0866 74.002 46.5774C74.002 46.0746 74.0957 45.6314 74.2832 45.2479C74.4728 44.8643 74.737 44.565 75.0758 44.3498C75.4167 44.1346 75.8152 44.027 76.2711 44.027C76.5481 44.027 76.8166 44.0728 77.0765 44.1644C77.3365 44.256 77.5698 44.3999 77.7765 44.5959C77.9831 44.7919 78.1461 45.0465 78.2654 45.3597C78.3848 45.6708 78.4444 46.049 78.4444 46.4943V46.8331H74.5421V46.1172H77.508C77.508 45.8658 77.4569 45.6431 77.3546 45.4492C77.2523 45.2532 77.1085 45.0987 76.9231 44.9858C76.7399 44.8729 76.5247 44.8164 76.2775 44.8164C76.0091 44.8164 75.7747 44.8825 75.5744 45.0146C75.3762 45.1445 75.2228 45.315 75.1142 45.5259C75.0076 45.7347 74.9544 45.9616 74.9544 46.2067V46.766C74.9544 47.0941 75.0119 47.3732 75.127 47.6033C75.2441 47.8335 75.4071 48.0092 75.6159 48.1307C75.8248 48.25 76.0687 48.3097 76.3478 48.3097C76.5289 48.3097 76.6941 48.2841 76.8432 48.233C76.9924 48.1797 77.1213 48.1009 77.2299 47.9964C77.3386 47.892 77.4217 47.7631 77.4792 47.6097L78.3837 47.7727C78.3113 48.0391 78.1813 48.2724 77.9938 48.4727C77.8084 48.6708 77.5751 48.8253 77.2939 48.9361C77.0147 49.0447 76.6962 49.0991 76.3382 49.0991ZM80.9333 49.1087C80.6222 49.1087 80.341 49.0511 80.0896 48.9361C79.8382 48.8189 79.6389 48.6495 79.4919 48.4279C79.347 48.2063 79.2746 47.9347 79.2746 47.6129C79.2746 47.3359 79.3279 47.108 79.4344 46.929C79.5409 46.75 79.6847 46.6083 79.8659 46.5039C80.047 46.3995 80.2494 46.3207 80.4731 46.2674C80.6968 46.2141 80.9248 46.1737 81.157 46.146C81.4511 46.1119 81.6897 46.0842 81.873 46.0629C82.0562 46.0394 82.1894 46.0021 82.2725 45.951C82.3556 45.8999 82.3971 45.8168 82.3971 45.7017V45.6793C82.3971 45.4002 82.3183 45.1839 82.1606 45.0305C82.0051 44.8771 81.7728 44.8004 81.4639 44.8004C81.1421 44.8004 80.8886 44.8718 80.7032 45.0146C80.52 45.1552 80.3932 45.3118 80.3229 45.4844L79.4248 45.2798C79.5313 44.9815 79.6869 44.7408 79.8914 44.5575C80.0981 44.3722 80.3357 44.2379 80.6041 44.1548C80.8726 44.0696 81.1549 44.027 81.4511 44.027C81.6471 44.027 81.8548 44.0504 82.0743 44.0973C82.2959 44.142 82.5026 44.2251 82.6943 44.3466C82.8882 44.468 83.047 44.6417 83.1705 44.8675C83.2941 45.0913 83.3559 45.3821 83.3559 45.7401V49H82.4227V48.3288H82.3843C82.3225 48.4524 82.2298 48.5739 82.1063 48.6932C81.9827 48.8125 81.824 48.9116 81.6301 48.9904C81.4362 49.0692 81.2039 49.1087 80.9333 49.1087ZM81.1411 48.3416C81.4053 48.3416 81.6311 48.2894 81.8186 48.185C82.0083 48.0806 82.1521 47.9442 82.2501 47.7759C82.3502 47.6055 82.4003 47.4233 82.4003 47.2294V46.5966C82.3662 46.6307 82.3002 46.6626 82.2021 46.6925C82.1063 46.7202 81.9965 46.7447 81.873 46.766C81.7494 46.7852 81.629 46.8033 81.5118 46.8203C81.3946 46.8352 81.2966 46.848 81.2178 46.8587C81.0324 46.8821 80.863 46.9215 80.7096 46.9769C80.5583 47.0323 80.4369 47.1122 80.3453 47.2166C80.2558 47.3189 80.211 47.4553 80.211 47.6257C80.211 47.8622 80.2984 48.0412 80.4731 48.1626C80.6478 48.282 80.8705 48.3416 81.1411 48.3416Z" fill="#898989"/>
<rect x="192" y="45" width="33" height="14" fill="white"/>
<circle cx="207.5" cy="51.5" r="33" fill="white" stroke="#32B8DC" stroke-width="19"/>
<mask id="path-6-inside-1_5_12" fill="white">
<path d="M247.752 65.1385C250.964 55.6596 250.727 45.3514 247.084 36.0297C243.441 26.7081 236.625 18.9712 227.837 14.1819L207.5 51.5L247.752 65.1385Z"/>
</mask>
<path d="M247.752 65.1385C250.964 55.6596 250.727 45.3514 247.084 36.0297C243.441 26.7081 236.625 18.9712 227.837 14.1819L207.5 51.5L247.752 65.1385Z" stroke="#157F9B" stroke-width="38" mask="url(#path-6-inside-1_5_12)"/>
<circle cx="208" cy="52" r="24" fill="white"/>
<path d="M198.908 57.1193C198.294 57.1193 197.749 57.0142 197.271 56.804C196.797 56.5937 196.422 56.3011 196.146 55.9261C195.871 55.5511 195.724 55.1179 195.707 54.6264H197.31C197.324 54.8622 197.402 55.0682 197.544 55.2443C197.686 55.4176 197.875 55.5526 198.111 55.6491C198.347 55.7457 198.611 55.794 198.903 55.794C199.216 55.794 199.493 55.7401 199.734 55.6321C199.976 55.5213 200.165 55.3679 200.301 55.1719C200.438 54.9759 200.504 54.75 200.501 54.4943C200.504 54.2301 200.436 53.9972 200.297 53.7955C200.158 53.5937 199.956 53.4361 199.692 53.3224C199.43 53.2088 199.115 53.152 198.746 53.152H197.974V51.9332H198.746C199.05 51.9332 199.315 51.8807 199.543 51.7756C199.773 51.6705 199.953 51.5227 200.084 51.3324C200.214 51.1392 200.278 50.9162 200.276 50.6634C200.278 50.4162 200.223 50.2017 200.109 50.0199C199.999 49.8352 199.841 49.6918 199.636 49.5895C199.435 49.4872 199.197 49.4361 198.925 49.4361C198.658 49.4361 198.411 49.4844 198.183 49.581C197.956 49.6776 197.773 49.8153 197.634 49.9943C197.494 50.1705 197.42 50.3807 197.412 50.625H195.891C195.902 50.1364 196.043 49.7074 196.312 49.3381C196.585 48.9659 196.949 48.6761 197.403 48.4688C197.858 48.2585 198.368 48.1534 198.933 48.1534C199.516 48.1534 200.021 48.2628 200.45 48.4815C200.882 48.6974 201.216 48.9886 201.452 49.3551C201.688 49.7216 201.805 50.1264 201.805 50.5696C201.808 51.0611 201.663 51.473 201.371 51.8054C201.081 52.1378 200.7 52.3551 200.229 52.4574V52.5256C200.842 52.6108 201.313 52.8381 201.639 53.2074C201.969 53.5739 202.132 54.0298 202.129 54.5753C202.129 55.0639 201.99 55.5014 201.712 55.8878C201.436 56.2713 201.055 56.5724 200.57 56.7912C200.087 57.0099 199.533 57.1193 198.908 57.1193ZM203.434 55.3807V54.1236L207.137 48.2727H208.186V50.0625H207.547L205.054 54.0128V54.081H210.223V55.3807H203.434ZM207.598 57V54.9972L207.615 54.4347V48.2727H209.106V57H207.598ZM216.25 55.3636V54.9034C216.25 54.5653 216.321 54.2543 216.463 53.9702C216.608 53.6861 216.819 53.4574 217.094 53.2841C217.37 53.1108 217.703 53.0241 218.096 53.0241C218.499 53.0241 218.837 53.1108 219.11 53.2841C219.382 53.4545 219.588 53.6818 219.728 53.9659C219.87 54.25 219.941 54.5625 219.941 54.9034V55.3636C219.941 55.7017 219.87 56.0128 219.728 56.2969C219.586 56.581 219.377 56.8097 219.101 56.983C218.828 57.1563 218.493 57.2429 218.096 57.2429C217.698 57.2429 217.361 57.1563 217.086 56.983C216.81 56.8097 216.601 56.581 216.459 56.2969C216.32 56.0128 216.25 55.7017 216.25 55.3636ZM217.363 54.9034V55.3636C217.363 55.5881 217.417 55.794 217.525 55.9815C217.632 56.169 217.823 56.2628 218.096 56.2628C218.371 56.2628 218.56 56.1705 218.662 55.9858C218.767 55.7983 218.82 55.5909 218.82 55.3636V54.9034C218.82 54.6761 218.77 54.4688 218.671 54.2812C218.571 54.0909 218.38 53.9957 218.096 53.9957C217.828 53.9957 217.64 54.0909 217.529 54.2812C217.418 54.4688 217.363 54.6761 217.363 54.9034ZM211.814 50.3693V49.9091C211.814 49.5682 211.887 49.2557 212.032 48.9716C212.176 48.6875 212.387 48.4602 212.662 48.2898C212.938 48.1165 213.272 48.0298 213.664 48.0298C214.064 48.0298 214.401 48.1165 214.674 48.2898C214.949 48.4602 215.157 48.6875 215.296 48.9716C215.435 49.2557 215.505 49.5682 215.505 49.9091V50.3693C215.505 50.7102 215.434 51.0227 215.292 51.3068C215.152 51.5881 214.945 51.8139 214.669 51.9844C214.394 52.1548 214.059 52.2401 213.664 52.2401C213.263 52.2401 212.925 52.1548 212.65 51.9844C212.377 51.8139 212.169 51.5866 212.027 51.3026C211.885 51.0185 211.814 50.7074 211.814 50.3693ZM212.935 49.9091V50.3693C212.935 50.5966 212.988 50.804 213.093 50.9915C213.201 51.1761 213.391 51.2685 213.664 51.2685C213.936 51.2685 214.124 51.1761 214.226 50.9915C214.331 50.804 214.384 50.5966 214.384 50.3693V49.9091C214.384 49.6818 214.334 49.4744 214.235 49.2869C214.135 49.0966 213.945 49.0014 213.664 49.0014C213.394 49.0014 213.205 49.0966 213.097 49.2869C212.989 49.4773 212.935 49.6847 212.935 49.9091ZM212.3 57L218.3 48.2727H219.365L213.365 57H212.3Z" fill="#898989"/>
<path d="M54.3253 57.2727V66H52.7443V58.8111H52.6932L50.652 60.1151V58.6662L52.821 57.2727H54.3253ZM59.6733 66.1193C59.0597 66.1193 58.5142 66.0142 58.0369 65.804C57.5625 65.5937 57.1875 65.3011 56.9119 64.9261C56.6364 64.5511 56.4901 64.1179 56.473 63.6264H58.0753C58.0895 63.8622 58.1676 64.0682 58.3097 64.2443C58.4517 64.4176 58.6406 64.5526 58.8764 64.6491C59.1122 64.7457 59.3764 64.794 59.669 64.794C59.9815 64.794 60.2585 64.7401 60.5 64.6321C60.7415 64.5213 60.9304 64.3679 61.0668 64.1719C61.2031 63.9759 61.2699 63.75 61.267 63.4943C61.2699 63.2301 61.2017 62.9972 61.0625 62.7955C60.9233 62.5937 60.7216 62.4361 60.4574 62.3224C60.196 62.2088 59.8807 62.152 59.5114 62.152H58.7401V60.9332H59.5114C59.8153 60.9332 60.081 60.8807 60.3082 60.7756C60.5384 60.6705 60.7188 60.5227 60.8494 60.3324C60.9801 60.1392 61.044 59.9162 61.0412 59.6634C61.044 59.4162 60.9886 59.2017 60.875 59.0199C60.7642 58.8352 60.6065 58.6918 60.402 58.5895C60.2003 58.4872 59.9631 58.4361 59.6903 58.4361C59.4233 58.4361 59.1761 58.4844 58.9489 58.581C58.7216 58.6776 58.5384 58.8153 58.3991 58.9943C58.2599 59.1705 58.1861 59.3807 58.1776 59.625H56.6562C56.6676 59.1364 56.8082 58.7074 57.0781 58.3381C57.3509 57.9659 57.7145 57.6761 58.169 57.4688C58.6236 57.2585 59.1335 57.1534 59.6989 57.1534C60.2813 57.1534 60.7869 57.2628 61.2159 57.4815C61.6477 57.6974 61.9815 57.9886 62.2173 58.3551C62.4531 58.7216 62.571 59.1264 62.571 59.5696C62.5739 60.0611 62.429 60.473 62.1364 60.8054C61.8466 61.1378 61.4659 61.3551 60.9943 61.4574V61.5256C61.608 61.6108 62.0781 61.8381 62.4048 62.2074C62.7344 62.5739 62.8977 63.0298 62.8949 63.5753C62.8949 64.0639 62.7557 64.5014 62.4773 64.8878C62.2017 65.2713 61.821 65.5724 61.3352 65.7912C60.8523 66.0099 60.2983 66.1193 59.6733 66.1193ZM67.5835 66.1662C66.8817 66.1662 66.2795 65.9886 65.7766 65.6335C65.2766 65.2756 64.8917 64.7599 64.6218 64.0866C64.3548 63.4105 64.2212 62.5966 64.2212 61.6449C64.2241 60.6932 64.359 59.8835 64.6261 59.2159C64.896 58.5455 65.2809 58.0341 65.7809 57.6818C66.2837 57.3295 66.8846 57.1534 67.5835 57.1534C68.2823 57.1534 68.8832 57.3295 69.386 57.6818C69.8888 58.0341 70.2738 58.5455 70.5408 59.2159C70.8107 59.8864 70.9457 60.696 70.9457 61.6449C70.9457 62.5994 70.8107 63.4148 70.5408 64.0909C70.2738 64.7642 69.8888 65.2784 69.386 65.6335C68.886 65.9886 68.2852 66.1662 67.5835 66.1662ZM67.5835 64.8324C68.1289 64.8324 68.5593 64.5639 68.8746 64.027C69.1928 63.4872 69.3519 62.6932 69.3519 61.6449C69.3519 60.9517 69.2795 60.3693 69.1346 59.8977C68.9897 59.4261 68.7852 59.071 68.521 58.8324C68.2567 58.5909 67.9442 58.4702 67.5835 58.4702C67.0408 58.4702 66.6119 58.7401 66.2965 59.2798C65.9812 59.8168 65.8221 60.6051 65.8192 61.6449C65.8164 62.3409 65.886 62.9261 66.0281 63.4006C66.1729 63.875 66.3775 64.233 66.6417 64.4744C66.9059 64.7131 67.2198 64.8324 67.5835 64.8324ZM80.1662 59.6719C80.1264 59.2997 79.9588 59.0099 79.6634 58.8026C79.3707 58.5952 78.9901 58.4915 78.5213 58.4915C78.1918 58.4915 77.9091 58.5412 77.6733 58.6406C77.4375 58.7401 77.2571 58.875 77.1321 59.0455C77.0071 59.2159 76.9432 59.4105 76.9403 59.6293C76.9403 59.8111 76.9815 59.9687 77.0639 60.1023C77.1491 60.2358 77.2642 60.3494 77.4091 60.4432C77.554 60.5341 77.7145 60.6108 77.8906 60.6733C78.0668 60.7358 78.2443 60.7884 78.4233 60.831L79.2415 61.0355C79.571 61.1122 79.8878 61.2159 80.1918 61.3466C80.4986 61.4773 80.7727 61.642 81.0142 61.8409C81.2585 62.0398 81.4517 62.2798 81.5938 62.5611C81.7358 62.8423 81.8068 63.1719 81.8068 63.5497C81.8068 64.0611 81.6761 64.5114 81.4148 64.9006C81.1534 65.2869 80.7756 65.5895 80.2812 65.8082C79.7898 66.0241 79.1946 66.1321 78.4957 66.1321C77.8168 66.1321 77.2273 66.027 76.7273 65.8168C76.2301 65.6065 75.8409 65.2997 75.5597 64.8963C75.2813 64.4929 75.1307 64.0014 75.108 63.4219H76.6634C76.6861 63.7259 76.7798 63.9787 76.9446 64.1804C77.1094 64.3821 77.3239 64.5327 77.5881 64.6321C77.8551 64.7315 78.1534 64.7812 78.483 64.7812C78.8267 64.7812 79.1278 64.7301 79.3864 64.6278C79.6477 64.5227 79.8523 64.3778 80 64.1932C80.1477 64.0057 80.223 63.7869 80.2259 63.5369C80.223 63.3097 80.1563 63.1222 80.0256 62.9744C79.8949 62.8239 79.7116 62.6989 79.4759 62.5994C79.2429 62.4972 78.9702 62.4062 78.6577 62.3267L77.6648 62.071C76.946 61.8864 76.3778 61.6065 75.9602 61.2315C75.5455 60.8537 75.3381 60.3523 75.3381 59.7273C75.3381 59.2131 75.4773 58.7628 75.7557 58.3764C76.0369 57.9901 76.419 57.6903 76.902 57.4773C77.3849 57.2614 77.9318 57.1534 78.5426 57.1534C79.1619 57.1534 79.7045 57.2614 80.1705 57.4773C80.6392 57.6903 81.0071 57.9872 81.2741 58.3679C81.5412 58.7457 81.679 59.1804 81.6875 59.6719H80.1662ZM86.4677 63.0682H87.8995L88.7475 64.1676L89.3526 64.8835L90.8058 66.75H89.2717L88.283 65.4972L87.8612 64.9006L86.4677 63.0682ZM91.0146 61.6364C91.0146 62.5767 90.8384 63.3821 90.4862 64.0526C90.1367 64.7202 89.6594 65.2315 89.0543 65.5866C88.4521 65.9418 87.7688 66.1193 87.0046 66.1193C86.2404 66.1193 85.5558 65.9418 84.9506 65.5866C84.3484 65.2287 83.8711 64.7159 83.5188 64.0483C83.1694 63.3778 82.9947 62.5739 82.9947 61.6364C82.9947 60.696 83.1694 59.892 83.5188 59.2244C83.8711 58.554 84.3484 58.0412 84.9506 57.6861C85.5558 57.331 86.2404 57.1534 87.0046 57.1534C87.7688 57.1534 88.4521 57.331 89.0543 57.6861C89.6594 58.0412 90.1367 58.554 90.4862 59.2244C90.8384 59.892 91.0146 60.696 91.0146 61.6364ZM89.4251 61.6364C89.4251 60.9744 89.3214 60.4162 89.114 59.9616C88.9094 59.5043 88.6254 59.1591 88.2617 58.9261C87.8981 58.6903 87.479 58.5724 87.0046 58.5724C86.5302 58.5724 86.1112 58.6903 85.7475 58.9261C85.3839 59.1591 85.0984 59.5043 84.891 59.9616C84.6864 60.4162 84.5842 60.9744 84.5842 61.6364C84.5842 62.2983 84.6864 62.858 84.891 63.3153C85.0984 63.7699 85.3839 64.1151 85.7475 64.3509C86.1112 64.5838 86.5302 64.7003 87.0046 64.7003C87.479 64.7003 87.8981 64.5838 88.2617 64.3509C88.6254 64.1151 88.9094 63.7699 89.114 63.3153C89.3214 62.858 89.4251 62.2983 89.4251 61.6364ZM92.521 66V57.2727H94.1019V61.2827H94.2085L97.6133 57.2727H99.5437L96.1687 61.1889L99.5735 66H97.6729L95.0692 62.2585L94.1019 63.4006V66H92.521Z" fill="#898989"/>
</svg>
