<svg width="13" height="28" viewBox="0 0 13 28" fill="none" xmlns="http://www.w3.org/2000/svg">
<path d="M12.5478 14.4931L9.81737 11.4811C9.64733 11.2936 9.49098 10.9072 9.48312 10.6539L9.38267 7.52866V7.43811C9.38267 6.95654 8.99078 6.56465 8.50921 6.56465H5.83642H4.77429C4.34396 6.56465 3.86385 6.86949 3.68071 7.25876L0.0826286 14.9016C-0.0169461 15.1135 -0.0268456 15.3502 0.0546776 15.5689C0.136201 15.7872 0.299247 15.9596 0.513245 16.0539L1.04344 16.2877C1.1564 16.3375 1.27694 16.3629 1.40185 16.3629C1.74454 16.3629 2.06364 16.1681 2.21533 15.8667L3.90082 12.5135V15.8839C3.89384 15.9034 3.88365 15.9212 3.87724 15.941L1.02888 24.8614C0.91038 25.2329 0.946482 25.6239 1.13078 25.9622C1.31508 26.3005 1.62371 26.5428 2.00046 26.6444L2.19087 26.6959C2.31549 26.7297 2.44476 26.7469 2.57462 26.7469C3.23 26.7469 3.82541 26.3157 4.02282 25.6978L6.68426 17.3627L7.62818 19.6747C7.85848 20.2387 8.10713 21.2263 8.17118 21.8319L8.62276 26.0889C8.69526 26.7705 9.23418 27.2651 9.90442 27.2651C10.0142 27.2651 10.1257 27.2517 10.2355 27.2252L10.4273 27.1786C11.1913 26.9938 11.7311 26.2088 11.6307 25.4294L10.9619 20.2387C10.8769 19.5792 10.5924 18.5465 10.3278 17.9365L9.4246 15.8565C9.41295 15.8295 9.39636 15.805 9.38297 15.7788V14.3693L11.0105 16.0685C11.1724 16.2377 11.389 16.3308 11.6202 16.3308C11.854 16.3308 12.0724 16.2359 12.2348 16.0636L12.5359 15.7439C12.8579 15.4018 12.8634 14.841 12.5478 14.4931Z" fill="white"/>
<path d="M6.88461 5.82454C8.49062 5.82454 9.79702 4.51813 9.79702 2.91212C9.79702 1.30641 8.49062 0 6.88461 0C5.2789 0 3.97278 1.30641 3.97278 2.91212C3.97249 4.51813 5.2789 5.82454 6.88461 5.82454Z" fill="white"/>
</svg>
