<?xml version="1.0" encoding="UTF-8"?><svg id="Layer_1" xmlns="http://www.w3.org/2000/svg" viewBox="0 0 295.31 144.33"><defs><style>.cls-1{fill:none;}</style></defs><rect class="cls-1" x="240.31" y="10.69" width="55" height="52.38"/><g id="IZQXk1.tif"><path d="M53.18,38.02c8.94-.03,21.3-.19,30.23,.03,9.45,.24,17.38,4.08,22.94,11.78,9.97,13.8,5.42,32.43-9.53,40.28-1.59,.84-3.26,1.54-4.89,2.31,1.94,3.56,18.83,20.25,24.07,23.8,18.38-16.16,26.11-47.94,11.26-74.33C110.83,12.7,77.77,1.92,47.89,14.64,18.17,27.29,4.98,57.16,11.69,86.59c6.69,29.32,37.26,55.09,76.96,45.84,3.34,3.27,3.84,3.93,6.95,7.47-3.8,2.79-8.22,2.67-12.32,3.6-.67,.15-3.11,.37-4.74,.59-1.2,.16-2.41,.24-3.62,.24h-6.81c-2.3,0-4.59-.29-6.82-.87-1.15-.3-2.31-.55-3.48-.75-8.33-1.42-16-4.6-23.16-8.94-12.63-7.65-21.76-18.42-28.11-31.75C1.61,91.63-.43,80.7,.07,69.36,.86,51.76,7.07,36.29,19.19,23.3c7.1-7.6,15.34-13.53,24.87-17.66C51.54,2.41,59.37,.62,67.51,.14c11.73-.68,23.05,1.02,33.79,5.89,9.87,4.48,18.6,10.4,25.69,18.85,5.6,6.68,10.24,13.79,13.14,21.97,2.37,6.69,3.96,13.43,4.22,20.72,.23,6.43,.45,13.21-1.12,19.74-3.35,13.95-9.64,26.24-20.22,36.13-2.74,2.56-5.02,5.75-9.22,7.13-13.28-13.26-26.6-26.56-39.9-39.84v-6.94c3.53-.05,6.79-.1,10.05-.14,9.76-.14,17.61-7.71,18.06-17.43,.42-8.98-8.09-17.96-17.43-18.13-8.77-.16-17.54-.04-26.31-.05-1.79,0-3.57,0-5.12,0"/></g></svg>