<svg width="40" height="40" viewBox="0 0 40 40" fill="none" xmlns="http://www.w3.org/2000/svg">
<g clip-path="url(#clip0_1722_1442)">
<path d="M33.4305 18.5211C32.7162 17.9239 31.9905 17.3395 31.2581 16.7646C30.8849 16.4717 30.4869 16.2103 30.1123 15.9432C30.2253 15.6508 30.3329 15.3729 30.4403 15.095C30.4107 15.0762 30.3812 15.0573 30.3516 15.0385C30.053 15.1961 29.7592 15.3633 29.455 15.5092C29.0332 15.7112 28.8924 15.6155 28.8981 15.1533C28.9003 14.9668 28.9043 14.7796 28.8907 14.5938C28.8852 14.52 28.8515 14.4114 28.7996 14.3881C28.7483 14.3651 28.6349 14.4088 28.5879 14.4596C28.3158 14.7537 28.0551 15.0586 27.7853 15.3659C25.4965 15.3319 23.1583 15.3288 20.8227 15.249C19.667 15.2097 18.5155 15.0352 17.3631 14.9107C16.2089 14.7861 15.0505 14.5916 13.9009 14.8888C11.9623 15.39 10.195 16.2276 8.81215 17.722C8.19069 18.3936 7.81847 19.1792 8.09003 20.1363C8.11688 20.2312 8.15512 20.3227 8.19669 20.4398C8.29446 20.3761 8.35995 20.3336 8.44793 20.2763C8.94295 21.1719 9.82527 21.6684 10.5249 22.35C11.1716 22.98 11.1916 23.2311 10.6749 24.1452C10.6347 24.2165 10.5855 24.2926 10.5208 24.3389C9.85937 24.8118 9.90307 25.4888 10.0295 26.1574C10.177 26.9378 10.2514 27.7152 10.1647 28.5052C10.1388 28.7408 10.2106 28.905 10.4471 28.9917C10.5511 29.0298 10.6494 29.0969 10.7345 29.1693C11.0599 29.4465 11.3812 29.5934 11.7666 29.6061C11.7693 29.6067 11.8488 29.6148 11.8824 29.6099C11.9424 29.6119 12.0024 29.6143 12.0621 29.6179C12.1069 29.6206 12.1726 29.593 12.1974 29.5577C12.2588 29.4704 12.4552 29.6181 12.814 29.3529C12.9252 29.2707 12.594 28.9312 12.6776 28.8038C12.4975 28.5199 12.2241 28.2711 11.8205 28.199C11.5827 28.1566 11.4561 28.0361 11.4731 27.776C11.4819 27.6437 11.4483 27.5084 11.4307 27.3749C11.3144 26.4915 11.7178 25.8615 12.4069 25.3706C12.5432 25.2736 12.6819 25.177 12.8415 25.0655C12.8733 25.0742 12.9052 25.0819 12.9377 25.0886C13.1739 26.2085 13.6789 27.2352 13.6834 28.3809C13.6844 28.6072 13.7787 28.7684 13.9971 28.8688C14.3904 29.0496 14.7718 29.2557 15.1645 29.4378C15.2581 29.4813 15.3764 29.4721 15.4832 29.4871C15.4735 29.3816 15.4653 29.276 15.453 29.1708C15.4474 29.1218 15.4339 29.0737 15.423 29.0204C15.6815 28.9404 15.9255 28.8648 16.1695 28.7891C16.1775 28.7405 16.1857 28.6919 16.1936 28.6431C16.0723 28.5723 15.9536 28.4947 15.8332 28.4214C15.7944 28.3826 15.7445 28.3545 15.6888 28.3371C15.6135 28.295 15.5371 28.2559 15.458 28.2227C15.0885 28.0676 14.9837 27.9615 14.9699 27.5595C14.9596 27.2591 14.9851 26.9549 14.9474 26.6585C14.8155 25.6252 15.1221 24.6983 15.5845 23.7991C15.7077 23.5595 15.8225 23.451 16.1303 23.5225C16.8051 23.6794 17.4944 23.7735 18.1773 23.8956C18.3595 23.9282 18.5403 23.9691 18.7753 24.0169C18.7255 24.5358 18.6706 25.0351 18.6316 25.5358C18.5585 26.4738 18.4908 27.4122 18.4288 28.3509C18.4009 28.7744 19.0336 29.491 19.4421 29.4899C19.5207 29.4897 19.5988 29.3738 19.6534 29.33C19.9843 29.3032 20.3057 29.3015 20.617 29.244C20.8817 29.1951 20.912 29.0445 20.7139 28.8544C20.4839 28.6338 20.2268 28.4406 20.0063 28.2117C19.9245 28.1266 19.8728 27.9723 19.8785 27.8527C19.8867 27.6808 19.935 27.5001 20.0095 27.3439C20.3595 26.6112 20.7244 25.8857 21.111 25.1028C21.452 25.768 21.7482 26.3787 22.076 26.9723C22.2792 27.3403 22.5176 27.691 22.7635 28.0326C22.9819 28.3356 23.2095 28.615 23.1956 29.0273C23.1867 29.29 23.2919 29.3091 23.5314 29.2184C23.676 29.1636 23.8631 29.1663 24.017 29.2027C24.2768 29.2642 24.526 29.3714 24.7787 29.4623C24.9505 29.5242 25.0785 29.5176 25.1304 29.3016C25.1883 29.0611 25.3932 29.0832 25.5801 29.0658C25.661 29.0583 25.7377 29.0065 25.8164 28.9747C25.7648 28.8971 25.7129 28.8192 25.6612 28.7416C25.6503 28.7447 25.6394 28.7481 25.6287 28.7518C25.6231 28.7286 25.612 28.7086 25.5973 28.6919L25.604 28.693C25.6002 28.6906 25.5962 28.6884 25.5922 28.6863C25.571 28.6643 25.5432 28.6487 25.5119 28.6402C25.1897 28.4554 24.8635 28.2765 24.5532 28.0734C24.4532 28.0078 24.3694 27.8666 24.3444 27.7463C24.2312 27.1996 24.134 26.649 24.0456 26.0976C23.9538 25.5249 23.8845 24.9486 23.7935 24.3757C23.7663 24.2043 23.8098 24.1152 23.9718 24.0394C24.6424 23.7262 25.1914 23.2885 25.565 22.6195C25.9877 21.8629 26.7096 21.4078 27.4265 20.9635C27.4969 20.92 27.5812 20.8919 27.6389 20.8358C27.9564 20.5289 28.3078 20.4641 28.7329 20.5975C29.5284 20.8469 30.3448 20.762 31.1638 20.7404C31.7318 20.7255 32.2932 20.7743 32.8539 20.5133C32.9249 20.6557 33.0027 20.7774 33.0468 20.9104C33.0941 21.053 33.1144 21.2082 33.3182 21.172C33.5384 21.1328 33.8249 21.2331 33.9247 20.9196C33.9682 20.7834 34.0032 20.6361 33.9998 20.4948C33.991 20.1235 33.9586 19.7525 33.9362 19.3814C33.9142 19.0091 33.6934 18.7408 33.4305 18.5211ZM23.2853 29.1414C23.2938 29.1144 23.3023 29.0871 23.3109 29.0602C23.3243 29.0747 23.3395 29.0875 23.3563 29.099C23.3332 29.1131 23.3098 29.1274 23.2853 29.1414ZM24.891 28.4143C24.8816 28.4154 24.872 28.4167 24.8625 28.4178C24.8429 28.3882 24.8181 28.3619 24.7889 28.3396C24.8234 28.3554 24.8575 28.3795 24.891 28.4143Z" fill="black"/>
</g>
<defs>
<clipPath id="clip0_1722_1442">
<rect width="26" height="26" fill="white" transform="translate(8 9)"/>
</clipPath>
</defs>
</svg>
